<svg width="65" height="76" viewBox="0 0 65 76" fill="none" xmlns="http://www.w3.org/2000/svg">
<path d="M32.0427 5C33.3431 5 34.6728 5.69818 35.7458 7.12891C36.8194 8.56031 37.5427 10.6295 37.5427 13C37.5427 15.3705 36.8194 17.4397 35.7458 18.8711C34.6728 20.3018 33.3431 21 32.0427 21C30.7423 21 29.4127 20.3018 28.3396 18.8711C27.266 17.4397 26.5427 15.3705 26.5427 13C26.5427 10.6295 27.266 8.56031 28.3396 7.12891C29.4127 5.69818 30.7423 5 32.0427 5Z" stroke="#C7E863" stroke-width="4"/>
<mask id="path-2-inside-1_131_118" fill="white">
<path d="M32.5656 23C37.2659 23 41.3837 24.727 43.6671 27.3145C46.0083 29.6618 47.5431 33.5716 47.5431 38C47.5431 45.1795 43.5135 50.9997 38.5431 51C37.4263 51 36.3579 50.704 35.3712 50.167C36.4208 52.9425 37.5787 55.946 38.5597 58.7617C40.4577 57.9282 42.5759 57.2342 44.8448 56.7432C54.3979 54.6759 62.9942 56.9382 64.046 61.7959C65.0974 66.654 58.205 72.2684 48.6515 74.3359C42.8724 75.5866 37.4448 75.2501 33.8243 73.7158C29.9147 75.0695 24.3453 75.4483 18.3361 74.5078C7.46871 72.8069 -0.718383 67.4468 0.0499268 62.5361C0.818527 57.6254 10.2518 55.0228 21.1193 56.7236C22.311 56.9102 23.47 57.144 24.589 57.4131C19.5306 50.6404 16.5656 44.0454 16.5656 39C16.5656 34.1102 18.4359 29.8523 21.1984 27.6328C23.4178 24.8703 27.6757 23.0001 32.5656 23Z"/>
</mask>
<path d="M32.5656 23L32.5656 19L32.5655 19L32.5656 23ZM43.6671 27.3145L40.668 29.9612L40.7488 30.0528L40.835 30.1392L43.6671 27.3145ZM38.5431 51L38.5431 55L38.5433 55L38.5431 51ZM35.3712 50.167L37.2833 46.6536L27.818 41.5023L31.6298 51.5819L35.3712 50.167ZM38.5597 58.7617L34.7824 60.0777L36.206 64.1641L40.1681 62.4241L38.5597 58.7617ZM44.8448 56.7432L43.9988 52.8337L43.9988 52.8337L44.8448 56.7432ZM64.046 61.7959L67.9555 60.9498L67.9554 60.9494L64.046 61.7959ZM48.6515 74.3359L49.4976 78.2454L49.4976 78.2454L48.6515 74.3359ZM33.8243 73.7158L35.3851 70.0329L33.969 69.4328L32.5156 69.936L33.8243 73.7158ZM18.3361 74.5078L17.7175 78.4597L17.7175 78.4597L18.3361 74.5078ZM0.0499268 62.5361L-3.90196 61.9176L-3.902 61.9178L0.0499268 62.5361ZM21.1193 56.7236L21.7378 52.7717L21.7378 52.7717L21.1193 56.7236ZM24.589 57.4131L23.6537 61.3022L34.4201 63.8914L27.7938 55.0195L24.589 57.4131ZM21.1984 27.6328L23.7037 30.751L24.0436 30.4779L24.3167 30.138L21.1984 27.6328ZM32.5656 23V27C36.401 27 39.3128 28.4256 40.668 29.9612L43.6671 27.3145L46.6662 24.6677C43.4546 21.0285 38.1307 19 32.5656 19V23ZM43.6671 27.3145L40.835 30.1392C42.2842 31.5921 43.5431 34.4074 43.5431 38H47.5431H51.5431C51.5431 32.7358 49.7325 27.7314 46.4992 24.4897L43.6671 27.3145ZM47.5431 38H43.5431C43.5431 40.879 42.7285 43.3117 41.6182 44.9153C40.4971 46.5347 39.3445 47 38.5429 47L38.5431 51L38.5433 55C42.712 54.9998 46.0595 52.5548 48.1957 49.4691C50.3429 46.3677 51.5431 42.3005 51.5431 38H47.5431ZM38.5431 51V47C38.1537 47 37.7377 46.9009 37.2833 46.6536L35.3712 50.167L33.4591 53.6804C34.9781 54.5071 36.699 55 38.5431 55V51ZM35.3712 50.167L31.6298 51.5819C32.6936 54.3948 33.8239 57.3265 34.7824 60.0777L38.5597 58.7617L42.337 57.4458C41.3336 54.5654 40.1481 51.4902 39.1126 48.7521L35.3712 50.167ZM38.5597 58.7617L40.1681 62.4241C41.8148 61.7009 43.6772 61.0885 45.6909 60.6527L44.8448 56.7432L43.9988 52.8337C41.4746 53.3799 39.1005 54.1555 36.9513 55.0993L38.5597 58.7617ZM44.8448 56.7432L45.6909 60.6527C49.9828 59.7239 53.868 59.818 56.6154 60.541C59.602 61.3269 60.0965 62.4571 60.1366 62.6424L64.046 61.7959L67.9554 60.9494C66.9437 56.2771 62.6141 53.8472 58.6513 52.8044C54.4494 51.6986 49.2599 51.6951 43.9988 52.8337L44.8448 56.7432ZM64.046 61.7959L60.1365 62.642C60.1766 62.8271 60.1939 64.0605 57.7994 66.0111C55.5966 67.8054 52.0976 69.4975 47.8054 70.4264L48.6515 74.3359L49.4976 78.2454C54.7589 77.1068 59.4829 74.9579 62.8519 72.2137C66.029 69.6256 68.9668 65.6228 67.9555 60.9498L64.046 61.7959ZM48.6515 74.3359L47.8054 70.4264C42.559 71.5618 38.0233 71.1509 35.3851 70.0329L33.8243 73.7158L32.2636 77.3988C36.8664 79.3493 43.1858 79.6114 49.4976 78.2454L48.6515 74.3359ZM33.8243 73.7158L32.5156 69.936C29.3869 71.0193 24.511 71.4256 18.9546 70.5559L18.3361 74.5078L17.7175 78.4597C24.1795 79.4711 30.4426 79.1197 35.1331 77.4957L33.8243 73.7158ZM18.3361 74.5078L18.9546 70.5559C13.9494 69.7725 9.75373 68.1684 7.0206 66.3791C5.65025 65.4819 4.8058 64.642 4.36257 63.9901C4.1492 63.6763 4.05996 63.4522 4.02441 63.3237C3.99209 63.2069 4.00078 63.1613 4.00185 63.1544L0.0499268 62.5361L-3.902 61.9178C-4.67963 66.8881 -0.907263 70.7508 2.63865 73.0722C6.52382 75.6158 11.8553 77.5422 17.7175 78.4597L18.3361 74.5078ZM0.0499268 62.5361L4.00182 63.1547C4.00289 63.1478 4.00856 63.1017 4.075 63.0004C4.1481 62.8889 4.30153 62.7028 4.60057 62.4692C5.22174 61.9839 6.28241 61.4421 7.86132 61.0065C11.0104 60.1377 15.4956 59.8922 20.5008 60.6755L21.1193 56.7236L21.7378 52.7717C15.8755 51.8542 10.2103 52.0596 5.73375 53.2946C1.6481 54.4217 -3.12403 56.9473 -3.90196 61.9176L0.0499268 62.5361ZM21.1193 56.7236L20.5007 60.6755C21.5796 60.8444 22.6328 61.0567 23.6537 61.3022L24.589 57.4131L25.5243 53.524C24.3072 53.2313 23.0424 52.9759 21.7378 52.7717L21.1193 56.7236ZM24.589 57.4131L27.7938 55.0195C22.8945 48.4599 20.5656 42.7329 20.5656 39H16.5656H12.5656C12.5656 45.358 16.1666 52.8209 21.3842 59.8067L24.589 57.4131ZM16.5656 39H20.5656C20.5656 34.9944 22.1152 32.0273 23.7037 30.751L21.1984 27.6328L18.693 24.5146C14.7566 27.6773 12.5656 33.2259 12.5656 39H16.5656ZM21.1984 27.6328L24.3167 30.138C25.5927 28.5497 28.5598 27.0001 32.5656 27L32.5656 23L32.5655 19C26.7916 19.0001 21.2428 21.1908 18.08 25.1276L21.1984 27.6328Z" fill="#C7E863" mask="url(#path-2-inside-1_131_118)"/>
<path d="M32.0427 46.5L30.7916 44.3105C30.2976 43.446 29.986 42.4895 29.876 41.4999C29.6626 39.5791 30.221 37.6522 31.4283 36.1431L31.5427 36" stroke="#C7E863" stroke-width="4" stroke-linecap="round"/>
</svg>
