<svg width="34" height="32" viewBox="0 0 34 32" fill="none" xmlns="http://www.w3.org/2000/svg">
<path d="M33 15.6472C32.9005 17.168 32.5687 18.6535 32.0229 20.0414C29.874 25.6549 24.1298 29.3059 18.5 29.0222C11.3808 28.9124 5.34379 22.5459 5.5 15.6472C5.5 15.6472 5.5 15.6472 5.5 15.6472C5.34379 8.7484 11.3808 2.38191 18.5 2.27216C24.1298 1.98842 29.874 5.63939 32.0229 11.2529C32.5687 12.6408 32.9005 14.1263 33 15.6472C33.1006 14.1266 32.9583 12.5778 32.565 11.0768C31.0731 5.01352 25.1156 0.124952 18.5 0.0221558C10.1721 -0.463192 2.28061 7.09873 2.5 15.6472C2.5 15.6472 2.5 15.6472 2.5 15.6472C2.28061 24.1956 10.1721 31.7575 18.5 31.2722C25.1156 31.1694 31.0731 26.2808 32.565 20.2175C32.9583 18.7165 33.1006 17.1677 33 15.6472Z" fill="url(#paint0_linear_136_94)"/>
<path d="M1 16.1472L19 16.1472" stroke="#F2A72D" stroke-width="2" stroke-linecap="round"/>
<path d="M21.7088 13.4441C23.7089 14.5988 23.7089 17.4856 21.7088 18.6403L14.5014 22.8014C13.8341 23.1867 13 22.7051 13 21.9346C13 21.577 13.1908 21.2465 13.5005 21.0677L17.7058 18.6401C19.7059 17.4855 19.706 14.5987 17.706 13.4439L13.5002 11.0156C13.1907 10.8369 13 10.5066 13 10.1492C13 9.37897 13.8338 8.8976 14.5008 9.28269L21.7088 13.4441Z" fill="#F2A72D"/>
<defs>
<linearGradient id="paint0_linear_136_94" x1="33" y1="15.6472" x2="4" y2="15.6472" gradientUnits="userSpaceOnUse">
<stop stop-color="#A0BEBF"/>
<stop offset="1" stop-color="#6B7F4F"/>
</linearGradient>
</defs>
</svg>
