<svg width="24" height="28" viewBox="0 0 24 28" fill="none" xmlns="http://www.w3.org/2000/svg">
<rect y="7.3833" width="22.153" height="20.3069" rx="3" fill="#66BB6A"/>
<line x1="21" y1="9.49963" x2="1" y2="9.49963" stroke="#E8F5E9"/>
<path d="M5.53809 3.94128C6.41945 3.94128 7.13456 4.65567 7.13477 5.53699V9.22937C7.13477 10.1109 6.41958 10.826 5.53809 10.826C4.65677 10.8258 3.94238 10.1107 3.94238 9.22937V5.53699C3.94259 4.6558 4.6569 3.94149 5.53809 3.94128Z" fill="#66BB6A" stroke="url(#paint0_linear_142_113)" stroke-width="0.5"/>
<path d="M11.0762 3.94128C11.9575 3.94128 12.6726 4.65567 12.6729 5.53699V9.22937C12.6729 10.1109 11.9577 10.826 11.0762 10.826C10.1949 10.8258 9.48047 10.1107 9.48047 9.22937V5.53699C9.48067 4.6558 10.195 3.94149 11.0762 3.94128Z" fill="#66BB6A" stroke="url(#paint1_linear_142_113)" stroke-width="0.5"/>
<path d="M16.6145 3.94128C17.4959 3.94128 18.211 4.65567 18.2112 5.53699V9.22937C18.2112 10.1109 17.496 10.826 16.6145 10.826C15.7332 10.8258 15.0188 10.1107 15.0188 9.22937V5.53699C15.019 4.6558 15.7333 3.94149 16.6145 3.94128Z" fill="#66BB6A" stroke="url(#paint2_linear_142_113)" stroke-width="0.5"/>
<path d="M21.5427 0.867188C21.7595 0.206282 22.4717 -0.154273 23.1326 0.0625C23.7934 0.279324 24.153 0.991482 23.9363 1.65234L16.072 25.6309C15.8552 26.2918 15.1431 26.6513 14.4822 26.4346C13.9832 26.2707 13.6559 25.8252 13.6189 25.332C13.6073 25.3058 13.5956 25.2793 13.5857 25.252L9.30542 13.4072C9.06916 12.7531 9.40818 12.0313 10.0623 11.7949C10.7163 11.5588 11.4382 11.8977 11.6746 12.5518L14.8386 21.3066L21.5427 0.867188Z" fill="#FFEB3B"/>
<defs>
<linearGradient id="paint0_linear_142_113" x1="7.38455" y1="7.38345" x2="3.69238" y2="7.38345" gradientUnits="userSpaceOnUse">
<stop stop-color="#FFEB3B"/>
<stop offset="1" stop-color="#E8F5E9" stop-opacity="0"/>
</linearGradient>
<linearGradient id="paint1_linear_142_113" x1="12.9226" y1="7.38345" x2="9.23047" y2="7.38345" gradientUnits="userSpaceOnUse">
<stop stop-color="#FFEB3B"/>
<stop offset="1" stop-color="#E8F5E9" stop-opacity="0"/>
</linearGradient>
<linearGradient id="paint2_linear_142_113" x1="18.461" y1="7.38345" x2="14.7688" y2="7.38345" gradientUnits="userSpaceOnUse">
<stop stop-color="#FFEB3B"/>
<stop offset="1" stop-color="#E8F5E9" stop-opacity="0"/>
</linearGradient>
</defs>
</svg>
