<svg width="41" height="32" viewBox="0 0 41 32" fill="none" xmlns="http://www.w3.org/2000/svg">
<rect y="6.00021" width="39" height="26" rx="3" fill="#1FA15E"/>
<circle cx="36" cy="7.32095" r="5" fill="#C7E863"/>
<path d="M38.7213 0.353729C38.8096 0.0846125 39.0997 -0.0626645 39.3688 0.0256042C39.6377 0.113996 39.7841 0.40406 39.6959 0.673065L36.4928 10.4367C36.4046 10.7058 36.1154 10.8529 35.8463 10.7649C35.6415 10.6977 35.5081 10.5134 35.4948 10.3108C35.4907 10.3012 35.4846 10.2923 35.4811 10.2824L33.7379 5.4592C33.642 5.19297 33.7803 4.89915 34.0465 4.80295C34.3126 4.70694 34.6064 4.84459 34.7028 5.11057L35.9908 8.67502L38.7213 0.353729Z" fill="#FF6E33"/>
<line y1="26.5002" x2="39" y2="26.5002" stroke="black"/>
<line x1="1" y1="17.5002" x2="19" y2="17.5002" stroke="black"/>
<line x1="1" y1="21.5002" x2="25" y2="21.5002" stroke="black"/>
<path d="M4.86328 7.00021C5.47218 7.00021 6.03595 7.20082 6.5 7.54025C5.75874 8.08246 5.27246 8.98126 5.27246 10.0002C5.27246 11.019 5.759 11.917 6.5 12.4592C6.03586 12.7988 5.47239 13.0002 4.86328 13.0002C3.2819 13 2 11.6569 2 10.0002C2 8.34348 3.2819 7.00041 4.86328 7.00021ZM8.13574 7.00021C9.71728 7.00021 11 8.34336 11 10.0002C11 11.6571 9.71728 13.0002 8.13574 13.0002C7.52687 13.0001 6.96398 12.7987 6.5 12.4592C7.24099 11.917 7.72754 11.019 7.72754 10.0002C7.72754 8.98126 7.24126 8.08246 6.5 7.54025C6.96389 7.20093 7.52708 7.00035 8.13574 7.00021Z" fill="#FFCF38"/>
</svg>
