<svg width="986" height="533" viewBox="0 0 986 533" fill="none" xmlns="http://www.w3.org/2000/svg">
<line x1="922.127" y1="514" x2="922.127" y2="454" stroke="url(#paint0_linear_296_172)" stroke-width="10" stroke-linecap="round"/>
<path d="M985.541 413.229V413.229C967.68 403.714 945.488 410.479 935.973 428.339L919.127 459.959V459.959C936.987 469.474 959.18 462.709 968.695 444.849L985.541 413.229Z" fill="#6B7F4F"/>
<path d="M847.127 408.123L852.881 405.789C878.471 395.412 907.628 407.745 918.006 433.335L927.618 457.04L921.865 459.373C896.274 469.75 867.117 457.418 856.74 431.828L847.127 408.123Z" fill="#6B7F4F"/>
<line x1="728.127" y1="514" x2="728.127" y2="401" stroke="url(#paint1_linear_296_172)" stroke-width="10" stroke-linecap="round"/>
<path d="M803.127 371L798.983 368.792C774.612 355.808 744.329 365.039 731.345 389.411L724.127 402.959L728.272 405.167C752.643 418.151 782.926 408.92 795.909 384.548L803.127 371Z" fill="#6B7F4F"/>
<path d="M653.127 377L665.803 371.86C691.393 361.483 720.551 373.815 730.928 399.406L733.618 406.04L720.943 411.18C695.352 421.558 666.195 409.225 655.818 383.635L653.127 377Z" fill="#6B7F4F"/>
<line x1="534.127" y1="513.718" x2="534.127" y2="349.718" stroke="url(#paint2_linear_296_172)" stroke-width="10" stroke-linecap="round"/>
<path d="M618.127 312L611.369 308.4C586.998 295.416 556.716 304.647 543.732 329.018L531.127 352.677L537.886 356.277C562.257 369.261 592.539 360.03 605.523 335.658L618.127 312Z" fill="#6B7F4F"/>
<path d="M534.331 327.825L536.515 325.481C551.027 309.904 550.165 285.513 534.589 271V271L532.405 273.344C517.892 288.921 518.754 313.312 534.331 327.825V327.825Z" fill="#6B7F4F"/>
<path d="M539.127 388.099L544.044 388.925C554.592 390.698 564.58 383.584 566.352 373.036V373.036L561.436 372.21C550.888 370.437 540.9 377.551 539.127 388.099V388.099Z" fill="#6B7F4F"/>
<path d="M530.352 392.099L525.436 392.925C514.888 394.698 504.9 387.584 503.127 377.036V377.036L508.044 376.21C518.591 374.437 528.579 381.551 530.352 392.099V392.099Z" fill="#6B7F4F"/>
<path d="M451.127 304L459.439 300.63C485.029 290.252 514.187 302.585 524.564 328.175L534.618 352.97L526.307 356.34C500.716 366.717 471.559 354.385 461.182 328.794L451.127 304Z" fill="#6B7F4F"/>
<line x1="323.127" y1="527.718" x2="323.127" y2="275.718" stroke="url(#paint3_linear_296_172)" stroke-width="10" stroke-linecap="round"/>
<path d="M410.127 251.11L403.369 247.509C378.998 234.525 348.716 243.757 335.732 268.128L323.127 291.786L329.886 295.387C354.257 308.371 384.539 299.14 397.523 274.768L410.127 251.11Z" fill="#6B7F4F"/>
<path d="M323.293 279.942L342.266 259.579C361.09 239.375 359.972 207.737 339.768 188.913L323.775 174.012L304.802 194.375C285.978 214.579 287.096 246.217 307.3 265.041L323.293 279.942Z" fill="#6B7F4F"/>
<path d="M328.127 380.424L339.563 382.346C364.098 386.469 387.33 369.923 391.453 345.388V345.388L380.018 343.466C355.483 339.343 332.251 355.889 328.127 380.424V380.424Z" fill="#6B7F4F"/>
<path d="M319.359 372.269L306.676 374.4C279.466 378.973 253.7 360.622 249.127 333.412V333.412L261.81 331.28C289.02 326.707 314.786 345.058 319.359 372.269V372.269Z" fill="#6B7F4F"/>
<path d="M240.127 264.16L248.439 260.789C274.029 250.412 303.187 262.745 313.564 288.335L323.618 313.13L315.307 316.5C289.716 326.877 260.559 314.545 250.182 288.954L240.127 264.16Z" fill="#6B7F4F"/>
<line x1="109.095" y1="527.739" x2="106.16" y2="80.0327" stroke="#493C33" stroke-width="10" stroke-linecap="round"/>
<line x1="104.372" y1="140.088" x2="5.00007" y2="37.07" stroke="#493C33" stroke-width="10" stroke-linecap="round"/>
<line x1="5" y1="-5" x2="148.135" y2="-5" transform="matrix(0.694254 -0.71973 -0.71973 -0.694254 103.127 242.216)" stroke="#493C33" stroke-width="10" stroke-linecap="round"/>
<line x1="189.327" y1="168.311" x2="252.438" y2="158.801" stroke="#493C33" stroke-width="10" stroke-linecap="round"/>
<line x1="78.7074" y1="25.5369" x2="64.2975" y2="87.713" stroke="#493C33" stroke-width="10" stroke-linecap="round"/>
<line x1="109.724" y1="389.829" x2="28.0388" y2="306.071" stroke="#493C33" stroke-width="10" stroke-linecap="round"/>
<path d="M117.167 2.21776C129.436 -1.5538 143.146 -0.631139 155.37 5.88084L162.127 9.48143L157.677 17.833C155.29 17.7554 152.713 18.0618 150.106 18.8066C141.078 21.3859 135.113 28.2123 136.782 34.0537C137.622 36.9943 140.237 39.1229 143.779 40.1846C141.242 40.0229 138.513 40.107 135.694 40.4775C123.647 42.0609 114.524 48.2267 115.315 54.25C115.506 55.7047 116.259 57.0173 117.459 58.1504C105.883 61.0326 93.2427 59.8095 81.8853 53.7588L75.1274 50.1582L87.7319 26.5C89.3261 23.5077 91.1807 20.7434 93.2534 18.2207C96.7019 20.0393 101.083 21.4241 105.94 22.0625C117.987 23.6458 128.394 20.0467 129.186 14.0234C129.78 9.50262 124.788 4.90155 117.167 2.21776Z" fill="#F2A72D"/>
<path d="M34.1274 420.134L56.6598 423.921C83.8922 428.497 109.679 410.131 114.255 382.899L115.57 375.074L93.038 371.287C65.8057 366.71 40.0193 385.076 35.4426 412.309L34.1274 420.134Z" fill="#DF7C24"/>
<path d="M176.359 519.269L163.676 521.4C136.466 525.973 110.7 507.622 106.127 480.412V480.412L118.81 478.28C146.02 473.707 171.786 492.058 176.359 519.269V519.269Z" fill="#D15C1D"/>
<path d="M46.813 257.514C51.4338 256.913 56.0545 256.977 60.5532 257.648C60.116 260.777 60.1253 264.195 60.6616 267.721C62.6135 280.552 70.8018 289.949 78.9507 288.709C84.8164 287.817 89.0623 281.657 90.2534 273.49C94.104 277.729 97.2864 282.707 99.564 288.324L109.619 313.118L101.306 316.489C94.759 319.144 87.9783 320.308 81.3384 320.148C81.448 315.117 74.2323 307.917 63.7915 303.07C55.1484 299.057 46.699 297.772 41.9058 299.338C40.7151 297.679 39.6161 295.932 38.6206 294.102C38.7337 294.155 38.8457 294.211 38.9595 294.264C50.7315 299.729 61.9544 300.542 64.0259 296.079C66.0969 291.617 58.2332 283.57 46.4614 278.105C40.4051 275.293 34.494 273.716 29.8999 273.452L27.0229 266.354C27.1796 266.43 27.3358 266.508 27.4946 266.581C36.5339 270.778 45.7302 270.154 48.0356 265.188C49.0725 262.955 48.5364 260.225 46.813 257.514Z" fill="url(#paint4_linear_296_172)"/>
<path d="M173.512 99.9014C173.92 100.281 174.32 100.667 174.712 101.058C174.406 101.146 174.112 101.27 173.833 101.431C170.541 103.325 170.595 109.594 173.954 115.433C177.314 121.271 182.706 124.469 185.999 122.574C186.448 122.316 186.832 121.973 187.156 121.564C189.358 128.632 189.961 136.104 188.946 143.407C184.32 141.936 178.373 144.915 174.945 150.712C171.12 157.18 171.88 164.707 176.643 167.523C177.107 167.798 177.592 168.018 178.094 168.185C177.428 168.995 176.734 169.79 176.01 170.567L157.036 190.931L141.044 176.029C124.613 160.72 120.804 136.934 130.081 117.718C135.62 123.189 142.822 125.171 148.065 122.07C154.78 118.099 155.739 107.295 150.206 97.9395C149.589 96.896 148.916 95.9156 148.2 95.001L157.519 85L173.512 99.9014ZM140.864 136.741C138.336 132.466 134.627 129.982 132.579 131.192C130.531 132.403 130.921 136.851 133.449 141.127C135.978 145.402 139.688 147.887 141.735 146.676C143.783 145.465 143.393 141.017 140.864 136.741Z" fill="#D15C1D"/>
<defs>
<linearGradient id="paint0_linear_296_172" x1="927.627" y1="449" x2="927.627" y2="519" gradientUnits="userSpaceOnUse">
<stop stop-color="#6B7F4F"/>
<stop offset="1" stop-color="#493C33"/>
</linearGradient>
<linearGradient id="paint1_linear_296_172" x1="733.627" y1="396" x2="733.627" y2="519" gradientUnits="userSpaceOnUse">
<stop stop-color="#6B7F4F"/>
<stop offset="1" stop-color="#493C33"/>
</linearGradient>
<linearGradient id="paint2_linear_296_172" x1="539.627" y1="344.718" x2="539.627" y2="518.718" gradientUnits="userSpaceOnUse">
<stop stop-color="#6B7F4F"/>
<stop offset="1" stop-color="#493C33"/>
</linearGradient>
<linearGradient id="paint3_linear_296_172" x1="328.627" y1="270.718" x2="328.627" y2="532.718" gradientUnits="userSpaceOnUse">
<stop stop-color="#6B7F4F"/>
<stop offset="1" stop-color="#493C33"/>
</linearGradient>
<linearGradient id="paint4_linear_296_172" x1="53.4509" y1="253.067" x2="82.2947" y2="324.196" gradientUnits="userSpaceOnUse">
<stop stop-color="#D15C1D"/>
<stop offset="1" stop-color="#F2A72D"/>
</linearGradient>
</defs>
</svg>
