<svg width="82" height="121" viewBox="0 0 82 121" fill="none" xmlns="http://www.w3.org/2000/svg">
<path d="M51.0895 21C71.1278 21 85.5336 40.2688 79.8639 59.4883L67.9068 100.019C64.2367 112.46 52.8144 121 39.8434 121C26.5193 121 14.8778 111.998 11.525 99.1025L0.981053 58.5488C-3.95931 39.5472 10.3819 21.0001 30.0152 21H51.0895ZM36.0152 27C16.3819 27.0001 2.0407 45.5472 6.98105 64.5488L15.2906 96.5117C18.2746 107.989 28.6364 116 40.4947 116C52.0388 116 62.2048 108.399 65.4713 97.3271L74.8639 65.4883C80.5336 46.2688 66.1278 27 46.0895 27H36.0152ZM19.6686 55.5791C21.0351 55.3817 22.3032 56.3298 22.5006 57.6963L27.9352 95.3174C28.1324 96.6838 27.1844 97.9511 25.818 98.1484C24.4515 98.3458 23.1834 97.3986 22.9859 96.0322L17.5523 58.4111C17.355 57.0448 18.3023 55.7767 19.6686 55.5791ZM40.2184 55.0059C41.5988 55.0061 42.7183 56.1253 42.7184 57.5059V95.5176C42.7181 96.8979 41.5987 98.0173 40.2184 98.0176C38.8378 98.0176 37.7186 96.8981 37.7184 95.5176V57.5059C37.7184 56.1252 38.8377 55.0059 40.2184 55.0059ZM61.6754 54.8604C63.0471 55.0171 64.0323 56.2562 63.8756 57.6279L59.5602 95.3936C59.4034 96.7653 58.1644 97.7505 56.7926 97.5938C55.4209 97.437 54.4357 96.1979 54.5924 94.8262L58.9078 57.0605C59.0646 55.6889 60.3037 54.7037 61.6754 54.8604ZM41.2184 0C45.6364 0.000235015 49.2184 3.58187 49.2184 8C49.2184 12.4181 45.6364 15.9998 41.2184 16C36.8001 16 33.2184 12.4183 33.2184 8C33.2184 3.58174 36.8001 2.55771e-05 41.2184 0Z" fill="url(#paint0_linear_273_166)"/>
<line x1="9.21777" y1="50" x2="72.2178" y2="50" stroke="#6B7F4F" stroke-width="2" stroke-linecap="round"/>
<defs>
<linearGradient id="paint0_linear_273_166" x1="40.5544" y1="0" x2="40.5544" y2="121" gradientUnits="userSpaceOnUse">
<stop stop-color="#F2A72D"/>
<stop offset="1" stop-color="#D15C1D"/>
</linearGradient>
</defs>
</svg>
