<svg width="120" height="136" viewBox="0 0 120 136" fill="none" xmlns="http://www.w3.org/2000/svg">
<path d="M11.486 114.369C11.1249 114.925 11.003 115.598 11.1536 116.244C11.3038 116.89 11.7141 117.456 12.288 117.813C12.8618 118.17 13.5505 118.288 14.196 118.137C14.842 117.987 15.392 117.58 15.7314 117.011C15.7314 117.011 15.7314 117.011 15.7314 117.011C16.8223 115.183 17.9636 113.295 19.0979 111.426C35.3368 85.1119 51.4601 58.3767 70.9458 34.3979C76.3613 28.1362 81.7634 21.9327 87.7678 16.2834C89.3983 14.8716 90.9287 13.1735 93 12.4999C90.8908 13.0984 89.2912 14.7431 87.6018 16.0966C81.3647 21.5314 75.7163 27.5372 70.0542 33.6021C49.5039 57.0074 32.381 83.1202 15.0852 108.884C13.8748 110.718 12.6641 112.559 11.486 114.369Z" fill="#493C33"/>
<path d="M11.8887 123.577C7.31656 125.234 4.65421 130.238 0 135.416C1.72466 131.33 2.77691 129.286 4.22168 125.727C4.55689 125.901 4.93764 126.002 5.3418 126.002C6.68225 126.002 7.76842 124.915 7.76855 123.574C7.76855 122.443 6.99496 121.495 5.94824 121.226C6.10058 120.809 6.25956 120.373 6.42285 119.917L11.8887 123.577ZM14.2861 121.009L12.3652 123.846L6.44434 119.837L8.36523 117L14.2861 121.009ZM15.5547 119.168L15 120L9 116L9.55469 115.168L15.5547 119.168Z" fill="#6B7F4F"/>
<path d="M55.0224 19.0272C43.7609 29.0795 35.8026 63.4109 34.4994 79.5C34.4994 79.5 31.9681 39.5787 40.9188 31.3782C49.8694 23.1778 55.0224 19.0272 55.0224 19.0272Z" fill="url(#paint0_linear_279_184)"/>
<path d="M40.0224 29.0182C32.1952 39.4687 30.6953 69.4202 31.9995 83C31.9995 83 23.9948 50.3896 30.1846 41.9087C36.3744 33.4279 40.0224 29.0182 40.0224 29.0182Z" fill="url(#paint1_linear_279_184)"/>
<path d="M29.0202 39.0106C24.1872 49.1101 27.0281 74.0643 29.8984 85C29.8984 85 19.12 59.6682 22.9128 51.5031C26.7056 43.338 29.0202 39.0106 29.0202 39.0106Z" fill="url(#paint2_linear_279_184)"/>
<path d="M11.011 80.0167C16.002 77.1055 26.2353 82.2223 29.7618 86.3196C29.8605 85.2824 18.74 76.7068 15.5619 78.0714C12.3837 79.4361 11.011 80.0167 11.011 80.0167Z" fill="url(#paint3_linear_279_184)"/>
<path d="M63.9267 103.528C64.0264 98.1222 38.9634 98.6674 25.0066 101.303C27.2413 100.169 61.3498 96.4138 62.4011 99.3428C63.4524 102.272 63.9267 103.528 63.9267 103.528Z" fill="url(#paint4_linear_279_184)"/>
<path d="M13.0146 86.3052C16.4083 82.6532 25.9586 84.0692 29.7955 86.4317C29.6335 85.5727 18.5501 81.6122 16.2748 83.5449C13.9994 85.4775 13.0146 86.3052 13.0146 86.3052Z" fill="url(#paint5_linear_279_184)"/>
<path d="M66.9997 15.0007C54.196 23.5692 42.0651 58.105 38.3112 73.9141C38.3112 73.9141 44.1064 30.5699 54.3149 23.5503C64.5234 16.5308 66.9997 15.0007 66.9997 15.0007Z" fill="url(#paint6_linear_279_184)"/>
<path d="M80.9997 9.00086C66.4364 16.0785 49.0341 50.7483 42.9501 66.8987C42.9501 66.8987 54.9264 21.919 66.5634 16.0771C78.2004 10.2351 80.9997 9.00086 80.9997 9.00086Z" fill="url(#paint7_linear_279_184)"/>
<path d="M95.9998 4.00095C80.1713 9.11639 57.6553 42.4502 49.23 58.2886C49.23 58.2886 67.6274 13.4155 80.301 9.13434C92.9747 4.85318 95.9998 4.00095 95.9998 4.00095Z" fill="url(#paint8_linear_279_184)"/>
<path d="M115 0.00107251C97.472 2.49792 67.8729 33.9823 56.1945 49.3708C56.1945 49.3708 83.5373 4.73947 97.605 2.54164C111.673 0.343814 115 0.00107251 115 0.00107251Z" fill="url(#paint9_linear_279_184)"/>
<path d="M80.0005 74.9999C76.6983 84.1226 37.0454 96.0385 27.0007 100.432C27.0007 100.432 74.2394 89.7976 77.0005 82.4998C79.7616 75.2019 80.0005 74.9999 80.0005 74.9999Z" fill="url(#paint10_linear_279_184)"/>
<path d="M81.1318 66.6683C78.4204 75.9837 39.6117 90.4136 29.8688 95.4414C29.8688 95.4414 76.3298 81.8045 78.6181 74.3449C80.9064 66.8852 81.1318 66.6683 81.1318 66.6683Z" fill="url(#paint11_linear_279_184)"/>
<path d="M85.0005 58.9998C82.289 68.3151 40.7434 86.472 31.0005 91.4998C31.0005 91.4998 80.7122 72.9594 83.0005 65.4998C85.2888 58.0401 85.0005 58.9998 85.0005 58.9998Z" fill="url(#paint12_linear_279_184)"/>
<path d="M91.5005 46.4998C88.789 55.8152 44.7434 80.472 35.0005 85.4998C35.0005 85.4998 84.7122 64.1762 87.0005 56.7165C89.2888 49.2569 91.5005 46.4998 91.5005 46.4998Z" fill="url(#paint13_linear_279_184)"/>
<path d="M94.5005 37.3707C91.789 46.686 48.7434 72.972 39.0005 77.9998C39.0005 77.9998 87.7122 55.047 90.0005 47.5874C92.2888 40.1277 94.5005 37.3707 94.5005 37.3707Z" fill="url(#paint14_linear_279_184)"/>
<path d="M94.7022 13.6566C92.9703 26.9524 66.8361 49.4532 54 58.3363C54 58.3363 91.375 37.523 92.9301 26.8517C94.4851 16.1804 94.7022 13.6566 94.7022 13.6566Z" fill="url(#paint15_linear_279_184)"/>
<path d="M93.5002 30.4142C89.7224 43.2792 60.0611 60.6766 46.0001 67.4563C46.0001 67.4563 87.305 49.2141 90.5 38.9142C93.695 28.6144 93.5002 30.4142 93.5002 30.4142Z" fill="url(#paint16_linear_279_184)"/>
<defs>
<linearGradient id="paint0_linear_279_184" x1="65.624" y1="31.4836" x2="23.8747" y2="67.0163" gradientUnits="userSpaceOnUse">
<stop stop-color="#F2A72D"/>
<stop offset="1" stop-color="#D15C1D"/>
</linearGradient>
<linearGradient id="paint1_linear_279_184" x1="50.6364" y1="37.347" x2="21.3623" y2="74.653" gradientUnits="userSpaceOnUse">
<stop stop-color="#F2A72D"/>
<stop offset="1" stop-color="#D15C1D"/>
</linearGradient>
<linearGradient id="paint2_linear_279_184" x1="38.6065" y1="43.8465" x2="20.2912" y2="80.1535" gradientUnits="userSpaceOnUse">
<stop stop-color="#F2A72D"/>
<stop offset="1" stop-color="#D15C1D"/>
</linearGradient>
<linearGradient id="paint3_linear_279_184" x1="13.7918" y1="86.1451" x2="26.9959" y2="80.1538" gradientUnits="userSpaceOnUse">
<stop stop-color="#F2A72D"/>
<stop offset="1" stop-color="#D15C1D"/>
</linearGradient>
<linearGradient id="paint4_linear_279_184" x1="46.3169" y1="108.646" x2="42.682" y2="96.1393" gradientUnits="userSpaceOnUse">
<stop stop-color="#F2A72D"/>
<stop offset="1" stop-color="#D15C1D"/>
</linearGradient>
<linearGradient id="paint5_linear_279_184" x1="16.7176" y1="90.4954" x2="26.0958" y2="82.2076" gradientUnits="userSpaceOnUse">
<stop stop-color="#F2A72D"/>
<stop offset="1" stop-color="#D15C1D"/>
</linearGradient>
<linearGradient id="paint6_linear_279_184" x1="76.2071" y1="29.4665" x2="29.1034" y2="59.4477" gradientUnits="userSpaceOnUse">
<stop stop-color="#F2A72D"/>
<stop offset="1" stop-color="#D15C1D"/>
</linearGradient>
<linearGradient id="paint7_linear_279_184" x1="88.6579" y1="25.7461" x2="35.2915" y2="50.1526" gradientUnits="userSpaceOnUse">
<stop stop-color="#F2A72D"/>
<stop offset="1" stop-color="#D15C1D"/>
</linearGradient>
<linearGradient id="paint8_linear_279_184" x1="101.511" y1="22.5657" x2="43.7183" y2="39.7229" gradientUnits="userSpaceOnUse">
<stop stop-color="#F2A72D"/>
<stop offset="1" stop-color="#D15C1D"/>
</linearGradient>
<linearGradient id="paint9_linear_279_184" x1="117.46" y1="20.942" x2="53.7341" y2="28.4288" gradientUnits="userSpaceOnUse">
<stop stop-color="#F2A72D"/>
<stop offset="1" stop-color="#D15C1D"/>
</linearGradient>
<linearGradient id="paint10_linear_279_184" x1="73.5528" y1="94.3855" x2="33.4484" y2="81.0467" gradientUnits="userSpaceOnUse">
<stop stop-color="#F2A72D"/>
<stop offset="1" stop-color="#D15C1D"/>
</linearGradient>
<linearGradient id="paint11_linear_279_184" x1="75.9383" y1="86.427" x2="35.0623" y2="75.6827" gradientUnits="userSpaceOnUse">
<stop stop-color="#F2A72D"/>
<stop offset="1" stop-color="#D15C1D"/>
</linearGradient>
<linearGradient id="paint12_linear_279_184" x1="79.2668" y1="80.818" x2="36.7459" y2="69.6414" gradientUnits="userSpaceOnUse">
<stop stop-color="#F2A72D"/>
<stop offset="1" stop-color="#D15C1D"/>
</linearGradient>
<linearGradient id="paint13_linear_279_184" x1="84.8805" y1="71.6853" x2="41.6205" y2="60.3144" gradientUnits="userSpaceOnUse">
<stop stop-color="#F2A72D"/>
<stop offset="1" stop-color="#D15C1D"/>
</linearGradient>
<linearGradient id="paint14_linear_279_184" x1="87.7126" y1="63.1951" x2="45.7884" y2="52.1754" gradientUnits="userSpaceOnUse">
<stop stop-color="#F2A72D"/>
<stop offset="1" stop-color="#D15C1D"/>
</linearGradient>
<linearGradient id="paint15_linear_279_184" x1="92.2318" y1="37.8248" x2="56.4713" y2="34.1682" gradientUnits="userSpaceOnUse">
<stop stop-color="#F2A72D"/>
<stop offset="1" stop-color="#D15C1D"/>
</linearGradient>
<linearGradient id="paint16_linear_279_184" x1="87.3995" y1="53.5347" x2="52.1292" y2="44.2282" gradientUnits="userSpaceOnUse">
<stop stop-color="#F2A72D"/>
<stop offset="1" stop-color="#D15C1D"/>
</linearGradient>
</defs>
</svg>
