<svg width="201" height="190" viewBox="0 0 201 190" fill="none" xmlns="http://www.w3.org/2000/svg">
<path d="M22.7165 174.361L49.4664 154.459L55.1811 166.765L22.7165 174.361Z" fill="#6B7F4F"/>
<path d="M141.318 46.2872L37.2698 66.0007L139.518 103.323L141.318 46.2872Z" fill="#6B7F4F"/>
<path d="M186.071 91.4491L176.444 126.344L167.419 77.0097L186.071 91.4491Z" fill="#F2A72D"/>
<path d="M52.5384 167.311L142.753 95.059L176.445 126.344L52.5384 167.311Z" fill="#F2A72D"/>
<path d="M0.766113 152.215L77.7759 130.556L78.9792 146.198L0.766113 152.215Z" fill="#6B7F4F"/>
<path d="M139.162 97.7495L167.42 77.0098L176.266 126.344L139.162 97.7495Z" fill="#6B7F4F"/>
<path d="M53.4963 167.196L176.192 126.344L159.599 154.621L53.4963 167.196Z" fill="#D15C1D"/>
<path d="M0.557003 151.916L78.9793 146.198L53.7104 167.256L0.557003 151.916Z" fill="#D15C1D"/>
<path d="M167.559 76.7913L190.861 81.0336L186.452 91.0758L167.559 76.7913Z" fill="#D15C1D"/>
<path d="M195.697 95.6606L191.105 81.823L186.673 91.5155L195.697 95.6606Z" fill="#6B7F4F"/>
<path d="M139.745 98.0672L71.7597 57.7573L78.9794 146.198L139.745 98.0672Z" fill="#D15C1D"/>
<path d="M117.854 41.6979L12.8266 38.2087L140.346 98.6688L117.854 41.6979Z" fill="#F2A72D"/>
</svg>
