<svg width="201" height="190" viewBox="0 0 201 190" fill="none" xmlns="http://www.w3.org/2000/svg">
<path d="M22.7162 174.361L49.4662 154.459L55.1809 166.765L22.7162 174.361Z" fill="#145032"/>
<path d="M141.316 46.2874L37.2672 66.0009L139.515 103.323L141.316 46.2874Z" fill="#145032"/>
<path d="M186.071 91.449L176.444 126.344L167.419 77.0096L186.071 91.449Z" fill="#E1B866"/>
<path d="M52.5358 167.311L142.75 95.0591L176.442 126.344L52.5358 167.311Z" fill="#E1B866"/>
<path d="M0.765625 152.215L77.7755 130.556L78.9787 146.198L0.765625 152.215Z" fill="#145032"/>
<path d="M139.16 97.7496L167.418 77.0099L176.264 126.344L139.16 97.7496Z" fill="#145032"/>
<path d="M53.5 167.196L176.196 126.344L159.603 154.621L53.5 167.196Z" fill="#A52A2A"/>
<path d="M0.557003 151.916L78.9793 146.198L53.7104 167.256L0.557003 151.916Z" fill="#A52A2A"/>
<path d="M167.561 76.7915L190.863 81.0337L186.454 91.076L167.561 76.7915Z" fill="#A52A2A"/>
<path d="M195.695 95.6606L191.103 81.823L186.671 91.5155L195.695 95.6606Z" fill="#145032"/>
<path d="M139.747 98.0673L71.7622 57.7574L78.9818 146.198L139.747 98.0673Z" fill="#A52A2A"/>
<path d="M117.85 41.698L12.8227 38.2088L140.343 98.669L117.85 41.698Z" fill="#E1B866"/>
</svg>
