<svg width="225" height="227" viewBox="0 0 225 227" fill="none" xmlns="http://www.w3.org/2000/svg">
<path d="M43.317 0.92903C43.317 0.92903 57.7559 -5.07276 87.0851 13.4333C116.414 31.9393 104.683 219 104.683 219L52.3413 216.499C34.7981 184.176 18.8002 167.937 21.6585 131.222C33.8782 73.0272 21.785 62.3117 0 43.4431C11.9019 16.3364 26.8549 7.78098 43.317 0.92903Z" fill="url(#paint0_linear_296_273)"/>
<path d="M180.789 153L185.111 158.038C190.413 164.22 189.7 173.529 183.519 178.832V178.832C180.428 181.483 175.773 181.127 173.122 178.036L170.961 175.517C167.117 171.035 167.633 164.285 172.115 160.44L180.789 153Z" fill="#493C33"/>
<path d="M134.839 52.21C148.743 55.7541 157.877 68.4787 157.417 82.2529C171.891 84.3889 183 96.861 183 111.929V136.929H156C151.493 136.929 147.219 135.933 143.384 134.152C144.352 137.213 144.803 140.333 144.777 143.41C153.313 148.699 159 158.149 159 168.929V171.946L181.019 171.99C183.781 171.996 186.015 174.239 186.01 177C186.004 179.761 183.761 181.996 181 181.99L155 181.938C154.901 181.938 154.802 181.935 154.704 181.929H143C134.581 181.929 126.974 178.459 121.525 172.874L116.762 174.879C118.21 178.959 119 183.352 119 187.929C119 199.443 114.009 209.79 106.074 216.929H141C143.761 216.929 146 219.167 146 221.929C146 224.69 143.761 226.929 141 226.929H73.9999C72.8368 226.929 71.7673 226.53 70.9179 225.864C59.7592 223.202 50.4612 215.746 45.3232 205.792L44.9999 205.929L30.0194 170.322C23.5943 155.05 30.7661 137.461 46.038 131.036L73.6269 119.428C75.4597 118.096 77.4738 116.953 79.6523 116.036L126 96.5361V81.9287H126.422C122.704 75.4119 121.411 67.5025 123.41 59.6582L125.89 49.9287L134.839 52.21Z" fill="url(#paint1_linear_296_273)"/>
<path d="M209.286 222.845L196.859 210.107L206.05 201.139C208.027 199.211 211.192 199.25 213.121 201.227L222.057 210.386L209.286 222.845Z" fill="#F1EBCC"/>
<path d="M195 209.728C195 201.688 201.518 195.17 209.558 195.17C217.598 195.17 224.115 201.688 224.115 209.728H195Z" fill="#493C33"/>
<path d="M209.884 199.766L210.925 198.887L211.57 199.65L210.69 200.394L211.721 201.195L211.106 201.984L209.91 201.054L208.358 202.365L209.243 203.054L208.629 203.843L207.578 203.025L206.177 204.211L205.53 203.447L206.771 202.397L205.319 201.269L203.768 202.58L206.765 204.912L206.15 205.701L205.062 204.854L205.376 205.226L203.902 206.471L204.287 206.771L203.673 207.56L203.121 207.131L201.569 208.442L201.809 208.629L201.195 209.418L200.789 209.103L199.981 209.786L199.336 209.022L199.982 208.475L198.472 207.3L196.265 209.166L195.619 208.402L197.665 206.672L195.619 205.081L196.233 204.292L198.445 206.013L199.998 204.7L198.098 203.223L198.711 202.434L200.778 204.041L201.014 203.843L201.659 204.606L201.585 204.669L203.096 205.844L204.647 204.531L202.987 203.24L201.84 204.211L201.194 203.447L202.181 202.612L200.575 201.364L201.189 200.575L202.961 201.953L204.513 200.642L203.053 199.506L203.667 198.717L205.293 199.981L206.589 198.887L207.234 199.65L206.1 200.608L207.552 201.737L209.104 200.426L205.531 197.647L206.146 196.858L209.884 199.766ZM221.713 204.768L222.075 204.462L222.722 205.226L222.52 205.396L223.49 206.15L222.877 206.94L221.739 206.056L220.484 207.116L221.632 208.009L221.019 208.799L219.704 207.776L217.327 209.786L216.682 209.022L218.896 207.148L217.768 206.271L215.792 207.94L216.677 208.629L216.062 209.418L215.012 208.601L213.61 209.786L212.965 209.022L214.205 207.973L212.635 206.752L210.513 208.547L209.867 207.783L211.828 206.124L210.487 205.081L211.101 204.292L212.608 205.465L215.262 203.223L215.857 203.928L216.057 203.673L217.741 204.982L218.358 204.462L219.004 205.226L218.548 205.61L219.678 206.488L220.932 205.428L217.301 202.604L217.915 201.814L221.713 204.768ZM199.252 206.64L200.763 207.815L202.315 206.503L200.805 205.328L199.252 206.64ZM213.415 206.092L214.985 207.313L216.961 205.643L215.442 204.462L215.63 204.22L213.415 206.092ZM210.038 196.101L211.106 195.17L211.764 195.924L210.843 196.727L214.198 199.337L213.585 200.126L210.074 197.396L208.666 198.625L208.009 197.872L209.271 196.771L208.009 195.789L208.623 195L210.038 196.101Z" fill="url(#paint2_linear_296_273)"/>
<defs>
<linearGradient id="paint0_linear_296_273" x1="53.5" y1="0" x2="53.5" y2="219" gradientUnits="userSpaceOnUse">
<stop stop-color="#F2A72D"/>
<stop offset="1" stop-color="#D15C1D"/>
</linearGradient>
<linearGradient id="paint1_linear_296_273" x1="154.5" y1="81.9289" x2="154.5" y2="136.929" gradientUnits="userSpaceOnUse">
<stop stop-color="#F2A72D"/>
<stop offset="1" stop-color="#D15C1D"/>
</linearGradient>
<linearGradient id="paint2_linear_296_273" x1="209.555" y1="195" x2="209.555" y2="209.786" gradientUnits="userSpaceOnUse">
<stop stop-color="#D15C1D"/>
<stop offset="1" stop-color="#F1A52D"/>
</linearGradient>
</defs>
</svg>
