<svg width="129" height="100" viewBox="0 0 129 100" fill="none" xmlns="http://www.w3.org/2000/svg">
<path d="M29 27C29 12.0883 41.0883 0 56 0H115.5C122.956 0 129 6.04416 129 13.5V13.5C129 20.9558 122.956 27 115.5 27H29V27Z" fill="#D15C1D"/>
<path d="M15 30C15 13.4315 28.4315 0 45 0H115V70C115 86.5685 101.569 100 85 100H15V30Z" fill="#F2A72D"/>
<path d="M0 86.5C0 79.0442 6.04416 73 13.5 73H115V73C115 87.9117 102.912 100 88 100H13.5C6.04415 100 0 93.9558 0 86.5V86.5Z" fill="#D15C1D"/>
<path d="M91 73H115V76C115 89.2548 104.255 100 91 100V100V73Z" fill="#F2A72D"/>
<circle cx="90.5" cy="86.5" r="13.5" fill="#F2A72D"/>
<path d="M84.9473 57.7969C84.8746 60.0213 84.6766 61.3387 83.8818 63.9004L65.7109 67.8535C65.5085 65.5487 65.5634 64.2922 65.8105 62.082L84.9473 57.7969ZM60.168 40.3477L65.4141 39.1729V22.3926C67.7402 19.8434 68.9819 18.9246 71.1367 17.8613V37.8916L85.5059 34.6738C84.7454 37.0523 83.9535 38.5017 81.5098 41.4326L71.1367 43.7256V49.3975L84.7666 46.4746C84.6857 48.6958 84.4857 50.0093 83.6963 52.5576L71.1367 55.25V55.2979L65.4141 56.4893V44.9912L60.168 46.1514V53.1533L60.1777 53.1514C60.1746 53.1566 60.1711 53.1617 60.168 53.167V53.3604L60.0361 53.3877C57.9243 56.9447 56.6934 59.0393 54.9219 60.3047L38 63.7598C38.1917 61.515 38.487 60.1813 39.542 57.5762L54.4453 54.3799V47.417L40.377 50.5283C40.5524 48.139 41.014 46.7921 42.1553 44.3818L54.4453 41.6289V19.6426C56.7714 17.0305 58.0132 16.0896 60.168 15V40.3477Z" fill="#6B7F4F"/>
</svg>
