<svg width="24" height="24" viewBox="0 0 24 24" fill="none" xmlns="http://www.w3.org/2000/svg">
<rect width="24" height="24" fill="white"/>
<path d="M12 5.36529C14.3798 2.85368 17.9679 2.85051 20.2509 5.14789C22.583 7.4946 22.583 11.2969 20.2509 13.6436L12.6755 21.2666C12.4968 21.4465 12.2536 21.5477 12 21.5477C11.7464 21.5477 11.5032 21.4465 11.3245 21.2666L3.74906 13.6436C1.41698 11.2969 1.41698 7.4946 3.74906 5.14789C6.0321 2.85051 9.62025 2.85368 12 5.36529ZM18.8999 6.49054C17.3417 4.92254 14.8643 4.91525 13.1934 6.88659L13.1691 6.91537L12 8.09177L10.8309 6.91537L10.8066 6.88659C9.13568 4.91525 6.65834 4.92254 5.10013 6.49054C3.5063 8.09437 3.5063 10.6972 5.10013 12.301L12 19.2442L18.8999 12.301C20.4937 10.6972 20.4937 8.09437 18.8999 6.49054Z" fill="#C7E863"/>
</svg>
