<svg width="65" height="76" viewBox="0 0 65 76" fill="none" xmlns="http://www.w3.org/2000/svg">
<path d="M32.5 3.5C34.3783 3.5 36.1171 4.51374 37.4033 6.22852C38.6896 7.9436 39.5 10.3363 39.5 13C39.5 15.6637 38.6896 18.0564 37.4033 19.7715C36.1171 21.4863 34.3783 22.5 32.5 22.5C30.6217 22.5 28.8829 21.4863 27.5967 19.7715C26.3104 18.0564 25.5 15.6637 25.5 13C25.5 10.3363 26.3104 7.9436 27.5967 6.22852C28.8829 4.51374 30.6217 3.5 32.5 3.5Z" stroke="#C7E863"/>
<mask id="path-2-inside-1_131_118" fill="white">
<path d="M33.0228 23C37.7231 23 41.841 24.727 44.1244 27.3145C46.4656 29.6618 48.0004 33.5716 48.0004 38C48.0004 45.1795 43.9708 50.9997 39.0004 51C37.8836 51 36.8152 50.704 35.8285 50.167C36.8781 52.9425 38.036 55.9459 39.017 58.7617C40.9149 57.9282 43.0332 57.2342 45.3021 56.7432C54.8551 54.6759 63.4515 56.9382 64.5033 61.7959C65.5547 66.654 58.6623 72.2684 49.1088 74.3359C43.3297 75.5866 37.9021 75.2501 34.2816 73.7158C30.372 75.0695 24.8025 75.4483 18.7933 74.5078C7.92599 72.8069 -0.261108 67.4468 0.507202 62.5361C1.2758 57.6254 10.7091 55.0228 21.5765 56.7236C22.7683 56.9102 23.9273 57.144 25.0463 57.4131C19.9879 50.6404 17.0228 44.0454 17.0228 39C17.0228 34.1102 18.8932 29.8523 21.6556 27.6328C23.875 24.8703 28.133 23.0001 33.0228 23Z"/>
</mask>
<path d="M33.0228 23V22H33.0228L33.0228 23ZM44.1244 27.3145L43.3746 27.9761L43.3948 27.999L43.4164 28.0206L44.1244 27.3145ZM39.0004 51V52H39.0004L39.0004 51ZM35.8285 50.167L36.3065 49.2886L33.9402 48.0008L34.8931 50.5207L35.8285 50.167ZM39.017 58.7617L38.0726 59.0907L38.4285 60.1123L39.4191 59.6773L39.017 58.7617ZM45.3021 56.7432L45.0906 55.7658H45.0906L45.3021 56.7432ZM64.5033 61.7959L65.4807 61.5844L65.4806 61.5843L64.5033 61.7959ZM49.1088 74.3359L49.3203 75.3133H49.3203L49.1088 74.3359ZM34.2816 73.7158L34.6718 72.7951L34.3178 72.6451L33.9544 72.7709L34.2816 73.7158ZM18.7933 74.5078L18.6387 75.4958L18.7933 74.5078ZM0.507202 62.5361L-0.48077 62.3815L-0.480779 62.3816L0.507202 62.5361ZM21.5765 56.7236L21.7312 55.7357H21.7312L21.5765 56.7236ZM25.0463 57.4131L24.8124 58.3854L27.504 59.0327L25.8475 56.8147L25.0463 57.4131ZM21.6556 27.6328L22.282 28.4124L22.3669 28.3441L22.4352 28.2591L21.6556 27.6328ZM33.0228 23V24C37.5069 24 41.3232 25.6517 43.3746 27.9761L44.1244 27.3145L44.8742 26.6528C42.3587 23.8024 37.9394 22 33.0228 22V23ZM44.1244 27.3145L43.4164 28.0206C45.5346 30.1444 47.0004 33.7805 47.0004 38H48.0004H49.0004C49.0004 33.3626 47.3967 29.1792 44.8324 26.6083L44.1244 27.3145ZM48.0004 38H47.0004C47.0004 41.4121 46.0412 44.4577 44.5421 46.623C43.0403 48.7922 41.0646 49.9999 39.0003 50L39.0004 51L39.0004 52C41.9065 51.9998 44.4309 50.2972 46.1865 47.7614C47.9448 45.2217 49.0004 41.7674 49.0004 38H48.0004ZM39.0004 51V50C38.0654 50 37.1602 49.7532 36.3065 49.2886L35.8285 50.167L35.3505 51.0453C36.4703 51.6548 37.7018 52 39.0004 52V51ZM35.8285 50.167L34.8931 50.5207C35.9463 53.3055 37.0973 56.2911 38.0726 59.0907L39.017 58.7617L39.9613 58.4327C38.9747 55.6008 37.8099 52.5794 36.7638 49.8133L35.8285 50.167ZM39.017 58.7617L39.4191 59.6773C41.2542 58.8714 43.3085 58.1978 45.5136 57.7205L45.3021 56.7432L45.0906 55.7658C42.7579 56.2706 40.5756 56.985 38.6149 57.8461L39.017 58.7617ZM45.3021 56.7432L45.5136 57.7205C50.169 56.7131 54.5433 56.7732 57.8362 57.6398C61.1888 58.522 63.1215 60.1396 63.5259 62.0075L64.5033 61.7959L65.4806 61.5843C64.8333 58.5946 61.9419 56.6521 58.3451 55.7056C54.6886 54.7434 49.9883 54.7059 45.0906 55.7658L45.3021 56.7432ZM64.5033 61.7959L63.5259 62.0074C63.9302 63.8755 62.8394 66.1474 60.1513 68.337C57.5112 70.4876 53.5529 72.351 48.8972 73.3586L49.1088 74.3359L49.3203 75.3133C54.2182 74.2533 58.4828 72.2757 61.4144 69.8877C64.2981 67.5387 66.1278 64.5744 65.4807 61.5844L64.5033 61.7959ZM49.1088 74.3359L48.8972 73.3586C43.2513 74.5804 38.0467 74.2253 34.6718 72.7951L34.2816 73.7158L33.8914 74.6366C37.7575 76.2749 43.408 76.5928 49.3203 75.3133L49.1088 74.3359ZM34.2816 73.7158L33.9544 72.7709C30.24 74.0569 24.844 74.4426 18.948 73.5198L18.7933 74.5078L18.6387 75.4958C24.7611 76.454 30.504 76.082 34.6088 74.6608L34.2816 73.7158ZM18.7933 74.5078L18.948 73.5198C13.6214 72.6862 8.99979 70.9612 5.83464 68.889C2.58468 66.7613 1.2094 64.5173 1.49518 62.6907L0.507202 62.5361L-0.480779 62.3816C-0.963303 65.4657 1.37081 68.3571 4.73915 70.5623C8.19231 72.8231 13.0979 74.6286 18.6387 75.4958L18.7933 74.5078ZM0.507202 62.5361L1.49517 62.6908C1.78107 60.8641 3.77613 59.1476 7.52076 58.1145C11.1677 57.1084 16.0953 56.878 21.4219 57.7116L21.5765 56.7236L21.7312 55.7357C16.1903 54.8685 10.9676 55.0889 6.98887 56.1866C3.10783 57.2573 0.00193724 59.2974 -0.48077 62.3815L0.507202 62.5361ZM21.5765 56.7236L21.4219 57.7116C22.5854 57.8937 23.718 58.1222 24.8124 58.3854L25.0463 57.4131L25.2801 56.4408C24.1366 56.1658 22.9511 55.9266 21.7312 55.7357L21.5765 56.7236ZM25.0463 57.4131L25.8475 56.8147C20.8288 50.0952 18.0228 43.7173 18.0228 39H17.0228H16.0228C16.0228 44.3735 19.1469 51.1855 24.2451 58.0115L25.0463 57.4131ZM17.0228 39H18.0228C18.0228 34.3312 19.813 30.396 22.282 28.4124L21.6556 27.6328L21.0293 26.8533C17.9733 29.3086 16.0228 33.8891 16.0228 39H17.0228ZM21.6556 27.6328L22.4352 28.2591C24.4188 25.7901 28.354 24.0001 33.0228 24L33.0228 23L33.0228 22C27.9119 22.0001 23.3313 23.9504 20.8761 27.0065L21.6556 27.6328Z" fill="#C7E863" mask="url(#path-2-inside-1_131_118)"/>
<path d="M34.5 48.5L34.4294 48.394C33.8187 47.478 33.4366 46.429 33.315 45.3348V45.3348C33.1133 43.5197 33.6409 41.6988 34.7818 40.2728L35 40" stroke="#C7E863" stroke-linecap="round"/>
</svg>
