<svg width="164" height="164" viewBox="0 0 164 164" fill="none" xmlns="http://www.w3.org/2000/svg">
<path d="M82 106.405C85.4243 111.481 88.7929 116.094 91.9971 120.119C89.7178 135.231 86.086 144.99 81.9717 145C77.8703 145.01 74.2025 135.329 71.8516 120.309C75.1009 116.239 78.5218 111.561 82 106.405ZM93.8106 103.122C99.4498 105.876 104.798 108.24 109.687 110.156C115.33 124.554 117.089 134.958 113.501 137.03C109.896 139.112 101.704 132.313 91.9971 120.119C92.7678 115.009 93.3833 109.287 93.8106 103.122ZM69.1582 79.418C69.1531 80.284 69.1513 81.1546 69.1533 82.0293C69.1561 83.2156 69.1659 84.3943 69.1816 85.5645C69.7861 86.6404 70.4013 87.7213 71.0274 88.8057C71.5956 89.7899 72.1661 90.765 72.7373 91.7305C73.704 92.3024 74.6796 92.8744 75.665 93.4434C76.6545 94.0146 77.6415 94.5766 78.624 95.1299C79.7518 95.1393 80.8876 95.1443 82.0303 95.1416C83.1622 95.139 84.2871 95.1287 85.4043 95.1143C84.2642 95.7565 83.1287 96.3856 82 97.0029C83.5285 97.839 85.0454 98.6517 86.5479 99.4404C85.0277 101.845 83.5083 104.17 82 106.405C80.492 104.17 78.973 101.845 77.4531 99.4414C74.9028 100.78 72.3935 102.048 69.9404 103.243C70.4005 109.438 71.0495 115.184 71.8516 120.309C62.2109 132.383 54.0877 139.1 50.501 137.03C46.9126 134.959 48.6703 124.554 54.3135 110.156C59.1298 108.269 64.3926 105.946 69.9404 103.243C69.7403 100.548 69.5751 97.7679 69.4492 94.917C71.1893 94.9838 72.9553 95.036 74.7441 95.0732C75.6464 96.5556 76.5498 98.0126 77.4531 99.4414C78.9555 98.6528 80.4717 97.8389 82 97.0029C80.8806 96.3907 79.7547 95.7666 78.624 95.1299C77.3198 95.119 76.0261 95.0999 74.7441 95.0732C74.0743 93.9727 73.4046 92.8584 72.7373 91.7305C71.5648 91.0367 70.4066 90.341 69.2637 89.6445C69.311 91.426 69.3727 93.1846 69.4492 94.917C66.6437 94.8092 63.9059 94.6628 61.249 94.4824C62.4374 92.0441 63.699 89.5509 65.0293 87.0166C66.4152 87.8928 67.8274 88.7693 69.2637 89.6445C69.2279 88.2972 69.2001 86.9367 69.1816 85.5645C68.5996 84.5284 68.0283 83.4963 67.4668 82.4697C68.0206 81.4573 68.5844 80.4397 69.1582 79.418ZM44.0908 92.6748C49.2504 93.4462 55.0275 94.06 61.249 94.4824C58.537 100.047 56.2065 105.326 54.3135 110.156C39.9157 115.799 29.5122 117.559 27.4404 113.971C25.3738 110.391 32.0606 102.291 44.0908 92.6748ZM98.9717 77.9219C101.376 79.4419 103.7 80.9616 105.936 82.4697C103.7 83.9779 101.376 85.4976 98.9717 87.0176C100.285 89.5203 101.532 91.9832 102.707 94.3926C108.875 93.9473 114.606 93.317 119.732 92.5332C131.874 102.212 138.637 110.374 136.561 113.971C134.488 117.559 124.085 115.8 109.687 110.156C107.783 105.3 105.438 99.9906 102.707 94.3926C99.9718 94.5901 97.1509 94.7519 94.2588 94.8731C94.3242 93.2185 94.3764 91.5401 94.415 89.8408C93.3763 90.472 92.3257 91.1035 91.2627 91.7324C91.8343 90.7663 92.405 89.7906 92.9736 88.8057C93.4817 87.9257 93.9817 87.0474 94.4756 86.1729C94.4621 87.4055 94.4426 88.6285 94.415 89.8408C95.9624 88.9005 97.4824 87.9592 98.9717 87.0176C98.1829 85.515 97.3693 83.9983 96.5332 82.4697C97.3693 80.9411 98.1829 79.4245 98.9717 77.9219ZM94.2588 94.8731C94.1472 97.6966 93.9957 100.451 93.8106 103.122C91.4369 101.963 89.0119 100.734 86.5479 99.4404C87.4579 98.0011 88.3685 96.5337 89.2774 95.04C90.9589 94.9974 92.6202 94.9417 94.2588 94.8731ZM91.2627 91.7324C90.6025 92.8483 89.9401 93.9509 89.2774 95.04C87.9976 95.0725 86.7062 95.0974 85.4043 95.1143C86.3778 94.5659 87.3557 94.0093 88.3359 93.4434C89.3209 92.8747 90.2966 92.304 91.2627 91.7324ZM44.2695 72.4072C48.3137 75.6308 52.9547 79.0223 58.0645 82.4697C52.8794 85.968 48.1768 89.4087 44.0908 92.6748C28.8596 90.3976 19.01 86.7514 19 82.6182C18.9903 78.4644 28.9201 74.7539 44.2695 72.4072ZM119.909 72.2647C135.141 74.5419 144.991 78.1898 145.001 82.3232C145.011 86.4769 135.081 90.1865 119.732 92.5332C115.688 89.3092 111.046 85.9176 105.936 82.4697C111.121 78.9714 115.823 75.5308 119.909 72.2647ZM27.4414 50.9697C29.5138 47.382 39.9167 49.1406 54.3135 54.7832C56.2166 59.639 58.5622 64.9489 61.293 70.5469C63.9058 70.3582 66.5969 70.2022 69.3535 70.083C69.291 71.8075 69.2425 73.5569 69.209 75.3281C70.3704 74.6201 71.5472 73.9123 72.7393 73.207C72.1674 74.1735 71.5962 75.1495 71.0274 76.1348C70.3931 77.2332 69.7703 78.3281 69.1582 79.418C69.1663 78.0429 69.1834 76.6792 69.209 75.3281C67.7916 76.1922 66.3974 77.0569 65.0293 77.9219C65.818 79.4244 66.6308 80.9413 67.4668 82.4697C66.6309 83.9979 65.8179 85.5144 65.0293 87.0166C62.6251 85.4965 60.2999 83.9779 58.0645 82.4697C60.3 80.9614 62.625 79.442 65.0293 77.9219C63.7155 75.419 62.4684 72.9564 61.293 70.5469C55.1262 70.9922 49.3956 71.6235 44.2695 72.4072C32.1275 62.7288 25.3646 54.5669 27.4414 50.9697ZM91.9736 44.8496C101.691 32.6375 109.893 25.8272 113.501 27.9102C117.089 29.9819 115.33 40.3854 109.687 54.7832C104.791 56.7019 99.4343 59.0698 93.7861 61.8291C93.9723 64.4819 94.1226 67.2139 94.2373 70.0117C92.599 69.9505 90.938 69.9022 89.2568 69.8672C88.3545 68.3847 87.4504 66.928 86.5469 65.499C85.0447 66.2876 83.5282 67.1007 82 67.9365C83.1196 68.5489 84.246 69.1727 85.377 69.8096C86.6812 69.8205 87.9748 69.8405 89.2568 69.8672C89.9263 70.9671 90.5957 72.0807 91.2627 73.208C92.3212 73.8343 93.3679 74.4623 94.4024 75.0908C94.3609 73.3762 94.3058 71.6822 94.2373 70.0117C97.152 70.1206 99.9946 70.271 102.75 70.458C101.562 72.8956 100.302 75.3884 98.9717 77.9219C97.4783 76.9777 95.9541 76.0337 94.4024 75.0908C94.4317 76.3035 94.4554 77.5264 94.4707 78.7588C95.173 80.0022 95.8605 81.2398 96.5332 82.4697C95.8619 83.697 95.1763 84.9321 94.4756 86.1729C94.4907 84.7837 94.4984 83.382 94.4951 81.9697C94.4926 80.8929 94.4839 79.8224 94.4707 78.7588C93.9785 77.8872 93.48 77.0117 92.9736 76.1348C92.405 75.1498 91.8343 74.1741 91.2627 73.208C90.2966 72.6364 89.3208 72.0657 88.3359 71.4971C87.3463 70.9257 86.3597 70.363 85.377 69.8096C84.2492 69.8001 83.1134 69.7971 81.9707 69.7998C80.8385 69.8025 79.7132 69.8117 78.5957 69.8262C79.736 69.1839 80.8712 68.5539 82 67.9365C80.4715 67.1005 78.9546 66.2877 77.4522 65.499C78.9723 63.0947 80.4917 60.7697 82 58.5342C83.5082 60.7696 85.0268 63.0949 86.5469 65.499C89.0027 64.2099 91.42 62.9851 93.7861 61.8291C93.3554 55.6906 92.7392 49.9763 91.9736 44.8496ZM78.5957 69.8262C77.6224 70.3744 76.6451 70.9312 75.665 71.4971C74.6805 72.0655 73.705 72.6357 72.7393 73.207C73.3992 72.0917 74.0603 70.989 74.7227 69.9004C76.0024 69.8679 77.2938 69.843 78.5957 69.8262ZM109.687 54.7832C124.084 49.14 134.489 47.3823 136.561 50.9707C138.627 54.5505 131.939 62.6488 119.909 72.2647C114.749 71.4933 108.972 70.8804 102.75 70.458C105.462 64.8926 107.793 59.6134 109.687 54.7832ZM69.7861 61.6211C72.2882 62.8378 74.8484 64.1323 77.4522 65.499C76.542 66.9385 75.6316 68.4065 74.7227 69.9004C72.9084 69.9464 71.1175 70.0068 69.3535 70.083C69.4585 67.1871 69.604 64.3616 69.7861 61.6211ZM50.5 27.9111C54.0537 25.8594 62.062 32.4354 71.5869 44.3018C70.815 49.5107 70.2035 55.3427 69.7861 61.6211C64.2951 58.9508 59.0851 56.6534 54.3135 54.7832C48.6709 40.3865 46.9124 29.9836 50.5 27.9111ZM81.6768 19C85.8826 18.9902 89.6323 29.1704 91.9736 44.8496C88.7765 48.8677 85.416 53.4711 82 58.5342C78.4275 53.2391 74.9147 48.4476 71.5869 44.3018C73.8619 28.95 77.5244 19.01 81.6768 19Z" fill="#E1B866"/>
<path d="M82 106.405C85.4243 111.481 88.7929 116.094 91.9971 120.119C89.7178 135.231 86.086 144.99 81.9717 145C77.8703 145.01 74.2025 135.329 71.8516 120.309C75.1009 116.239 78.5218 111.561 82 106.405ZM93.8106 103.122C99.4498 105.876 104.798 108.24 109.687 110.156C115.33 124.554 117.089 134.958 113.501 137.03C109.896 139.112 101.704 132.313 91.9971 120.119C92.7678 115.009 93.3833 109.287 93.8106 103.122ZM69.1582 79.418C69.1531 80.284 69.1513 81.1546 69.1533 82.0293C69.1561 83.2156 69.1659 84.3943 69.1816 85.5645C69.7861 86.6404 70.4013 87.7213 71.0274 88.8057C71.5956 89.7899 72.1661 90.765 72.7373 91.7305C73.704 92.3024 74.6796 92.8744 75.665 93.4434C76.6545 94.0146 77.6415 94.5766 78.624 95.1299C79.7518 95.1393 80.8876 95.1443 82.0303 95.1416C83.1622 95.139 84.2871 95.1287 85.4043 95.1143C84.2642 95.7565 83.1287 96.3856 82 97.0029C83.5285 97.839 85.0454 98.6517 86.5479 99.4404C85.0277 101.845 83.5083 104.17 82 106.405C80.492 104.17 78.973 101.845 77.4531 99.4414C74.9028 100.78 72.3935 102.048 69.9404 103.243C70.4005 109.438 71.0495 115.184 71.8516 120.309C62.2109 132.383 54.0877 139.1 50.501 137.03C46.9126 134.959 48.6703 124.554 54.3135 110.156C59.1298 108.269 64.3926 105.946 69.9404 103.243C69.7403 100.548 69.5751 97.7679 69.4492 94.917C71.1893 94.9838 72.9553 95.036 74.7441 95.0732C75.6464 96.5556 76.5498 98.0126 77.4531 99.4414C78.9555 98.6528 80.4717 97.8389 82 97.0029C80.8806 96.3907 79.7547 95.7666 78.624 95.1299C77.3198 95.119 76.0261 95.0999 74.7441 95.0732C74.0743 93.9727 73.4046 92.8584 72.7373 91.7305C71.5648 91.0367 70.4066 90.341 69.2637 89.6445C69.311 91.426 69.3727 93.1846 69.4492 94.917C66.6437 94.8092 63.9059 94.6628 61.249 94.4824C62.4374 92.0441 63.699 89.5509 65.0293 87.0166C66.4152 87.8928 67.8274 88.7693 69.2637 89.6445C69.2279 88.2972 69.2001 86.9367 69.1816 85.5645C68.5996 84.5284 68.0283 83.4963 67.4668 82.4697C68.0206 81.4573 68.5844 80.4397 69.1582 79.418ZM44.0908 92.6748C49.2504 93.4462 55.0275 94.06 61.249 94.4824C58.537 100.047 56.2065 105.326 54.3135 110.156C39.9157 115.799 29.5122 117.559 27.4404 113.971C25.3738 110.391 32.0606 102.291 44.0908 92.6748ZM98.9717 77.9219C101.376 79.4419 103.7 80.9616 105.936 82.4697C103.7 83.9779 101.376 85.4976 98.9717 87.0176C100.285 89.5203 101.532 91.9832 102.707 94.3926C108.875 93.9473 114.606 93.317 119.732 92.5332C131.874 102.212 138.637 110.374 136.561 113.971C134.488 117.559 124.085 115.8 109.687 110.156C107.783 105.3 105.438 99.9906 102.707 94.3926C99.9718 94.5901 97.1509 94.7519 94.2588 94.8731C94.3242 93.2185 94.3764 91.5401 94.415 89.8408C93.3763 90.472 92.3257 91.1035 91.2627 91.7324C91.8343 90.7663 92.405 89.7906 92.9736 88.8057C93.4817 87.9257 93.9817 87.0474 94.4756 86.1729C94.4621 87.4055 94.4426 88.6285 94.415 89.8408C95.9624 88.9005 97.4824 87.9592 98.9717 87.0176C98.1829 85.515 97.3693 83.9983 96.5332 82.4697C97.3693 80.9411 98.1829 79.4245 98.9717 77.9219ZM94.2588 94.8731C94.1472 97.6966 93.9957 100.451 93.8106 103.122C91.4369 101.963 89.0119 100.734 86.5479 99.4404C87.4579 98.0011 88.3685 96.5337 89.2774 95.04C90.9589 94.9974 92.6202 94.9417 94.2588 94.8731ZM91.2627 91.7324C90.6025 92.8483 89.9401 93.9509 89.2774 95.04C87.9976 95.0725 86.7062 95.0974 85.4043 95.1143C86.3778 94.5659 87.3557 94.0093 88.3359 93.4434C89.3209 92.8747 90.2966 92.304 91.2627 91.7324ZM44.2695 72.4072C48.3137 75.6308 52.9547 79.0223 58.0645 82.4697C52.8794 85.968 48.1768 89.4087 44.0908 92.6748C28.8596 90.3976 19.01 86.7514 19 82.6182C18.9903 78.4644 28.9201 74.7539 44.2695 72.4072ZM119.909 72.2647C135.141 74.5419 144.991 78.1898 145.001 82.3232C145.011 86.4769 135.081 90.1865 119.732 92.5332C115.688 89.3092 111.046 85.9176 105.936 82.4697C111.121 78.9714 115.823 75.5308 119.909 72.2647ZM27.4414 50.9697C29.5138 47.382 39.9167 49.1406 54.3135 54.7832C56.2166 59.639 58.5622 64.9489 61.293 70.5469C63.9058 70.3582 66.5969 70.2022 69.3535 70.083C69.291 71.8075 69.2425 73.5569 69.209 75.3281C70.3704 74.6201 71.5472 73.9123 72.7393 73.207C72.1674 74.1735 71.5962 75.1495 71.0274 76.1348C70.3931 77.2332 69.7703 78.3281 69.1582 79.418C69.1663 78.0429 69.1834 76.6792 69.209 75.3281C67.7916 76.1922 66.3974 77.0569 65.0293 77.9219C65.818 79.4244 66.6308 80.9413 67.4668 82.4697C66.6309 83.9979 65.8179 85.5144 65.0293 87.0166C62.6251 85.4965 60.2999 83.9779 58.0645 82.4697C60.3 80.9614 62.625 79.442 65.0293 77.9219C63.7155 75.419 62.4684 72.9564 61.293 70.5469C55.1262 70.9922 49.3956 71.6235 44.2695 72.4072C32.1275 62.7288 25.3646 54.5669 27.4414 50.9697ZM91.9736 44.8496C101.691 32.6375 109.893 25.8272 113.501 27.9102C117.089 29.9819 115.33 40.3854 109.687 54.7832C104.791 56.7019 99.4343 59.0698 93.7861 61.8291C93.9723 64.4819 94.1226 67.2139 94.2373 70.0117C92.599 69.9505 90.938 69.9022 89.2568 69.8672C88.3545 68.3847 87.4504 66.928 86.5469 65.499C85.0447 66.2876 83.5282 67.1007 82 67.9365C83.1196 68.5489 84.246 69.1727 85.377 69.8096C86.6812 69.8205 87.9748 69.8405 89.2568 69.8672C89.9263 70.9671 90.5957 72.0807 91.2627 73.208C92.3212 73.8343 93.3679 74.4623 94.4024 75.0908C94.3609 73.3762 94.3058 71.6822 94.2373 70.0117C97.152 70.1206 99.9946 70.271 102.75 70.458C101.562 72.8956 100.302 75.3884 98.9717 77.9219C97.4783 76.9777 95.9541 76.0337 94.4024 75.0908C94.4317 76.3035 94.4554 77.5264 94.4707 78.7588C95.173 80.0022 95.8605 81.2398 96.5332 82.4697C95.8619 83.697 95.1763 84.9321 94.4756 86.1729C94.4907 84.7837 94.4984 83.382 94.4951 81.9697C94.4926 80.8929 94.4839 79.8224 94.4707 78.7588C93.9785 77.8872 93.48 77.0117 92.9736 76.1348C92.405 75.1498 91.8343 74.1741 91.2627 73.208C90.2966 72.6364 89.3208 72.0657 88.3359 71.4971C87.3463 70.9257 86.3597 70.363 85.377 69.8096C84.2492 69.8001 83.1134 69.7971 81.9707 69.7998C80.8385 69.8025 79.7132 69.8117 78.5957 69.8262C79.736 69.1839 80.8712 68.5539 82 67.9365C80.4715 67.1005 78.9546 66.2877 77.4522 65.499C78.9723 63.0947 80.4917 60.7697 82 58.5342C83.5082 60.7696 85.0268 63.0949 86.5469 65.499C89.0027 64.2099 91.42 62.9851 93.7861 61.8291C93.3554 55.6906 92.7392 49.9763 91.9736 44.8496ZM78.5957 69.8262C77.6224 70.3744 76.6451 70.9312 75.665 71.4971C74.6805 72.0655 73.705 72.6357 72.7393 73.207C73.3992 72.0917 74.0603 70.989 74.7227 69.9004C76.0024 69.8679 77.2938 69.843 78.5957 69.8262ZM109.687 54.7832C124.084 49.14 134.489 47.3823 136.561 50.9707C138.627 54.5505 131.939 62.6488 119.909 72.2647C114.749 71.4933 108.972 70.8804 102.75 70.458C105.462 64.8926 107.793 59.6134 109.687 54.7832ZM69.7861 61.6211C72.2882 62.8378 74.8484 64.1323 77.4522 65.499C76.542 66.9385 75.6316 68.4065 74.7227 69.9004C72.9084 69.9464 71.1175 70.0068 69.3535 70.083C69.4585 67.1871 69.604 64.3616 69.7861 61.6211ZM50.5 27.9111C54.0537 25.8594 62.062 32.4354 71.5869 44.3018C70.815 49.5107 70.2035 55.3427 69.7861 61.6211C64.2951 58.9508 59.0851 56.6534 54.3135 54.7832C48.6709 40.3865 46.9124 29.9836 50.5 27.9111ZM81.6768 19C85.8826 18.9902 89.6323 29.1704 91.9736 44.8496C88.7765 48.8677 85.416 53.4711 82 58.5342C78.4275 53.2391 74.9147 48.4476 71.5869 44.3018C73.8619 28.95 77.5244 19.01 81.6768 19Z" fill="#E1B866"/>
<mask id="path-3-inside-1_329_314" fill="white">
<path d="M74.9806 106.662C77.0555 112.79 79.2024 118.432 81.3459 123.428C74.8081 138.196 68.3843 147.13 64.1879 145.993C60.0048 144.859 58.966 133.969 60.7585 118.004C65.2056 114.762 69.9973 110.947 74.9806 106.662ZM69.4178 75.5718C69.1711 76.4532 68.9257 77.3399 68.6839 78.2322C68.3559 79.4419 68.0365 80.646 67.7263 81.8428C68.0425 83.1084 68.3684 84.3819 68.7042 85.6621C69.0091 86.8244 69.3184 87.9783 69.6316 89.1223C70.4571 89.9745 71.2928 90.8287 72.1384 91.6832C72.988 92.5418 73.8372 93.3903 74.6848 94.2287C75.8311 94.5526 76.9871 94.8727 78.1521 95.1885C79.3068 95.5015 80.4565 95.8055 81.5995 96.1023C80.2582 96.439 78.9253 96.7637 77.6026 97.0782C78.9274 98.3566 80.2466 99.6084 81.5581 100.831C79.3382 102.858 77.1412 104.804 74.9806 106.662C74.0667 103.962 73.1663 101.169 72.2875 98.2948C69.3143 98.9482 66.4029 99.5418 63.569 100.076C62.3102 106.518 61.3701 112.557 60.7585 118.004C47.5648 127.622 37.4113 132.203 34.3327 129.093C31.2529 125.98 35.9456 115.866 45.7127 102.764C51.1483 102.183 57.1605 101.283 63.569 100.076C64.1166 97.2726 64.7241 94.3929 65.3908 91.4519C67.1456 92.0052 68.9312 92.5499 70.7439 93.0866C71.2502 94.8494 71.7651 96.5864 72.2875 98.2948C74.0388 97.9099 75.8115 97.5041 77.6026 97.0782C76.6327 96.1423 75.6594 95.1927 74.6848 94.2287C73.3577 93.8536 72.044 93.4716 70.7439 93.0866C70.3683 91.7789 69.997 90.4572 69.6316 89.1223C68.6294 88.0877 67.6432 87.0544 66.6721 86.0254C66.2235 87.8546 65.7961 89.6645 65.3908 91.4519C62.5615 90.5597 59.8118 89.6472 57.1541 88.7224C59.0453 86.5685 61.0261 84.3787 63.0888 82.1666C64.2569 83.4461 65.4522 84.7328 66.6721 86.0254C67.0114 84.6418 67.3624 83.247 67.7263 81.8428C67.4221 80.6247 67.1278 79.4137 66.8419 78.2111C67.6889 77.3334 68.5478 76.4534 69.4178 75.5718ZM87.935 106.61C92.9147 110.99 97.7067 114.891 102.155 118.207C103.892 134.457 102.783 145.551 98.5477 146.662C94.2922 147.778 87.8398 138.565 81.3459 123.428C83.5566 118.434 85.7803 112.774 87.935 106.61ZM40.1683 82.0946C45.2124 84.3199 50.9301 86.5567 57.1541 88.7224C52.8377 93.6385 48.9892 98.3691 45.7127 102.764C29.4641 104.501 18.3698 103.392 17.2584 99.1574C16.1501 94.9324 25.2245 88.5413 40.1683 82.0946ZM100.223 82.3621C102.249 84.5819 104.195 86.7789 106.053 88.9395C103.354 89.8534 100.561 90.7538 97.6863 91.6326C98.3276 94.5504 98.9104 97.409 99.4365 100.193C105.847 101.459 111.865 102.414 117.31 103.045C126.987 116.296 131.604 126.502 128.484 129.589C125.371 132.669 115.257 127.975 102.155 118.207C101.569 112.727 100.659 106.661 99.4365 100.193C96.5932 99.6314 93.6729 99.0076 90.6908 98.3245C91.2188 96.6567 91.7409 94.9613 92.254 93.2404C91.0191 93.5941 89.7718 93.9436 88.5128 94.2883C89.365 93.4628 90.22 92.6282 91.0744 91.7827C91.8375 91.0276 92.592 90.2723 93.3391 89.5188C92.9816 90.7715 92.6202 92.0124 92.254 93.2404C94.0937 92.7134 95.9055 92.1771 97.6863 91.6326C97.3014 89.8813 96.8956 88.1086 96.4697 86.3175C97.7481 84.9927 98.9999 83.6735 100.223 82.3621ZM90.6908 98.3245C89.7895 101.172 88.8688 103.938 87.935 106.61C85.8386 104.766 83.7091 102.837 81.5581 100.831C82.887 99.6181 84.224 98.3758 85.5669 97.1068C87.2926 97.5323 89.0017 97.9376 90.6908 98.3245ZM88.5128 94.2883C87.5285 95.2417 86.5462 96.1814 85.5669 97.1068C84.2537 96.7831 82.9309 96.4481 81.5995 96.1023C82.7446 95.8149 83.8964 95.5203 85.0533 95.2168C86.2157 94.9119 87.3688 94.6014 88.5128 94.2883ZM46.0017 61.4845C49.2251 65.8986 53.0112 70.6495 57.2586 75.5891C50.9973 77.709 45.2442 79.9049 40.1683 82.0946C25.2779 75.5256 16.2558 69.0609 17.3986 64.8452C18.5477 60.609 29.7029 59.596 46.0017 61.4845ZM123.142 82.4347C138.033 89.0038 147.055 95.4695 145.912 99.6853C144.763 103.921 133.608 104.934 117.31 103.045C114.086 98.6309 110.301 93.8792 106.053 88.9395C112.314 86.8198 118.067 84.6243 123.142 82.4347ZM34.8282 34.9414C37.9406 31.8617 48.0541 36.5552 61.1556 46.3222C61.7413 51.8024 62.6516 57.8688 63.8739 64.3364C66.5899 64.8728 69.3763 65.4652 72.2196 66.1126C71.6751 67.8523 71.1373 69.6212 70.6094 71.4167C71.9904 71.019 73.3873 70.6267 74.7988 70.2403C73.9465 71.0659 73.0924 71.9016 72.2379 72.7471C71.2853 73.6897 70.3454 74.6319 69.4178 75.5718C69.8096 74.1723 70.2065 72.7867 70.6094 71.4167C68.9235 71.9022 67.2613 72.3958 65.6253 72.896C66.0102 74.6473 66.416 76.4201 66.8419 78.2111C65.5635 79.5359 64.3117 80.8551 63.0888 82.1666C61.0622 79.9468 59.1164 77.7497 57.2586 75.5891C59.9576 74.6752 62.7509 73.7748 65.6253 72.896C64.9841 69.9783 64.4 67.1202 63.8739 64.3364C57.4634 63.0703 51.4456 62.1153 46.0017 61.4845C36.3252 48.2338 31.7085 38.029 34.8282 34.9414ZM102.314 46.7004C115.624 36.9625 125.884 32.3076 128.981 35.4372C132.06 38.55 127.365 48.6635 117.598 61.765C112.073 62.3555 105.952 63.2753 99.4246 64.5127C98.8745 67.2685 98.2667 70.0951 97.6033 72.9787C95.9507 72.4595 94.2711 71.9474 92.5674 71.4429C92.061 69.6799 91.5466 67.9425 91.0241 66.2338C89.2728 66.6187 87.5 67.0245 85.709 67.4504C86.6792 68.3866 87.6526 69.3368 88.6275 70.3012C89.9543 70.6761 91.2676 71.0581 92.5674 71.4429C92.943 72.7505 93.3134 74.0723 93.6788 75.407C94.5835 76.341 95.4758 77.2732 96.3552 78.2027C96.7912 76.4431 97.2072 74.7008 97.6033 72.9787C100.544 73.9027 103.4 74.8479 106.157 75.8071C104.266 77.9609 102.285 80.1502 100.223 82.3621C98.9641 80.9834 97.6738 79.5963 96.3552 78.2027C96.047 79.4466 95.7303 80.6994 95.4023 81.9594C95.7714 83.4228 96.127 84.8761 96.4697 86.3175C95.443 87.3815 94.3995 88.4494 93.3391 89.5188C93.742 88.1069 94.1407 86.68 94.5312 85.2394C94.829 84.1409 95.1191 83.0473 95.4023 81.9594C95.1436 80.9337 94.8795 79.9028 94.608 78.8677C94.303 77.705 93.9921 76.5514 93.6788 75.407C92.8536 74.5551 92.0191 73.7008 91.1739 72.8466C90.3243 71.988 89.4751 71.1395 88.6275 70.3012C87.4808 69.9771 86.3243 69.6579 85.159 69.342C84.0043 69.029 82.8548 68.7241 81.7118 68.4272C83.0533 68.0905 84.3861 67.7649 85.709 67.4504C84.3842 66.172 83.065 64.9202 81.7535 63.6973C83.9733 61.6707 86.1704 59.7249 88.331 57.8671C89.2449 60.5661 90.1453 63.3594 91.0241 66.2338C93.8862 65.6048 96.691 65.031 99.4246 64.5127C100.697 58.1357 101.664 52.1395 102.314 46.7004ZM81.7118 68.4272C80.5668 68.7146 79.4156 69.0105 78.2587 69.314C77.0965 69.6188 75.9427 69.9272 74.7988 70.2403C75.7827 69.2873 76.7645 68.3476 77.7435 67.4225C79.057 67.7463 80.3801 68.0813 81.7118 68.4272ZM117.598 61.765C133.847 60.0284 144.943 61.1379 146.054 65.3734C147.161 69.5984 138.086 75.9881 123.142 82.4347C118.098 80.2095 112.381 77.9727 106.157 75.8071C110.474 70.8911 114.321 66.1601 117.598 61.765ZM75.0196 57.6066C77.2309 59.5448 79.4805 61.5778 81.7535 63.6973C80.4243 64.9108 79.0868 66.1532 77.7435 67.4225C75.8814 66.9634 74.0389 66.5268 72.2196 66.1126C73.1343 63.1897 74.0696 60.3495 75.0196 57.6066ZM64.7637 17.8671C68.9581 16.7669 75.2865 25.7037 81.6857 40.455C79.4461 45.5493 77.196 51.3233 75.0196 57.6066C70.1674 53.3535 65.4976 49.5591 61.1556 46.3222C59.4191 30.0733 60.5284 18.9783 64.7637 17.8671ZM99.0269 17.4797C103.317 18.6426 104.3 30.0653 102.314 46.7004C97.9343 49.9043 93.2249 53.659 88.331 57.8671C86.1661 51.4731 83.9216 45.6091 81.6857 40.455C88.2859 25.4416 94.7917 16.3317 99.0269 17.4797Z"/>
</mask>
<path d="M74.9806 106.662C77.0555 112.79 79.2024 118.432 81.3459 123.428C74.8081 138.196 68.3843 147.13 64.1879 145.993C60.0048 144.859 58.966 133.969 60.7585 118.004C65.2056 114.762 69.9973 110.947 74.9806 106.662ZM69.4178 75.5718C69.1711 76.4532 68.9257 77.3399 68.6839 78.2322C68.3559 79.4419 68.0365 80.646 67.7263 81.8428C68.0425 83.1084 68.3684 84.3819 68.7042 85.6621C69.0091 86.8244 69.3184 87.9783 69.6316 89.1223C70.4571 89.9745 71.2928 90.8287 72.1384 91.6832C72.988 92.5418 73.8372 93.3903 74.6848 94.2287C75.8311 94.5526 76.9871 94.8727 78.1521 95.1885C79.3068 95.5015 80.4565 95.8055 81.5995 96.1023C80.2582 96.439 78.9253 96.7637 77.6026 97.0782C78.9274 98.3566 80.2466 99.6084 81.5581 100.831C79.3382 102.858 77.1412 104.804 74.9806 106.662C74.0667 103.962 73.1663 101.169 72.2875 98.2948C69.3143 98.9482 66.4029 99.5418 63.569 100.076C62.3102 106.518 61.3701 112.557 60.7585 118.004C47.5648 127.622 37.4113 132.203 34.3327 129.093C31.2529 125.98 35.9456 115.866 45.7127 102.764C51.1483 102.183 57.1605 101.283 63.569 100.076C64.1166 97.2726 64.7241 94.3929 65.3908 91.4519C67.1456 92.0052 68.9312 92.5499 70.7439 93.0866C71.2502 94.8494 71.7651 96.5864 72.2875 98.2948C74.0388 97.9099 75.8115 97.5041 77.6026 97.0782C76.6327 96.1423 75.6594 95.1927 74.6848 94.2287C73.3577 93.8536 72.044 93.4716 70.7439 93.0866C70.3683 91.7789 69.997 90.4572 69.6316 89.1223C68.6294 88.0877 67.6432 87.0544 66.6721 86.0254C66.2235 87.8546 65.7961 89.6645 65.3908 91.4519C62.5615 90.5597 59.8118 89.6472 57.1541 88.7224C59.0453 86.5685 61.0261 84.3787 63.0888 82.1666C64.2569 83.4461 65.4522 84.7328 66.6721 86.0254C67.0114 84.6418 67.3624 83.247 67.7263 81.8428C67.4221 80.6247 67.1278 79.4137 66.8419 78.2111C67.6889 77.3334 68.5478 76.4534 69.4178 75.5718ZM87.935 106.61C92.9147 110.99 97.7067 114.891 102.155 118.207C103.892 134.457 102.783 145.551 98.5477 146.662C94.2922 147.778 87.8398 138.565 81.3459 123.428C83.5566 118.434 85.7803 112.774 87.935 106.61ZM40.1683 82.0946C45.2124 84.3199 50.9301 86.5567 57.1541 88.7224C52.8377 93.6385 48.9892 98.3691 45.7127 102.764C29.4641 104.501 18.3698 103.392 17.2584 99.1574C16.1501 94.9324 25.2245 88.5413 40.1683 82.0946ZM100.223 82.3621C102.249 84.5819 104.195 86.7789 106.053 88.9395C103.354 89.8534 100.561 90.7538 97.6863 91.6326C98.3276 94.5504 98.9104 97.409 99.4365 100.193C105.847 101.459 111.865 102.414 117.31 103.045C126.987 116.296 131.604 126.502 128.484 129.589C125.371 132.669 115.257 127.975 102.155 118.207C101.569 112.727 100.659 106.661 99.4365 100.193C96.5932 99.6314 93.6729 99.0076 90.6908 98.3245C91.2188 96.6567 91.7409 94.9613 92.254 93.2404C91.0191 93.5941 89.7718 93.9436 88.5128 94.2883C89.365 93.4628 90.22 92.6282 91.0744 91.7827C91.8375 91.0276 92.592 90.2723 93.3391 89.5188C92.9816 90.7715 92.6202 92.0124 92.254 93.2404C94.0937 92.7134 95.9055 92.1771 97.6863 91.6326C97.3014 89.8813 96.8956 88.1086 96.4697 86.3175C97.7481 84.9927 98.9999 83.6735 100.223 82.3621ZM90.6908 98.3245C89.7895 101.172 88.8688 103.938 87.935 106.61C85.8386 104.766 83.7091 102.837 81.5581 100.831C82.887 99.6181 84.224 98.3758 85.5669 97.1068C87.2926 97.5323 89.0017 97.9376 90.6908 98.3245ZM88.5128 94.2883C87.5285 95.2417 86.5462 96.1814 85.5669 97.1068C84.2537 96.7831 82.9309 96.4481 81.5995 96.1023C82.7446 95.8149 83.8964 95.5203 85.0533 95.2168C86.2157 94.9119 87.3688 94.6014 88.5128 94.2883ZM46.0017 61.4845C49.2251 65.8986 53.0112 70.6495 57.2586 75.5891C50.9973 77.709 45.2442 79.9049 40.1683 82.0946C25.2779 75.5256 16.2558 69.0609 17.3986 64.8452C18.5477 60.609 29.7029 59.596 46.0017 61.4845ZM123.142 82.4347C138.033 89.0038 147.055 95.4695 145.912 99.6853C144.763 103.921 133.608 104.934 117.31 103.045C114.086 98.6309 110.301 93.8792 106.053 88.9395C112.314 86.8198 118.067 84.6243 123.142 82.4347ZM34.8282 34.9414C37.9406 31.8617 48.0541 36.5552 61.1556 46.3222C61.7413 51.8024 62.6516 57.8688 63.8739 64.3364C66.5899 64.8728 69.3763 65.4652 72.2196 66.1126C71.6751 67.8523 71.1373 69.6212 70.6094 71.4167C71.9904 71.019 73.3873 70.6267 74.7988 70.2403C73.9465 71.0659 73.0924 71.9016 72.2379 72.7471C71.2853 73.6897 70.3454 74.6319 69.4178 75.5718C69.8096 74.1723 70.2065 72.7867 70.6094 71.4167C68.9235 71.9022 67.2613 72.3958 65.6253 72.896C66.0102 74.6473 66.416 76.4201 66.8419 78.2111C65.5635 79.5359 64.3117 80.8551 63.0888 82.1666C61.0622 79.9468 59.1164 77.7497 57.2586 75.5891C59.9576 74.6752 62.7509 73.7748 65.6253 72.896C64.9841 69.9783 64.4 67.1202 63.8739 64.3364C57.4634 63.0703 51.4456 62.1153 46.0017 61.4845C36.3252 48.2338 31.7085 38.029 34.8282 34.9414ZM102.314 46.7004C115.624 36.9625 125.884 32.3076 128.981 35.4372C132.06 38.55 127.365 48.6635 117.598 61.765C112.073 62.3555 105.952 63.2753 99.4246 64.5127C98.8745 67.2685 98.2667 70.0951 97.6033 72.9787C95.9507 72.4595 94.2711 71.9474 92.5674 71.4429C92.061 69.6799 91.5466 67.9425 91.0241 66.2338C89.2728 66.6187 87.5 67.0245 85.709 67.4504C86.6792 68.3866 87.6526 69.3368 88.6275 70.3012C89.9543 70.6761 91.2676 71.0581 92.5674 71.4429C92.943 72.7505 93.3134 74.0723 93.6788 75.407C94.5835 76.341 95.4758 77.2732 96.3552 78.2027C96.7912 76.4431 97.2072 74.7008 97.6033 72.9787C100.544 73.9027 103.4 74.8479 106.157 75.8071C104.266 77.9609 102.285 80.1502 100.223 82.3621C98.9641 80.9834 97.6738 79.5963 96.3552 78.2027C96.047 79.4466 95.7303 80.6994 95.4023 81.9594C95.7714 83.4228 96.127 84.8761 96.4697 86.3175C95.443 87.3815 94.3995 88.4494 93.3391 89.5188C93.742 88.1069 94.1407 86.68 94.5312 85.2394C94.829 84.1409 95.1191 83.0473 95.4023 81.9594C95.1436 80.9337 94.8795 79.9028 94.608 78.8677C94.303 77.705 93.9921 76.5514 93.6788 75.407C92.8536 74.5551 92.0191 73.7008 91.1739 72.8466C90.3243 71.988 89.4751 71.1395 88.6275 70.3012C87.4808 69.9771 86.3243 69.6579 85.159 69.342C84.0043 69.029 82.8548 68.7241 81.7118 68.4272C83.0533 68.0905 84.3861 67.7649 85.709 67.4504C84.3842 66.172 83.065 64.9202 81.7535 63.6973C83.9733 61.6707 86.1704 59.7249 88.331 57.8671C89.2449 60.5661 90.1453 63.3594 91.0241 66.2338C93.8862 65.6048 96.691 65.031 99.4246 64.5127C100.697 58.1357 101.664 52.1395 102.314 46.7004ZM81.7118 68.4272C80.5668 68.7146 79.4156 69.0105 78.2587 69.314C77.0965 69.6188 75.9427 69.9272 74.7988 70.2403C75.7827 69.2873 76.7645 68.3476 77.7435 67.4225C79.057 67.7463 80.3801 68.0813 81.7118 68.4272ZM117.598 61.765C133.847 60.0284 144.943 61.1379 146.054 65.3734C147.161 69.5984 138.086 75.9881 123.142 82.4347C118.098 80.2095 112.381 77.9727 106.157 75.8071C110.474 70.8911 114.321 66.1601 117.598 61.765ZM75.0196 57.6066C77.2309 59.5448 79.4805 61.5778 81.7535 63.6973C80.4243 64.9108 79.0868 66.1532 77.7435 67.4225C75.8814 66.9634 74.0389 66.5268 72.2196 66.1126C73.1343 63.1897 74.0696 60.3495 75.0196 57.6066ZM64.7637 17.8671C68.9581 16.7669 75.2865 25.7037 81.6857 40.455C79.4461 45.5493 77.196 51.3233 75.0196 57.6066C70.1674 53.3535 65.4976 49.5591 61.1556 46.3222C59.4191 30.0733 60.5284 18.9783 64.7637 17.8671ZM99.0269 17.4797C103.317 18.6426 104.3 30.0653 102.314 46.7004C97.9343 49.9043 93.2249 53.659 88.331 57.8671C86.1661 51.4731 83.9216 45.6091 81.6857 40.455C88.2859 25.4416 94.7917 16.3317 99.0269 17.4797Z" fill="#E1B866"/>
<path d="M64.1879 145.993L63.9263 146.958V146.958L64.1879 145.993ZM68.6839 78.2322L67.7187 77.9705L67.7187 77.9705L68.6839 78.2322ZM68.7042 85.6621L67.737 85.9158V85.9158L68.7042 85.6621ZM72.1384 91.6832L71.4275 92.3866V92.3866L72.1384 91.6832ZM78.1521 95.1885L77.8904 96.1536V96.1536L78.1521 95.1885ZM34.3327 129.093L33.6219 129.796L33.622 129.796L34.3327 129.093ZM98.5477 146.662L98.8013 147.63L98.8014 147.63L98.5477 146.662ZM17.2584 99.1574L16.2911 99.4111L16.2911 99.4112L17.2584 99.1574ZM128.484 129.589L129.187 130.3L129.187 130.3L128.484 129.589ZM91.0744 91.7827L91.7778 92.4935V92.4935L91.0744 91.7827ZM85.0533 95.2168L85.307 96.1841V96.1841L85.0533 95.2168ZM17.3986 64.8452L16.4335 64.5834L16.4335 64.5835L17.3986 64.8452ZM145.912 99.6853L146.878 99.9471L146.878 99.947L145.912 99.6853ZM34.8282 34.9414L34.1248 34.2306L34.1248 34.2307L34.8282 34.9414ZM72.2379 72.7471L71.5345 72.0363V72.0363L72.2379 72.7471ZM128.981 35.4372L129.691 34.734L129.691 34.7339L128.981 35.4372ZM94.5312 85.2394L95.4964 85.501V85.501L94.5312 85.2394ZM94.608 78.8677L95.5753 78.614V78.614L94.608 78.8677ZM91.1739 72.8466L91.8847 72.1433V72.1433L91.1739 72.8466ZM85.159 69.342L85.4207 68.3769V68.3769L85.159 69.342ZM78.2587 69.314L78.005 68.3467V68.3467L78.2587 69.314ZM146.054 65.3734L147.021 65.1198L147.021 65.1196L146.054 65.3734ZM64.7637 17.8671L64.5099 16.8999L64.5099 16.8999L64.7637 17.8671ZM99.0269 17.4797L99.2885 16.5145L99.2885 16.5145L99.0269 17.4797ZM74.9806 106.662L74.0334 106.982C76.1154 113.132 78.2717 118.798 80.4269 123.822L81.3459 123.428L82.2649 123.034C80.1332 118.065 77.9955 112.448 75.9278 106.341L74.9806 106.662ZM81.3459 123.428L80.4315 123.023C77.1757 130.378 73.9709 136.225 71.0883 140.076C69.644 142.005 68.317 143.383 67.1454 144.205C65.9638 145.034 65.0876 145.201 64.4496 145.028L64.1879 145.993L63.9263 146.958C65.3865 147.354 66.8869 146.83 68.2942 145.842C69.7117 144.848 71.186 143.283 72.6894 141.274C75.7023 137.25 78.9783 131.247 82.2603 123.833L81.3459 123.428ZM64.1879 145.993L64.4496 145.028C63.8136 144.855 63.1436 144.272 62.5438 142.968C61.9489 141.675 61.4994 139.827 61.2258 137.446C60.6797 132.694 60.8596 126.066 61.7523 118.115L60.7585 118.004L59.7647 117.892C58.8649 125.907 58.6679 132.706 59.2389 137.674C59.5238 140.153 60.0063 142.238 60.7267 143.804C61.4422 145.36 62.4707 146.563 63.9263 146.958L64.1879 145.993ZM60.7585 118.004L61.3476 118.812C65.8194 115.552 70.6321 111.72 75.6326 107.42L74.9806 106.662L74.3286 105.903C69.3625 110.174 64.5918 113.972 60.1694 117.196L60.7585 118.004ZM69.4178 75.5718L68.4548 75.3022C68.2076 76.1855 67.9615 77.075 67.7187 77.9705L68.6839 78.2322L69.649 78.4938C69.89 77.6049 70.1346 76.7209 70.3808 75.8413L69.4178 75.5718ZM68.6839 78.2322L67.7187 77.9705C67.3898 79.1838 67.0695 80.3914 66.7583 81.5919L67.7263 81.8428L68.6943 82.0937C69.0036 80.9006 69.322 79.7001 69.649 78.4938L68.6839 78.2322ZM67.7263 81.8428L66.7561 82.0852C67.0732 83.3546 67.4002 84.6318 67.737 85.9158L68.7042 85.6621L69.6715 85.4084C69.3367 84.132 69.0117 82.8623 68.6965 81.6005L67.7263 81.8428ZM68.7042 85.6621L67.737 85.9158C68.0428 87.0816 68.353 88.2389 68.6671 89.3863L69.6316 89.1223L70.5961 88.8582C70.2839 87.7177 69.9755 86.5673 69.6715 85.4084L68.7042 85.6621ZM69.6316 89.1223L68.9133 89.818C69.7411 90.6727 70.5794 91.5294 71.4275 92.3866L72.1384 91.6832L72.8492 90.9798C72.0063 90.128 71.173 89.2763 70.3499 88.4265L69.6316 89.1223ZM72.1384 91.6832L71.4275 92.3866C72.2798 93.2479 73.1316 94.0989 73.9816 94.9396L74.6848 94.2287L75.388 93.5177C74.5428 92.6817 73.6961 91.8358 72.8492 90.9798L72.1384 91.6832ZM74.6848 94.2287L74.4128 95.191C75.5626 95.5159 76.7221 95.8369 77.8904 96.1536L78.1521 95.1885L78.4137 94.2233C77.2522 93.9084 76.0996 93.5894 74.9568 93.2664L74.6848 94.2287ZM78.1521 95.1885L77.8904 96.1536C79.0492 96.4678 80.2023 96.7726 81.3481 97.0702L81.5995 96.1023L81.8509 95.1345C80.7106 94.8383 79.5645 94.5353 78.4137 94.2233L78.1521 95.1885ZM81.5995 96.1023L81.3561 95.1324C80.0192 95.468 78.6904 95.7917 77.3713 96.1053L77.6026 97.0782L77.8339 98.0511C79.1603 97.7357 80.4972 97.41 81.843 97.0723L81.5995 96.1023ZM77.6026 97.0782L76.9082 97.7978C78.237 99.08 79.5603 100.336 80.8761 101.563L81.5581 100.831L82.24 100.1C80.9329 98.8811 79.6178 97.6332 78.297 96.3586L77.6026 97.0782ZM81.5581 100.831L80.8838 100.093C78.6712 102.113 76.4817 104.052 74.3286 105.903L74.9806 106.662L75.6326 107.42C77.8008 105.555 80.0052 103.603 82.2323 101.57L81.5581 100.831ZM74.9806 106.662L75.9278 106.341C75.0171 103.651 74.1198 100.867 73.2438 98.0024L72.2875 98.2948L71.3312 98.5872C72.2129 101.471 73.1163 104.274 74.0334 106.982L74.9806 106.662ZM72.2875 98.2948L72.0728 97.3181C69.1093 97.9694 66.2077 98.561 63.3838 99.0929L63.569 100.076L63.7541 101.058C66.598 100.523 69.5193 99.927 72.5021 99.2715L72.2875 98.2948ZM63.569 100.076L62.5875 99.8839C61.3244 106.349 60.3798 112.414 59.7647 117.892L60.7585 118.004L61.7523 118.115C62.3604 112.699 63.2961 106.688 64.5504 100.267L63.569 100.076ZM60.7585 118.004L60.1694 117.196C53.5988 121.986 47.8315 125.486 43.3587 127.402C41.1175 128.362 39.2577 128.9 37.816 129.029C36.3612 129.159 35.5115 128.862 35.0434 128.389L34.3327 129.093L33.622 129.796C34.6932 130.879 36.2671 131.175 37.9943 131.021C39.7346 130.865 41.815 130.239 44.1462 129.241C48.8182 127.239 54.7245 123.64 61.3476 118.812L60.7585 118.004ZM34.3327 129.093L35.0435 128.389C34.5752 127.916 34.2872 127.063 34.433 125.608C34.5775 124.167 35.1353 122.311 36.1201 120.078C38.0855 115.622 41.6503 109.887 46.5144 103.362L45.7127 102.764L44.911 102.167C40.008 108.743 36.343 114.616 34.2901 119.271C33.2658 121.593 32.6174 123.669 32.443 125.409C32.2699 127.135 32.5503 128.713 33.6219 129.796L34.3327 129.093ZM45.7127 102.764L45.819 103.759C51.2848 103.174 57.3235 102.27 63.7541 101.058L63.569 100.076L63.3838 99.0929C56.9975 100.296 51.0119 101.192 45.6064 101.77L45.7127 102.764ZM63.569 100.076L64.5504 100.267C65.0961 97.4744 65.7015 94.6045 66.3661 91.673L65.3908 91.4519L64.4156 91.2308C63.7467 94.1813 63.1371 97.0708 62.5875 99.8839L63.569 100.076ZM65.3908 91.4519L65.0901 92.4056C66.8509 92.9609 68.6422 93.5072 70.46 94.0455L70.7439 93.0866L71.0279 92.1278C69.2203 91.5925 67.4403 91.0496 65.6916 90.4982L65.3908 91.4519ZM70.7439 93.0866L69.7828 93.3627C70.2906 95.1308 70.8071 96.8733 71.3312 98.5872L72.2875 98.2948L73.2438 98.0024C72.7231 96.2995 72.2098 94.5679 71.7051 92.8106L70.7439 93.0866ZM72.2875 98.2948L72.5021 99.2715C74.2592 98.8854 76.0375 98.4782 77.8339 98.0511L77.6026 97.0782L77.3713 96.1053C75.5856 96.5299 73.8184 96.9345 72.0728 97.3181L72.2875 98.2948ZM77.6026 97.0782L78.297 96.3586C77.3298 95.4253 76.3594 94.4785 75.388 93.5177L74.6848 94.2287L73.9816 94.9396C74.9593 95.9068 75.9357 96.8593 76.9082 97.7978L77.6026 97.0782ZM74.6848 94.2287L74.9568 93.2664C73.6344 92.8926 72.3248 92.5118 71.0279 92.1278L70.7439 93.0866L70.46 94.0455C71.7632 94.4314 73.0809 94.8145 74.4128 95.191L74.6848 94.2287ZM70.7439 93.0866L71.7051 92.8106C71.3306 91.5066 70.9603 90.1889 70.5961 88.8582L69.6316 89.1223L68.6671 89.3863C69.0336 90.7254 69.4061 92.0512 69.7828 93.3627L70.7439 93.0866ZM69.6316 89.1223L70.3499 88.4265C69.3511 87.3954 68.3679 86.3653 67.3993 85.339L66.6721 86.0254L65.9448 86.7117C66.9186 87.7436 67.9078 88.7799 68.9133 89.818L69.6316 89.1223ZM66.6721 86.0254L65.7008 85.7872C65.2509 87.6219 64.8221 89.4375 64.4156 91.2308L65.3908 91.4519L66.3661 91.673C66.77 89.8915 67.196 88.0873 67.6433 86.2636L66.6721 86.0254ZM65.3908 91.4519L65.6916 90.4982C62.8715 89.6089 60.1311 88.6995 57.4828 87.778L57.1541 88.7224L56.8255 89.6669C59.4925 90.5949 62.2515 91.5105 65.0901 92.4056L65.3908 91.4519ZM57.1541 88.7224L57.9056 89.3822C59.7901 87.2359 61.7642 85.0534 63.8202 82.8485L63.0888 82.1666L62.3574 81.4846C60.288 83.7039 58.3006 85.9011 56.4027 88.0626L57.1541 88.7224ZM63.0888 82.1666L62.3503 82.8408C63.5223 84.1246 64.7214 85.4154 65.9448 86.7117L66.6721 86.0254L67.3993 85.339C66.1831 84.0502 64.9915 82.7675 63.8273 81.4923L63.0888 82.1666ZM66.6721 86.0254L67.6433 86.2636C67.9817 84.8839 68.3316 83.4933 68.6943 82.0937L67.7263 81.8428L66.7583 81.5919C66.3932 83.0006 66.0411 84.3996 65.7008 85.7872L66.6721 86.0254ZM67.7263 81.8428L68.6965 81.6005C68.3933 80.3865 68.0999 79.1792 67.8148 77.9798L66.8419 78.2111L65.869 78.4425C66.1557 79.6482 66.4508 80.863 66.7561 82.0852L67.7263 81.8428ZM66.8419 78.2111L67.5615 78.9055C68.4058 78.0305 69.2621 77.1533 70.1296 76.2742L69.4178 75.5718L68.7061 74.8694C67.8335 75.7536 66.9719 76.6362 66.1223 77.5167L66.8419 78.2111ZM87.935 106.61L87.2745 107.361C92.2715 111.756 97.0844 115.674 101.557 119.009L102.155 118.207L102.752 117.405C98.329 114.108 93.558 110.224 88.5954 105.859L87.935 106.61ZM102.155 118.207L101.16 118.313C102.025 126.406 102.174 133.157 101.598 137.993C101.309 140.417 100.844 142.298 100.235 143.612C99.6202 144.938 98.938 145.526 98.294 145.695L98.5477 146.662L98.8014 147.63C100.275 147.243 101.32 146.028 102.05 144.453C102.785 142.867 103.283 140.751 103.584 138.23C104.186 133.179 104.021 126.258 103.149 118.101L102.155 118.207ZM98.5477 146.662L98.294 145.695C97.6469 145.865 96.7584 145.685 95.5637 144.821C94.3802 143.965 93.0439 142.539 91.5943 140.551C88.7011 136.582 85.499 130.572 82.2649 123.034L81.3459 123.428L80.4269 123.822C83.6866 131.42 86.9577 137.586 89.9781 141.729C91.4852 143.796 92.9658 145.411 94.3919 146.442C95.8068 147.465 97.3207 148.018 98.8013 147.63L98.5477 146.662ZM81.3459 123.428L82.2603 123.833C84.4834 118.811 86.7168 113.125 88.8789 106.94L87.935 106.61L86.991 106.28C84.8439 112.422 82.6298 118.057 80.4315 123.023L81.3459 123.428ZM40.1682 82.0946L39.7646 83.0096C44.8368 85.2472 50.5799 87.4937 56.8255 89.6669L57.1541 88.7224L57.4828 87.778C51.2803 85.6198 45.588 83.3926 40.5719 81.1797L40.1682 82.0946ZM57.1541 88.7224L56.4027 88.0626C52.0713 92.9957 48.2057 97.747 44.911 102.167L45.7127 102.764L46.5144 103.362C49.7728 98.9912 53.604 94.2813 57.9056 89.3822L57.1541 88.7224ZM45.7127 102.764L45.6064 101.77C37.5144 102.635 30.7635 102.784 25.9275 102.207C23.5043 101.918 21.6232 101.454 20.3089 100.845C18.9826 100.23 18.3946 99.5475 18.2256 98.9036L17.2584 99.1574L16.2911 99.4112C16.6778 100.885 17.8934 101.929 19.4677 102.659C21.0539 103.394 23.1703 103.893 25.6907 104.193C30.7418 104.795 37.6624 104.63 45.819 103.759L45.7127 102.764ZM17.2584 99.1574L18.2256 98.9037C18.0571 98.2612 18.2331 97.381 19.0815 96.1984C19.9225 95.0263 21.3257 93.7024 23.2851 92.2656C27.1957 89.398 33.1223 86.2233 40.5644 83.0128L40.1682 82.0946L39.7721 81.1764C32.2704 84.4126 26.188 87.6569 22.1025 90.6527C20.0639 92.1476 18.4723 93.6166 17.4565 95.0326C16.4482 96.438 15.9055 97.941 16.2911 99.4111L17.2584 99.1574ZM100.223 82.3621L99.4843 83.0363C101.504 85.2488 103.443 87.4385 105.295 89.5915L106.053 88.9395L106.811 88.2875C104.947 86.1193 102.995 83.9149 100.961 81.6878L100.223 82.3621ZM106.053 88.9395L105.732 87.9923C103.043 88.903 100.259 89.8003 97.3939 90.6763L97.6863 91.6326L97.9787 92.5889C100.862 91.7072 103.665 90.8038 106.374 89.8867L106.053 88.9395ZM97.6863 91.6326L96.7096 91.8473C97.3487 94.7555 97.9296 97.6043 98.4539 100.379L99.4365 100.193L100.419 100.007C99.8912 97.2136 99.3064 94.3454 98.663 91.418L97.6863 91.6326ZM99.4365 100.193L99.2428 101.174C105.676 102.444 111.72 103.404 117.195 104.038L117.31 103.045L117.425 102.052C112.011 101.424 106.019 100.474 99.6303 99.2119L99.4365 100.193ZM117.31 103.045L116.502 103.635C121.321 110.234 124.846 116.029 126.777 120.523C127.745 122.775 128.287 124.644 128.419 126.093C128.552 127.556 128.255 128.409 127.78 128.878L128.484 129.589L129.187 130.3C130.273 129.226 130.568 127.646 130.411 125.912C130.252 124.165 129.621 122.076 128.614 119.734C126.598 115.041 122.975 109.107 118.117 102.455L117.31 103.045ZM128.484 129.589L127.78 128.878C127.307 129.347 126.454 129.635 124.999 129.489C123.558 129.344 121.702 128.786 119.469 127.801C115.013 125.835 109.277 122.27 102.752 117.405L102.155 118.207L101.557 119.009C108.134 123.912 114.007 127.577 118.662 129.631C120.984 130.655 123.06 131.304 124.799 131.479C126.526 131.652 128.104 131.372 129.187 130.3L128.484 129.589ZM102.155 118.207L103.149 118.101C102.56 112.59 101.646 106.497 100.419 100.007L99.4365 100.193L98.4539 100.379C99.672 106.824 100.578 112.863 101.16 118.313L102.155 118.207ZM99.4365 100.193L99.6303 99.2119C96.7973 98.6524 93.8868 98.0307 90.9141 97.3498L90.6908 98.3245L90.4675 99.2993C93.4589 99.9845 96.3891 100.61 99.2428 101.174L99.4365 100.193ZM90.6908 98.3245L91.6442 98.6263C92.1738 96.9534 92.6975 95.2527 93.2123 93.5261L92.254 93.2404L91.2957 92.9546C90.7842 94.6699 90.2638 96.3599 89.7375 98.0227L90.6908 98.3245ZM92.254 93.2404L91.9786 92.2791C90.7475 92.6317 89.5039 92.9802 88.2488 93.3238L88.5128 94.2883L88.7768 95.2528C90.0396 94.9071 91.2908 94.5565 92.5294 94.2017L92.254 93.2404ZM88.5128 94.2883L89.2086 95.0066C90.0626 94.1793 90.9202 93.3421 91.7778 92.4935L91.0744 91.7827L90.3711 91.0719C89.5198 91.9142 88.6674 92.7463 87.8171 93.57L88.5128 94.2883ZM91.0744 91.7827L91.7778 92.4935C92.5436 91.7358 93.3003 90.9782 94.0492 90.2229L93.3391 89.5188L92.629 88.8147C91.8836 89.5665 91.1314 90.3195 90.3711 91.0719L91.0744 91.7827ZM93.3391 89.5188L92.3775 89.2444C92.021 90.4936 91.6606 91.7308 91.2957 92.9546L92.254 93.2404L93.2123 93.5261C93.5797 92.2941 93.9422 91.0493 94.3007 89.7933L93.3391 89.5188ZM92.254 93.2404L92.5294 94.2017C94.3746 93.6732 96.1921 93.1352 97.9787 92.5889L97.6863 91.6326L97.3939 90.6763C95.6189 91.2191 93.8127 91.7537 91.9786 92.2791L92.254 93.2404ZM97.6863 91.6326L98.663 91.418C98.2768 89.6609 97.8697 87.8826 97.4426 86.0862L96.4697 86.3175L95.4968 86.5488C95.9214 88.3345 96.326 90.1017 96.7096 91.8473L97.6863 91.6326ZM96.4697 86.3175L97.1893 87.0119C98.4715 85.6831 99.7273 84.3598 100.954 83.044L100.223 82.3621L99.4914 81.6801C98.2725 82.9872 97.0247 84.3023 95.7501 85.6231L96.4697 86.3175ZM90.6908 98.3245L89.7375 98.0227C88.839 100.861 87.9215 103.618 86.991 106.28L87.935 106.61L88.8789 106.94C89.8162 104.258 90.74 101.483 91.6442 98.6263L90.6908 98.3245ZM87.935 106.61L88.5954 105.859C86.5065 104.022 84.3842 102.099 82.24 100.1L81.5581 100.831L80.8761 101.563C83.034 103.575 85.1707 105.51 87.2745 107.361L87.935 106.61ZM81.5581 100.831L82.2323 101.57C83.5656 100.353 84.9068 99.1064 86.2537 97.8337L85.5669 97.1068L84.8801 96.38C83.5412 97.6452 82.2084 98.8835 80.8838 100.093L81.5581 100.831ZM85.5669 97.1068L85.3275 98.0778C87.0589 98.5046 88.7733 98.9112 90.4675 99.2993L90.6908 98.3245L90.9141 97.3498C89.23 96.964 87.5263 96.5599 85.8062 96.1359L85.5669 97.1068ZM88.5128 94.2883L87.8171 93.57C86.8357 94.5205 85.8564 95.4574 84.8801 96.38L85.5669 97.1068L86.2537 97.8337C87.236 96.9054 88.2213 95.9628 89.2086 95.0066L88.5128 94.2883ZM85.5669 97.1068L85.8062 96.1359C84.4972 95.8132 83.1784 95.4792 81.8509 95.1345L81.5995 96.1023L81.3481 97.0702C82.6834 97.417 84.0103 97.753 85.3275 98.0778L85.5669 97.1068ZM81.5995 96.1023L81.843 97.0723C82.991 96.7841 84.1463 96.4886 85.307 96.1841L85.0533 95.2168L84.7996 94.2495C83.6466 94.552 82.4982 94.8458 81.3561 95.1324L81.5995 96.1023ZM85.0533 95.2168L85.307 96.1841C86.4735 95.8781 87.6302 95.5667 88.7768 95.2528L88.5128 94.2883L88.2488 93.3238C87.1075 93.6362 85.9578 93.9457 84.7996 94.2495L85.0533 95.2168ZM46.0017 61.4845L45.1941 62.0743C48.4354 66.5127 52.2384 71.2845 56.5003 76.2411L57.2586 75.5891L58.0168 74.9371C53.7841 70.0146 50.0149 65.2844 46.8093 60.8948L46.0017 61.4845ZM57.2586 75.5891L56.9379 74.6419C50.6549 76.7691 44.8763 78.9745 39.7721 81.1764L40.1682 82.0946L40.5644 83.0128C45.6121 80.8353 51.3397 78.6488 57.5793 76.5363L57.2586 75.5891ZM40.1682 82.0946L40.5719 81.1797C33.1564 77.9083 27.2559 74.6853 23.3689 71.7859C21.4212 70.3331 20.0289 68.9978 19.1975 67.8189C18.3588 66.6294 18.19 65.7478 18.3638 65.1068L17.3986 64.8452L16.4335 64.5835C16.0358 66.0504 16.5662 67.5578 17.563 68.9714C18.5672 70.3956 20.1467 71.8775 22.1731 73.389C26.234 76.4181 32.2898 79.7119 39.7646 83.0096L40.1682 82.0946ZM17.3986 64.8452L18.3637 65.107C18.5385 64.4628 19.1347 63.7836 20.4727 63.1785C21.7982 62.5791 23.6921 62.1301 26.1284 61.8621C30.9906 61.3272 37.7694 61.5374 45.8866 62.4779L46.0017 61.4845L46.1168 60.4912C37.9351 59.5432 30.987 59.3156 25.9097 59.8741C23.3762 60.1528 21.2471 60.6333 19.6486 61.3562C18.0624 62.0735 16.8333 63.1095 16.4335 64.5834L17.3986 64.8452ZM123.142 82.4347L122.739 83.3496C130.154 86.6211 136.055 89.8444 139.942 92.744C141.89 94.197 143.282 95.5323 144.114 96.7114C144.952 97.901 145.121 98.7827 144.947 99.4237L145.912 99.6853L146.878 99.947C147.275 98.4801 146.745 96.9726 145.748 95.5589C144.744 94.1347 143.164 92.6526 141.138 91.1409C137.077 88.1115 131.021 84.8174 123.546 81.5197L123.142 82.4347ZM145.912 99.6853L144.947 99.4235C144.773 100.068 144.176 100.747 142.838 101.352C141.513 101.951 139.619 102.4 137.183 102.668C132.321 103.203 125.542 102.992 117.425 102.052L117.31 103.045L117.195 104.038C125.376 104.986 132.324 105.214 137.401 104.656C139.935 104.377 142.064 103.897 143.662 103.174C145.249 102.457 146.478 101.421 146.878 99.9471L145.912 99.6853ZM117.31 103.045L118.117 102.455C114.876 98.0168 111.073 93.2443 106.811 88.2875L106.053 88.9395L105.295 89.5915C109.528 94.5141 113.296 99.245 116.502 103.635L117.31 103.045ZM106.053 88.9395L106.374 89.8867C112.656 87.7596 118.434 85.5546 123.538 83.3529L123.142 82.4347L122.746 81.5165C117.699 83.6939 111.971 85.8799 105.732 87.9923L106.053 88.9395ZM34.8282 34.9414L35.5316 35.6523C36.0048 35.184 36.8582 34.896 38.3127 35.0419C39.7541 35.1865 41.6097 35.7444 43.8424 36.7292C48.2984 38.6948 54.0332 42.2598 60.5579 47.1239L61.1556 46.3222L61.7533 45.5204C55.1765 40.6176 49.3038 36.9523 44.6496 34.8993C42.3272 33.8749 40.252 33.2264 38.5123 33.0519C36.7858 32.8787 35.2078 33.159 34.1248 34.2306L34.8282 34.9414ZM61.1556 46.3222L60.1613 46.4284C60.7502 51.939 61.6648 58.0322 62.8913 64.5221L63.8739 64.3364L64.8565 64.1507C63.6384 57.7054 62.7324 51.6658 62.1499 46.2159L61.1556 46.3222ZM63.8739 64.3364L63.6801 65.3174C66.3864 65.8519 69.1634 66.4423 71.9976 67.0876L72.2196 66.1126L72.4416 65.1375C69.5893 64.4881 66.7934 63.8936 64.0676 63.3553L63.8739 64.3364ZM72.2196 66.1126L71.2652 65.8139C70.7191 67.5589 70.1797 69.3333 69.65 71.1346L70.6094 71.4167L71.5687 71.6988C72.095 69.909 72.6311 68.1457 73.1739 66.4112L72.2196 66.1126ZM70.6094 71.4167L70.8861 72.3776C72.2628 71.9811 73.6555 71.5901 75.0628 71.2049L74.7988 70.2403L74.5348 69.2758C73.1191 69.6633 71.7179 70.0568 70.3326 70.4557L70.6094 71.4167ZM74.7988 70.2403L74.103 69.5221C73.2484 70.3499 72.3917 71.1881 71.5345 72.0363L72.2379 72.7471L72.9412 73.4579C73.7931 72.615 74.6447 71.7818 75.4945 70.9586L74.7988 70.2403ZM72.2379 72.7471L71.5345 72.0363C70.5789 72.9819 69.6362 73.9269 68.7061 74.8694L69.4178 75.5718L70.1296 76.2742C71.0546 75.3369 71.9917 74.3975 72.9412 73.4579L72.2379 72.7471ZM69.4178 75.5718L70.3808 75.8413C70.7715 74.4457 71.1672 73.0643 71.5687 71.6988L70.6094 71.4167L69.65 71.1346C69.2458 72.5091 68.8477 73.8989 68.4548 75.3022L69.4178 75.5718ZM70.6094 71.4167L70.3326 70.4557C68.6415 70.9427 66.9741 71.4379 65.3329 71.9397L65.6253 72.896L65.9177 73.8523C67.5484 73.3536 69.2054 72.8616 70.8861 72.3776L70.6094 71.4167ZM65.6253 72.896L64.6486 73.1106C65.0347 74.8678 65.4419 76.646 65.869 78.4425L66.8419 78.2111L67.8148 77.9798C67.3902 76.1941 66.9856 74.4269 66.602 72.6813L65.6253 72.896ZM66.8419 78.2111L66.1223 77.5167C64.8401 78.8455 63.5843 80.1688 62.3574 81.4846L63.0888 82.1666L63.8202 82.8485C65.039 81.5414 66.2869 80.2263 67.5615 78.9055L66.8419 78.2111ZM63.0888 82.1666L63.8273 81.4923C61.8073 79.2798 59.8681 77.0902 58.0168 74.9371L57.2586 75.5891L56.5003 76.2411C58.3647 78.4093 60.3171 80.6137 62.3503 82.8408L63.0888 82.1666ZM57.2586 75.5891L57.5793 76.5363C60.2688 75.6256 63.0527 74.7283 65.9177 73.8523L65.6253 72.896L65.3329 71.9397C62.4491 72.8214 59.6464 73.7249 56.9379 74.6419L57.2586 75.5891ZM65.6253 72.896L66.602 72.6813C65.9628 69.773 65.3807 66.9245 64.8565 64.1507L63.8739 64.3364L62.8913 64.5221C63.4193 67.3159 64.0053 70.1836 64.6486 73.1106L65.6253 72.896ZM63.8739 64.3364L64.0676 63.3553C57.635 62.0849 51.5908 61.1254 46.1168 60.4912L46.0017 61.4845L45.8866 62.4779C51.3005 63.1052 57.2918 64.0558 63.6801 65.3174L63.8739 64.3364ZM46.0017 61.4845L46.8093 60.8948C41.9902 54.2956 38.4662 48.5011 36.5352 44.007C35.5676 41.7552 35.0248 39.8862 34.8931 38.4374C34.7601 36.9752 35.0573 36.1217 35.5317 35.6522L34.8282 34.9414L34.1248 34.2307C33.0393 35.305 32.7437 36.8849 32.9013 38.6185C33.0602 40.3656 33.6914 42.4549 34.6976 44.7966C36.7141 49.4894 40.3367 55.4227 45.1941 62.0743L46.0017 61.4845ZM102.314 46.7004L102.904 47.5075C109.533 42.6577 115.357 39.1088 119.873 37.1618C122.136 36.1862 124.015 35.6378 125.471 35.5031C126.941 35.3672 127.799 35.6647 128.27 36.1406L128.981 35.4372L129.691 34.7339C128.614 33.6449 127.028 33.3507 125.287 33.5116C123.533 33.6739 121.434 34.311 119.081 35.3252C114.367 37.3577 108.405 41.0052 101.723 45.8933L102.314 46.7004ZM128.981 35.4372L128.27 36.1405C128.738 36.6138 129.026 37.4672 128.88 38.9218C128.735 40.3633 128.177 42.2189 127.192 44.4517C125.226 48.9078 121.66 54.6426 116.796 61.1674L117.598 61.765L118.399 62.3627C123.302 55.7859 126.968 49.9133 129.021 45.259C130.046 42.9366 130.695 40.8614 130.87 39.1217C131.043 37.3951 130.763 35.8171 129.691 34.734L128.981 35.4372ZM117.598 61.765L117.491 60.7707C111.936 61.3645 105.788 62.2885 99.2383 63.5302L99.4246 64.5127L99.6108 65.4952C106.115 64.2621 112.209 63.3466 117.704 62.7594L117.598 61.765ZM99.4246 64.5127L98.4439 64.317C97.8958 67.0628 97.29 69.8799 96.6288 72.7545L97.6033 72.9787L98.5779 73.2029C99.2433 70.3102 99.8532 67.4741 100.405 64.7085L99.4246 64.5127ZM97.6033 72.9787L97.903 72.0247C96.2449 71.5038 94.5601 70.9901 92.8513 70.4841L92.5674 71.4429L92.2835 72.4018C93.9821 72.9048 95.6564 73.4153 97.3036 73.9328L97.6033 72.9787ZM92.5674 71.4429L93.5285 71.1669C93.0207 69.3987 92.5046 67.6558 91.9804 65.9414L91.0241 66.2338L90.0678 66.5262C90.5885 68.2292 91.1014 69.9611 91.6063 71.719L92.5674 71.4429ZM91.0241 66.2338L90.8095 65.2571C89.0524 65.6432 87.2741 66.0504 85.4777 66.4775L85.709 67.4504L85.9403 68.4233C87.726 67.9987 89.4932 67.5941 91.2388 67.2105L91.0241 66.2338ZM85.709 67.4504L85.0146 68.17C85.982 69.1035 86.9525 70.0509 87.9242 71.0121L88.6275 70.3012L89.3307 69.5902C88.3527 68.6228 87.3764 67.6697 86.4034 66.7308L85.709 67.4504ZM88.6275 70.3012L88.3555 71.2635C89.6776 71.6371 90.9869 72.0178 92.2835 72.4018L92.5674 71.4429L92.8513 70.4841C91.5484 70.0983 90.231 69.7152 88.8995 69.3389L88.6275 70.3012ZM92.5674 71.4429L91.6063 71.719C91.9806 73.0224 92.35 74.3402 92.7143 75.6711L93.6788 75.407L94.6433 75.143C94.2769 73.8044 93.9053 72.4786 93.5285 71.1669L92.5674 71.4429ZM93.6788 75.407L92.9605 76.1028C93.8624 77.0339 94.7521 77.9633 95.6288 78.89L96.3552 78.2027L97.0816 77.5154C96.1995 76.5831 95.3045 75.648 94.3971 74.7113L93.6788 75.407ZM96.3552 78.2027L97.3259 78.4432C97.7632 76.6782 98.1805 74.9304 98.5779 73.2029L97.6033 72.9787L96.6288 72.7545C96.2339 74.4712 95.8192 76.2081 95.3846 77.9622L96.3552 78.2027ZM97.6033 72.9787L97.3036 73.9328C100.235 74.8537 103.082 75.7958 105.829 76.7516L106.157 75.8071L106.486 74.8627C103.719 73.9 100.853 72.9516 97.903 72.0247L97.6033 72.9787ZM106.157 75.8071L105.406 75.1473C103.521 77.2934 101.547 79.4753 99.4914 81.6801L100.223 82.3621L100.954 83.044C103.023 80.825 105.011 78.6283 106.909 76.4669L106.157 75.8071ZM100.223 82.3621L100.961 81.6878C99.6984 80.3045 98.404 78.9131 97.0816 77.5154L96.3552 78.2027L95.6288 78.89C96.9436 80.2796 98.2299 81.6623 99.4843 83.0363L100.223 82.3621ZM96.3552 78.2027L95.3846 77.9622C95.0771 79.203 94.7614 80.4519 94.4346 81.7075L95.4023 81.9594L96.3701 82.2113C96.6992 80.9468 97.0169 79.6902 97.3259 78.4432L96.3552 78.2027ZM95.4023 81.9594L94.4327 82.2039C94.8006 83.6628 95.1551 85.1117 95.4968 86.5488L96.4697 86.3175L97.4426 86.0862C97.0988 84.6405 96.7421 83.1828 96.372 81.7149L95.4023 81.9594ZM96.4697 86.3175L95.7501 85.6231C94.7263 86.684 93.686 87.7487 92.629 88.8147L93.3391 89.5188L94.0492 90.2229C95.113 89.15 96.1597 88.0789 97.1893 87.0119L96.4697 86.3175ZM93.3391 89.5188L94.3007 89.7933C94.7046 88.3777 95.1045 86.9466 95.4964 85.501L94.5312 85.2394L93.5661 84.9777C93.1768 86.4135 92.7794 87.836 92.3775 89.2444L93.3391 89.5188ZM94.5312 85.2394L95.4964 85.501C95.7951 84.3991 96.0861 83.3022 96.3701 82.2113L95.4023 81.9594L94.4346 81.7075C94.1522 82.7924 93.8629 83.8827 93.5661 84.9777L94.5312 85.2394ZM95.4023 81.9594L96.372 81.7149C96.1127 80.6868 95.8478 79.6527 95.5753 78.614L94.608 78.8677L93.6408 79.1215C93.9113 80.1529 94.1746 81.1807 94.4327 82.2039L95.4023 81.9594ZM94.608 78.8677L95.5753 78.614C95.2692 77.447 94.9573 76.2899 94.6433 75.143L93.6788 75.407L92.7143 75.6711C93.0269 76.813 93.3369 77.963 93.6408 79.1215L94.608 78.8677ZM93.6788 75.407L94.3971 74.7113C93.57 73.8574 92.7329 73.0004 91.8847 72.1433L91.1739 72.8466L90.4631 73.55C91.3053 74.4011 92.1373 75.2529 92.9605 76.1028L93.6788 75.407ZM91.1739 72.8466L91.8847 72.1433C91.0324 71.2819 90.1807 70.4309 89.3307 69.5902L88.6275 70.3012L87.9242 71.0121C88.7694 71.8481 89.6161 72.6941 90.4631 73.55L91.1739 72.8466ZM88.6275 70.3012L88.8995 69.3389C87.7488 69.0137 86.5888 68.6935 85.4207 68.3769L85.159 69.342L84.8974 70.3072C86.0597 70.6223 87.2128 70.9405 88.3555 71.2635L88.6275 70.3012ZM85.159 69.342L85.4207 68.3769C84.2624 68.0629 83.1096 67.7571 81.9632 67.4593L81.7118 68.4272L81.4604 69.3951C82.6001 69.6911 83.7461 69.9951 84.8974 70.3072L85.159 69.342ZM81.7118 68.4272L81.9553 69.3971C83.2927 69.0614 84.6215 68.7368 85.9403 68.4233L85.709 67.4504L85.4777 66.4775C84.1508 66.793 82.8139 67.1196 81.4684 67.4573L81.7118 68.4272ZM85.709 67.4504L86.4034 66.7308C85.0746 65.4486 83.7513 64.1928 82.4355 62.9659L81.7535 63.6973L81.0716 64.4287C82.3787 65.6475 83.6938 66.8954 85.0146 68.17L85.709 67.4504ZM81.7535 63.6973L82.4278 64.4358C84.6403 62.4159 86.8299 60.4766 88.983 58.6253L88.331 57.8671L87.679 57.1088C85.5108 58.9732 83.3063 60.9256 81.0793 62.9588L81.7535 63.6973ZM88.331 57.8671L87.3838 58.1878C88.2945 60.8773 89.1918 63.6612 90.0678 66.5262L91.0241 66.2338L91.9804 65.9414C91.0987 63.0576 90.1953 60.2549 89.2782 57.5464L88.331 57.8671ZM91.0241 66.2338L91.2388 67.2105C94.0916 66.5835 96.887 66.0117 99.6108 65.4952L99.4246 64.5127L99.2383 63.5302C96.495 64.0503 93.6808 64.6261 90.8095 65.2571L91.0241 66.2338ZM99.4246 64.5127L100.405 64.7085C101.683 58.3095 102.654 52.2873 103.307 46.8189L102.314 46.7004L101.321 46.5818C100.675 51.9917 99.7124 57.962 98.4439 64.317L99.4246 64.5127ZM81.7118 68.4272L81.4684 67.4573C80.3197 67.7456 79.165 68.0424 78.005 68.3467L78.2587 69.314L78.5124 70.2812C79.6661 69.9786 80.8139 69.6836 81.9553 69.3971L81.7118 68.4272ZM78.2587 69.314L78.005 68.3467C76.8398 68.6523 75.6825 68.9617 74.5348 69.2758L74.7988 70.2403L75.0628 71.2049C76.2028 70.8928 77.3532 70.5853 78.5124 70.2812L78.2587 69.314ZM74.7988 70.2403L75.4945 70.9586C76.4757 70.0083 77.4545 69.0714 78.4303 68.1493L77.7435 67.4225L77.0567 66.6956C76.0746 67.6237 75.0898 68.5662 74.103 69.5221L74.7988 70.2403ZM77.7435 67.4225L77.5042 68.3934C78.8135 68.7162 80.1326 69.0502 81.4604 69.3951L81.7118 68.4272L81.9632 67.4593C80.6276 67.1124 79.3005 66.7763 77.9829 66.4515L77.7435 67.4225ZM117.598 61.765L117.704 62.7594C125.796 61.8945 132.548 61.7457 137.384 62.3226C139.807 62.6117 141.689 63.0763 143.003 63.6857C144.329 64.3007 144.917 64.9831 145.086 65.6271L146.054 65.3734L147.021 65.1196C146.634 63.6459 145.419 62.6013 143.844 61.8713C142.258 61.1358 140.142 60.6374 137.621 60.3367C132.57 59.7341 125.648 59.8989 117.491 60.7707L117.598 61.765ZM146.054 65.3734L145.086 65.6269C145.255 66.2693 145.079 67.1495 144.23 68.332C143.389 69.5041 141.985 70.8278 140.026 72.2645C136.115 75.1317 130.188 78.306 122.746 81.5165L123.142 82.4347L123.538 83.3529C131.04 80.1167 137.123 76.8729 141.208 73.8774C143.247 72.3827 144.839 70.9139 145.855 69.4981C146.863 68.0929 147.406 66.5899 147.021 65.1198L146.054 65.3734ZM123.142 82.4347L123.546 81.5197C118.474 79.2822 112.731 77.0358 106.486 74.8627L106.157 75.8071L105.829 76.7516C112.031 78.9096 117.723 81.1368 122.739 83.3496L123.142 82.4347ZM106.157 75.8071L106.909 76.4669C111.24 71.5339 115.105 66.7821 118.399 62.3627L117.598 61.765L116.796 61.1674C113.538 65.5381 109.707 70.2484 105.406 75.1473L106.157 75.8071ZM75.0196 57.6066L74.3605 58.3586C76.5639 60.29 78.8059 62.316 81.0716 64.4287L81.7535 63.6973L82.4355 62.9659C80.1551 60.8395 77.8979 58.7997 75.6788 56.8546L75.0196 57.6066ZM81.7535 63.6973L81.0793 62.9588C79.7458 64.1762 78.404 65.4225 77.0567 66.6956L77.7435 67.4225L78.4303 68.1493C79.7695 66.8839 81.1028 65.6454 82.4278 64.4358L81.7535 63.6973ZM77.7435 67.4225L77.9829 66.4515C76.115 65.9911 74.2667 65.5531 72.4416 65.1375L72.2196 66.1126L71.9976 67.0876C73.811 67.5005 75.6478 67.9358 77.5042 68.3934L77.7435 67.4225ZM72.2196 66.1126L73.1739 66.4112C74.0858 63.4975 75.0179 60.6669 75.9646 57.9339L75.0196 57.6066L74.0747 57.2793C73.1212 60.0321 72.1828 62.8818 71.2652 65.8139L72.2196 66.1126ZM64.7637 17.8671L65.0174 18.8344C65.6551 18.6671 66.5269 18.8392 67.6974 19.6725C68.8581 20.499 70.1693 21.8798 71.5931 23.8103C74.4348 27.6632 77.5816 33.5071 80.7683 40.853L81.6857 40.455L82.6031 40.0571C79.3906 32.6516 76.1736 26.6514 73.2027 22.6232C71.7202 20.6131 70.2629 19.0441 68.8574 18.0433C67.4616 17.0495 65.9695 16.517 64.5099 16.8999L64.7637 17.8671ZM81.6857 40.455L80.7703 40.0526C78.5184 45.1749 76.2586 50.9743 74.0747 57.2793L75.0196 57.6066L75.9646 57.9339C78.1335 51.6722 80.3739 45.9237 82.6011 40.8575L81.6857 40.455ZM75.0196 57.6066L75.6788 56.8546C70.8097 52.5867 66.1193 48.7753 61.7533 45.5204L61.1556 46.3222L60.5579 47.1239C64.8759 50.3429 69.5252 54.1204 74.3605 58.3586L75.0196 57.6066ZM61.1556 46.3222L62.1499 46.2159C61.2851 38.1238 61.1363 31.3726 61.7132 26.5364C62.0022 24.1132 62.4668 22.232 63.0762 20.9176C63.6911 19.5913 64.3734 19.0034 65.0174 18.8344L64.7637 17.8671L64.5099 16.8999C63.0362 17.2865 61.9917 18.5021 61.2617 20.0764C60.5262 21.6626 60.0279 23.779 59.7272 26.2996C59.1247 31.3509 59.2895 38.2717 60.1613 46.4284L61.1556 46.3222ZM99.0269 17.4797L98.7652 18.4448C99.4176 18.6217 100.106 19.2311 100.716 20.603C101.32 21.9609 101.768 23.9003 102.029 26.3925C102.552 31.3661 102.31 38.2965 101.321 46.5818L102.314 46.7004L103.307 46.8189C104.304 38.4692 104.563 31.3707 104.018 26.1835C103.746 23.5952 103.268 21.4212 102.543 19.7904C101.824 18.1736 100.781 16.9191 99.2885 16.5145L99.0269 17.4797ZM102.314 46.7004L101.723 45.8933C97.3198 49.1148 92.5899 52.8862 87.679 57.1088L88.331 57.8671L88.983 58.6253C93.8599 54.4318 98.5488 50.6938 102.904 47.5075L102.314 46.7004ZM88.331 57.8671L89.2782 57.5464C87.1058 51.1302 84.8515 45.2401 82.6031 40.0571L81.6857 40.455L80.7683 40.853C82.9916 45.9782 85.2265 51.8159 87.3838 58.1878L88.331 57.8671ZM81.6857 40.455L82.6011 40.8575C85.8882 33.3805 89.1295 27.4271 92.0458 23.5033C93.507 21.5372 94.8505 20.1305 96.0369 19.2899C97.2343 18.4415 98.1213 18.2703 98.7653 18.4448L99.0269 17.4797L99.2885 16.5145C97.8149 16.1151 96.3005 16.652 94.8806 17.658C93.4498 18.6719 91.9602 20.2657 90.4406 22.3103C87.3952 26.4078 84.0834 32.5161 80.7703 40.0526L81.6857 40.455Z" fill="#FF7518" mask="url(#path-3-inside-1_329_314)"/>
<circle cx="82.5" cy="82.5" r="42.5" fill="#A52A2A"/>
<circle cx="82.5" cy="82.5" r="34.5" fill="#A52A2A" stroke="#4B0082" stroke-width="3" stroke-miterlimit="2.3662" stroke-dasharray="2 2"/>
<circle cx="82" cy="82" r="27" fill="#A52A2A" stroke="#4B0082" stroke-width="3" stroke-miterlimit="2.3662" stroke-dasharray="2 2"/>
<circle cx="82" cy="82" r="20" fill="#A52A2A" stroke="#4B0082" stroke-width="3" stroke-miterlimit="2.3662" stroke-dasharray="2 2"/>
<circle cx="82" cy="82" r="15.5" fill="#4B0082" stroke="#A52A2A"/>
<path d="M81.916 87.6943C82.7268 88.8961 83.5245 89.9884 84.2832 90.9414C83.7435 94.5198 82.8834 96.8307 81.9092 96.833C80.9382 96.8346 80.0702 94.5424 79.5137 90.9863C80.283 90.0228 81.0925 88.9149 81.916 87.6943ZM78.875 81.9238C78.8757 82.2047 78.8781 82.4837 78.8818 82.7607C79.0249 83.0154 79.1702 83.2717 79.3184 83.5283C79.4532 83.7618 79.5891 83.9927 79.7246 84.2217C79.953 84.3568 80.1842 84.4915 80.417 84.626C80.6512 84.7612 80.8846 84.8944 81.1172 85.0254C81.3841 85.0276 81.6533 85.029 81.9238 85.0283C82.1918 85.0277 82.4582 85.0249 82.7227 85.0215C82.4527 85.1736 82.1833 85.3216 81.916 85.4678C82.278 85.6658 82.6373 85.8581 82.9932 86.0449C82.6332 86.6144 82.2732 87.1649 81.916 87.6943C81.5588 87.1649 81.1989 86.6143 80.8389 86.0449C80.235 86.3619 79.6414 86.6634 79.0605 86.9463C79.1695 88.4129 79.3238 89.7731 79.5137 90.9863C77.2309 93.8454 75.3072 95.4366 74.458 94.9463C73.6085 94.4556 74.0243 91.9918 75.3604 88.583C76.5007 88.1361 77.7469 87.5862 79.0605 86.9463C79.0131 86.3081 78.9741 85.6497 78.9443 84.9746C79.3567 84.9905 79.7753 85.0029 80.1992 85.0117C80.4125 85.3622 80.6253 85.7071 80.8389 86.0449C81.1947 85.8581 81.554 85.6658 81.916 85.4678C81.6513 85.323 81.3846 85.176 81.1172 85.0254C80.8086 85.0228 80.5025 85.018 80.1992 85.0117C80.0409 84.7516 79.8824 84.4883 79.7246 84.2217C79.4464 84.0571 79.1725 83.8908 78.9014 83.7256C78.9126 84.1476 78.9262 84.5642 78.9443 84.9746C78.2805 84.9491 77.6326 84.9138 77.0039 84.8711C77.2851 84.2941 77.5837 83.7042 77.8984 83.1045C78.2265 83.3119 78.5614 83.5184 78.9014 83.7256C78.8929 83.407 78.8862 83.0852 78.8818 82.7607C78.7439 82.5152 78.6086 82.2706 78.4756 82.0273C78.6067 81.7876 78.7401 81.5466 78.876 81.3047C78.8748 81.51 78.8745 81.7165 78.875 81.9238ZM84.7129 86.917C86.0481 87.5691 87.3143 88.1294 88.4717 88.583C89.8078 91.9919 90.2245 94.4556 89.375 94.9463C88.5213 95.4392 86.5818 93.8289 84.2832 90.9414C84.4657 89.7314 84.6117 88.3766 84.7129 86.917ZM72.9404 84.4443C74.1623 84.627 75.5305 84.7711 77.0039 84.8711C76.3615 86.1891 75.8087 87.4391 75.3604 88.583C71.9517 89.9189 69.4885 90.3359 68.998 89.4863C68.509 88.6388 70.0924 86.721 72.9404 84.4443ZM85.9346 80.9512C86.5033 81.3108 87.0531 81.6705 87.582 82.0273C87.0528 82.3844 86.5028 82.7446 85.9336 83.1045C86.2445 83.6967 86.5392 84.2795 86.8174 84.8496C88.2781 84.7442 89.6355 84.5958 90.8496 84.4102C93.7247 86.7018 95.3266 88.6345 94.835 89.4863C94.3444 90.336 91.8807 89.9192 88.4717 88.583C88.0209 87.4329 87.4643 86.1756 86.8174 84.8496C86.1701 84.8963 85.5027 84.9352 84.8184 84.9639C84.8338 84.5721 84.8454 84.1748 84.8545 83.7725C84.6082 83.9221 84.3595 84.0726 84.1074 84.2217C84.243 83.9925 84.3798 83.7619 84.5146 83.5283C84.6348 83.3203 84.7524 83.112 84.8691 82.9053C84.866 83.1967 84.861 83.4858 84.8545 83.7725C85.2209 83.5498 85.581 83.3274 85.9336 83.1045C85.7468 82.7487 85.5544 82.3893 85.3564 82.0273C85.5544 81.6655 85.7478 81.3069 85.9346 80.9512ZM84.8184 84.9639C84.792 85.6324 84.7567 86.2845 84.7129 86.917C84.1508 86.6425 83.5767 86.3512 82.9932 86.0449C83.2086 85.7042 83.4235 85.3565 83.6387 85.0029C84.0369 84.9928 84.4303 84.9801 84.8184 84.9639ZM84.1074 84.2217C83.9515 84.4852 83.7952 84.7457 83.6387 85.0029C83.336 85.0106 83.0306 85.0175 82.7227 85.0215C82.953 84.8918 83.1841 84.7599 83.416 84.626C83.6486 84.4917 83.8793 84.3567 84.1074 84.2217ZM72.9824 79.6445C73.9402 80.408 75.0397 81.2108 76.25 82.0273C75.0219 82.8559 73.9081 83.6708 72.9404 84.4443C69.3342 83.9052 67.0023 83.0411 67 82.0625C66.9984 81.0792 69.3489 80.2001 72.9824 79.6445ZM90.8906 79.6113C94.4979 80.1505 96.8307 81.0144 96.833 81.9932C96.8353 82.9767 94.484 83.8545 90.8496 84.4102C89.8918 83.6467 88.7923 82.8438 87.582 82.0273C88.8097 81.1991 89.9232 80.3846 90.8906 79.6113ZM68.999 74.5693C69.4902 73.7205 71.9527 74.1362 75.3604 75.4717C75.8111 76.6218 76.3678 77.8791 77.0146 79.2051C77.6329 79.1604 78.2696 79.1229 78.9219 79.0947C78.9071 79.5031 78.8956 79.9174 78.8877 80.3369C79.1627 80.1693 79.4414 80.0019 79.7236 79.835C79.5883 80.0637 79.453 80.2951 79.3184 80.5283C79.1684 80.7881 79.0207 81.0469 78.876 81.3047C78.8779 80.9793 78.8816 80.6566 78.8877 80.3369C78.5522 80.5415 78.2223 80.7464 77.8984 80.9512C78.0851 81.3068 78.2777 81.6656 78.4756 82.0273C78.2776 82.3893 78.0852 82.7487 77.8984 83.1045C77.3293 82.7446 76.7792 82.3844 76.25 82.0273C76.7791 81.6704 77.3294 81.3109 77.8984 80.9512C77.5874 80.3587 77.2929 79.7754 77.0146 79.2051C75.554 79.3105 74.1965 79.4589 72.9824 79.6445C70.1081 77.3532 68.5073 75.421 68.999 74.5693ZM84.2773 73.1211C86.5783 70.2293 88.5206 68.6171 89.375 69.1104C90.2241 69.6013 89.8073 72.0636 88.4717 75.4717C87.3123 75.9261 86.0439 76.488 84.7061 77.1416C84.7501 77.7694 84.7854 78.416 84.8125 79.0781C84.4248 79.0637 84.0317 79.0522 83.6338 79.0439C83.4202 78.6931 83.207 78.3479 82.9932 78.0098C82.6373 78.1966 82.278 78.3889 81.916 78.5869C82.1812 78.7319 82.448 78.8795 82.7158 79.0303C83.0244 79.0329 83.3305 79.0376 83.6338 79.0439C83.7923 79.3043 83.9505 79.5681 84.1084 79.835C84.3593 79.9834 84.6074 80.1323 84.8525 80.2813C84.8427 79.8751 84.8287 79.4738 84.8125 79.0781C85.5026 79.1039 86.1757 79.1393 86.8281 79.1836C86.5469 79.7607 86.2494 80.3514 85.9346 80.9512C85.581 80.7276 85.2199 80.5045 84.8525 80.2813C84.8595 80.5683 84.8655 80.8577 84.8691 81.1494C85.0352 81.4435 85.1973 81.7365 85.3564 82.0273C85.1973 82.3182 85.0352 82.6112 84.8691 82.9053C84.8727 82.5762 84.8758 82.2438 84.875 81.9092C84.8744 81.6544 84.8723 81.4011 84.8691 81.1494C84.7526 80.9431 84.6345 80.7359 84.5146 80.5283C84.3799 80.2949 84.2438 80.0639 84.1084 79.835C83.88 79.6998 83.6498 79.5641 83.417 79.4297C83.1826 79.2944 82.9486 79.1613 82.7158 79.0303C82.4488 79.028 82.1797 79.0277 81.9092 79.0283C81.6409 79.029 81.3742 79.0307 81.1094 79.0342C81.3795 78.882 81.6486 78.7332 81.916 78.5869C81.554 78.3889 81.1947 78.1966 80.8389 78.0098C81.1987 77.4406 81.559 76.8906 81.916 76.3613C82.2731 76.8906 82.6333 77.4406 82.9932 78.0098C83.5742 77.7048 84.1462 77.4151 84.7061 77.1416C84.6041 75.6881 84.4586 74.335 84.2773 73.1211ZM81.1094 79.0342C80.8791 79.1639 80.6478 79.2958 80.416 79.4297C80.1829 79.5643 79.9523 79.6997 79.7236 79.835C79.8799 79.5708 80.0365 79.3096 80.1934 79.0518C80.496 79.0441 80.8015 79.0382 81.1094 79.0342ZM88.4717 75.4717C91.8805 74.1357 94.3444 73.7207 94.835 74.5703C95.3233 75.4182 93.7388 77.3348 90.8906 79.6113C89.669 79.4287 88.3011 79.2836 86.8281 79.1836C87.4705 77.8655 88.0234 76.6156 88.4717 75.4717ZM79.0244 77.0918C79.6166 77.3798 80.2226 77.6863 80.8389 78.0098C80.6235 78.3505 80.4085 78.6982 80.1934 79.0518C79.7637 79.0627 79.3396 79.0767 78.9219 79.0947C78.9467 78.4093 78.9813 77.7405 79.0244 77.0918ZM74.458 69.1104C75.2994 68.6246 77.1951 70.1817 79.4502 72.9912C79.2675 74.2245 79.1232 75.6053 79.0244 77.0918C77.7239 76.4594 76.4904 75.9145 75.3604 75.4717C74.0248 72.0638 73.6089 69.6013 74.458 69.1104ZM81.8398 67C82.8357 66.9977 83.723 69.4085 84.2773 73.1211C83.5203 74.0725 82.7248 75.1625 81.916 76.3613C81.07 75.1074 80.2382 73.9729 79.4502 72.9912C79.9888 69.3561 80.8567 67.0023 81.8398 67Z" fill="#A52A2A"/>
</svg>
