<svg width="164" height="164" viewBox="0 0 164 164" fill="none" xmlns="http://www.w3.org/2000/svg">
<path d="M82 106.405C85.4243 111.481 88.7929 116.094 91.9971 120.119C89.7178 135.231 86.086 144.99 81.9717 145C77.8703 145.01 74.2025 135.329 71.8516 120.309C75.1009 116.239 78.5218 111.561 82 106.405ZM93.8106 103.122C99.4498 105.876 104.798 108.24 109.687 110.156C115.33 124.554 117.089 134.958 113.501 137.03C109.896 139.112 101.704 132.313 91.9971 120.119C92.7678 115.009 93.3833 109.287 93.8106 103.122ZM69.1582 79.418C69.1531 80.284 69.1513 81.1546 69.1533 82.0293C69.1561 83.2156 69.1659 84.3943 69.1816 85.5645C69.7861 86.6404 70.4013 87.7213 71.0274 88.8057C71.5956 89.7899 72.1661 90.765 72.7373 91.7305C73.704 92.3024 74.6796 92.8744 75.665 93.4434C76.6545 94.0146 77.6415 94.5766 78.624 95.1299C79.7518 95.1393 80.8876 95.1443 82.0303 95.1416C83.1622 95.139 84.2871 95.1287 85.4043 95.1143C84.2642 95.7565 83.1287 96.3856 82 97.0029C83.5285 97.839 85.0454 98.6517 86.5479 99.4404C85.0277 101.845 83.5083 104.17 82 106.405C80.492 104.17 78.973 101.845 77.4531 99.4414C74.9028 100.78 72.3935 102.048 69.9404 103.243C70.4005 109.438 71.0495 115.184 71.8516 120.309C62.2109 132.383 54.0877 139.1 50.501 137.03C46.9126 134.959 48.6703 124.554 54.3135 110.156C59.1298 108.269 64.3926 105.946 69.9404 103.243C69.7403 100.548 69.5751 97.7679 69.4492 94.917C71.1893 94.9838 72.9553 95.036 74.7441 95.0732C75.6464 96.5556 76.5498 98.0126 77.4531 99.4414C78.9555 98.6528 80.4717 97.8389 82 97.0029C80.8806 96.3907 79.7547 95.7666 78.624 95.1299C77.3198 95.119 76.0261 95.0999 74.7441 95.0732C74.0743 93.9727 73.4046 92.8584 72.7373 91.7305C71.5648 91.0367 70.4066 90.341 69.2637 89.6445C69.311 91.426 69.3727 93.1846 69.4492 94.917C66.6437 94.8092 63.9059 94.6628 61.249 94.4824C62.4374 92.0441 63.699 89.5509 65.0293 87.0166C66.4152 87.8928 67.8274 88.7693 69.2637 89.6445C69.2279 88.2972 69.2001 86.9367 69.1816 85.5645C68.5996 84.5284 68.0283 83.4963 67.4668 82.4697C68.0206 81.4573 68.5844 80.4397 69.1582 79.418ZM44.0908 92.6748C49.2504 93.4462 55.0275 94.06 61.249 94.4824C58.537 100.047 56.2065 105.326 54.3135 110.156C39.9157 115.799 29.5122 117.559 27.4404 113.971C25.3738 110.391 32.0606 102.291 44.0908 92.6748ZM98.9717 77.9219C101.376 79.4419 103.7 80.9616 105.936 82.4697C103.7 83.9779 101.376 85.4976 98.9717 87.0176C100.285 89.5203 101.532 91.9832 102.707 94.3926C108.875 93.9473 114.606 93.317 119.732 92.5332C131.874 102.212 138.637 110.374 136.561 113.971C134.488 117.559 124.085 115.8 109.687 110.156C107.783 105.3 105.438 99.9906 102.707 94.3926C99.9718 94.5901 97.1509 94.7519 94.2588 94.8731C94.3242 93.2185 94.3764 91.5401 94.415 89.8408C93.3763 90.472 92.3257 91.1035 91.2627 91.7324C91.8343 90.7663 92.405 89.7906 92.9736 88.8057C93.4817 87.9257 93.9817 87.0474 94.4756 86.1729C94.4621 87.4055 94.4426 88.6285 94.415 89.8408C95.9624 88.9005 97.4824 87.9592 98.9717 87.0176C98.1829 85.515 97.3693 83.9983 96.5332 82.4697C97.3693 80.9411 98.1829 79.4245 98.9717 77.9219ZM94.2588 94.8731C94.1472 97.6966 93.9957 100.451 93.8106 103.122C91.4369 101.963 89.0119 100.734 86.5479 99.4404C87.4579 98.0011 88.3685 96.5337 89.2774 95.04C90.9589 94.9974 92.6202 94.9417 94.2588 94.8731ZM91.2627 91.7324C90.6025 92.8483 89.9401 93.9509 89.2774 95.04C87.9976 95.0725 86.7062 95.0974 85.4043 95.1143C86.3778 94.5659 87.3557 94.0093 88.3359 93.4434C89.3209 92.8747 90.2966 92.304 91.2627 91.7324ZM44.2695 72.4072C48.3137 75.6308 52.9547 79.0223 58.0645 82.4697C52.8794 85.968 48.1768 89.4087 44.0908 92.6748C28.8596 90.3976 19.01 86.7514 19 82.6182C18.9903 78.4644 28.9201 74.7539 44.2695 72.4072ZM119.909 72.2647C135.141 74.5419 144.991 78.1898 145.001 82.3232C145.011 86.4769 135.081 90.1865 119.732 92.5332C115.688 89.3092 111.046 85.9176 105.936 82.4697C111.121 78.9714 115.823 75.5308 119.909 72.2647ZM27.4414 50.9697C29.5138 47.382 39.9167 49.1406 54.3135 54.7832C56.2166 59.639 58.5622 64.9489 61.293 70.5469C63.9058 70.3582 66.5969 70.2022 69.3535 70.083C69.291 71.8075 69.2425 73.5569 69.209 75.3281C70.3704 74.6201 71.5472 73.9123 72.7393 73.207C72.1674 74.1735 71.5962 75.1495 71.0274 76.1348C70.3931 77.2332 69.7703 78.3281 69.1582 79.418C69.1663 78.0429 69.1834 76.6792 69.209 75.3281C67.7916 76.1922 66.3974 77.0569 65.0293 77.9219C65.818 79.4244 66.6308 80.9413 67.4668 82.4697C66.6309 83.9979 65.8179 85.5144 65.0293 87.0166C62.6251 85.4965 60.2999 83.9779 58.0645 82.4697C60.3 80.9614 62.625 79.442 65.0293 77.9219C63.7155 75.419 62.4684 72.9564 61.293 70.5469C55.1262 70.9922 49.3956 71.6235 44.2695 72.4072C32.1275 62.7288 25.3646 54.5669 27.4414 50.9697ZM91.9736 44.8496C101.691 32.6375 109.893 25.8272 113.501 27.9102C117.089 29.9819 115.33 40.3854 109.687 54.7832C104.791 56.7019 99.4343 59.0698 93.7861 61.8291C93.9723 64.4819 94.1226 67.2139 94.2373 70.0117C92.599 69.9505 90.938 69.9022 89.2568 69.8672C88.3545 68.3847 87.4504 66.928 86.5469 65.499C85.0447 66.2876 83.5282 67.1007 82 67.9365C83.1196 68.5489 84.246 69.1727 85.377 69.8096C86.6812 69.8205 87.9748 69.8405 89.2568 69.8672C89.9263 70.9671 90.5957 72.0807 91.2627 73.208C92.3212 73.8343 93.3679 74.4623 94.4024 75.0908C94.3609 73.3762 94.3058 71.6822 94.2373 70.0117C97.152 70.1206 99.9946 70.271 102.75 70.458C101.562 72.8956 100.302 75.3884 98.9717 77.9219C97.4783 76.9777 95.9541 76.0337 94.4024 75.0908C94.4317 76.3035 94.4554 77.5264 94.4707 78.7588C95.173 80.0022 95.8605 81.2398 96.5332 82.4697C95.8619 83.697 95.1763 84.9321 94.4756 86.1729C94.4907 84.7837 94.4984 83.382 94.4951 81.9697C94.4926 80.8929 94.4839 79.8224 94.4707 78.7588C93.9785 77.8872 93.48 77.0117 92.9736 76.1348C92.405 75.1498 91.8343 74.1741 91.2627 73.208C90.2966 72.6364 89.3208 72.0657 88.3359 71.4971C87.3463 70.9257 86.3597 70.363 85.377 69.8096C84.2492 69.8001 83.1134 69.7971 81.9707 69.7998C80.8385 69.8025 79.7132 69.8117 78.5957 69.8262C79.736 69.1839 80.8712 68.5539 82 67.9365C80.4715 67.1005 78.9546 66.2877 77.4522 65.499C78.9723 63.0947 80.4917 60.7697 82 58.5342C83.5082 60.7696 85.0268 63.0949 86.5469 65.499C89.0027 64.2099 91.42 62.9851 93.7861 61.8291C93.3554 55.6906 92.7392 49.9763 91.9736 44.8496ZM78.5957 69.8262C77.6224 70.3744 76.6451 70.9312 75.665 71.4971C74.6805 72.0655 73.705 72.6357 72.7393 73.207C73.3992 72.0917 74.0603 70.989 74.7227 69.9004C76.0024 69.8679 77.2938 69.843 78.5957 69.8262ZM109.687 54.7832C124.084 49.14 134.489 47.3823 136.561 50.9707C138.627 54.5505 131.939 62.6488 119.909 72.2647C114.749 71.4933 108.972 70.8804 102.75 70.458C105.462 64.8926 107.793 59.6134 109.687 54.7832ZM69.7861 61.6211C72.2882 62.8378 74.8484 64.1323 77.4522 65.499C76.542 66.9385 75.6316 68.4065 74.7227 69.9004C72.9084 69.9464 71.1175 70.0068 69.3535 70.083C69.4585 67.1871 69.604 64.3616 69.7861 61.6211ZM50.5 27.9111C54.0537 25.8594 62.062 32.4354 71.5869 44.3018C70.815 49.5107 70.2035 55.3427 69.7861 61.6211C64.2951 58.9508 59.0851 56.6534 54.3135 54.7832C48.6709 40.3865 46.9124 29.9836 50.5 27.9111ZM81.6768 19C85.8826 18.9902 89.6323 29.1704 91.9736 44.8496C88.7765 48.8677 85.416 53.4711 82 58.5342C78.4275 53.2391 74.9147 48.4476 71.5869 44.3018C73.8619 28.95 77.5244 19.01 81.6768 19Z" fill="#F2A72D"/>
<path d="M82 106.405C85.4243 111.481 88.7929 116.094 91.9971 120.119C89.7178 135.231 86.086 144.99 81.9717 145C77.8703 145.01 74.2025 135.329 71.8516 120.309C75.1009 116.239 78.5218 111.561 82 106.405ZM93.8106 103.122C99.4498 105.876 104.798 108.24 109.687 110.156C115.33 124.554 117.089 134.958 113.501 137.03C109.896 139.112 101.704 132.313 91.9971 120.119C92.7678 115.009 93.3833 109.287 93.8106 103.122ZM69.1582 79.418C69.1531 80.284 69.1513 81.1546 69.1533 82.0293C69.1561 83.2156 69.1659 84.3943 69.1816 85.5645C69.7861 86.6404 70.4013 87.7213 71.0274 88.8057C71.5956 89.7899 72.1661 90.765 72.7373 91.7305C73.704 92.3024 74.6796 92.8744 75.665 93.4434C76.6545 94.0146 77.6415 94.5766 78.624 95.1299C79.7518 95.1393 80.8876 95.1443 82.0303 95.1416C83.1622 95.139 84.2871 95.1287 85.4043 95.1143C84.2642 95.7565 83.1287 96.3856 82 97.0029C83.5285 97.839 85.0454 98.6517 86.5479 99.4404C85.0277 101.845 83.5083 104.17 82 106.405C80.492 104.17 78.973 101.845 77.4531 99.4414C74.9028 100.78 72.3935 102.048 69.9404 103.243C70.4005 109.438 71.0495 115.184 71.8516 120.309C62.2109 132.383 54.0877 139.1 50.501 137.03C46.9126 134.959 48.6703 124.554 54.3135 110.156C59.1298 108.269 64.3926 105.946 69.9404 103.243C69.7403 100.548 69.5751 97.7679 69.4492 94.917C71.1893 94.9838 72.9553 95.036 74.7441 95.0732C75.6464 96.5556 76.5498 98.0126 77.4531 99.4414C78.9555 98.6528 80.4717 97.8389 82 97.0029C80.8806 96.3907 79.7547 95.7666 78.624 95.1299C77.3198 95.119 76.0261 95.0999 74.7441 95.0732C74.0743 93.9727 73.4046 92.8584 72.7373 91.7305C71.5648 91.0367 70.4066 90.341 69.2637 89.6445C69.311 91.426 69.3727 93.1846 69.4492 94.917C66.6437 94.8092 63.9059 94.6628 61.249 94.4824C62.4374 92.0441 63.699 89.5509 65.0293 87.0166C66.4152 87.8928 67.8274 88.7693 69.2637 89.6445C69.2279 88.2972 69.2001 86.9367 69.1816 85.5645C68.5996 84.5284 68.0283 83.4963 67.4668 82.4697C68.0206 81.4573 68.5844 80.4397 69.1582 79.418ZM44.0908 92.6748C49.2504 93.4462 55.0275 94.06 61.249 94.4824C58.537 100.047 56.2065 105.326 54.3135 110.156C39.9157 115.799 29.5122 117.559 27.4404 113.971C25.3738 110.391 32.0606 102.291 44.0908 92.6748ZM98.9717 77.9219C101.376 79.4419 103.7 80.9616 105.936 82.4697C103.7 83.9779 101.376 85.4976 98.9717 87.0176C100.285 89.5203 101.532 91.9832 102.707 94.3926C108.875 93.9473 114.606 93.317 119.732 92.5332C131.874 102.212 138.637 110.374 136.561 113.971C134.488 117.559 124.085 115.8 109.687 110.156C107.783 105.3 105.438 99.9906 102.707 94.3926C99.9718 94.5901 97.1509 94.7519 94.2588 94.8731C94.3242 93.2185 94.3764 91.5401 94.415 89.8408C93.3763 90.472 92.3257 91.1035 91.2627 91.7324C91.8343 90.7663 92.405 89.7906 92.9736 88.8057C93.4817 87.9257 93.9817 87.0474 94.4756 86.1729C94.4621 87.4055 94.4426 88.6285 94.415 89.8408C95.9624 88.9005 97.4824 87.9592 98.9717 87.0176C98.1829 85.515 97.3693 83.9983 96.5332 82.4697C97.3693 80.9411 98.1829 79.4245 98.9717 77.9219ZM94.2588 94.8731C94.1472 97.6966 93.9957 100.451 93.8106 103.122C91.4369 101.963 89.0119 100.734 86.5479 99.4404C87.4579 98.0011 88.3685 96.5337 89.2774 95.04C90.9589 94.9974 92.6202 94.9417 94.2588 94.8731ZM91.2627 91.7324C90.6025 92.8483 89.9401 93.9509 89.2774 95.04C87.9976 95.0725 86.7062 95.0974 85.4043 95.1143C86.3778 94.5659 87.3557 94.0093 88.3359 93.4434C89.3209 92.8747 90.2966 92.304 91.2627 91.7324ZM44.2695 72.4072C48.3137 75.6308 52.9547 79.0223 58.0645 82.4697C52.8794 85.968 48.1768 89.4087 44.0908 92.6748C28.8596 90.3976 19.01 86.7514 19 82.6182C18.9903 78.4644 28.9201 74.7539 44.2695 72.4072ZM119.909 72.2647C135.141 74.5419 144.991 78.1898 145.001 82.3232C145.011 86.4769 135.081 90.1865 119.732 92.5332C115.688 89.3092 111.046 85.9176 105.936 82.4697C111.121 78.9714 115.823 75.5308 119.909 72.2647ZM27.4414 50.9697C29.5138 47.382 39.9167 49.1406 54.3135 54.7832C56.2166 59.639 58.5622 64.9489 61.293 70.5469C63.9058 70.3582 66.5969 70.2022 69.3535 70.083C69.291 71.8075 69.2425 73.5569 69.209 75.3281C70.3704 74.6201 71.5472 73.9123 72.7393 73.207C72.1674 74.1735 71.5962 75.1495 71.0274 76.1348C70.3931 77.2332 69.7703 78.3281 69.1582 79.418C69.1663 78.0429 69.1834 76.6792 69.209 75.3281C67.7916 76.1922 66.3974 77.0569 65.0293 77.9219C65.818 79.4244 66.6308 80.9413 67.4668 82.4697C66.6309 83.9979 65.8179 85.5144 65.0293 87.0166C62.6251 85.4965 60.2999 83.9779 58.0645 82.4697C60.3 80.9614 62.625 79.442 65.0293 77.9219C63.7155 75.419 62.4684 72.9564 61.293 70.5469C55.1262 70.9922 49.3956 71.6235 44.2695 72.4072C32.1275 62.7288 25.3646 54.5669 27.4414 50.9697ZM91.9736 44.8496C101.691 32.6375 109.893 25.8272 113.501 27.9102C117.089 29.9819 115.33 40.3854 109.687 54.7832C104.791 56.7019 99.4343 59.0698 93.7861 61.8291C93.9723 64.4819 94.1226 67.2139 94.2373 70.0117C92.599 69.9505 90.938 69.9022 89.2568 69.8672C88.3545 68.3847 87.4504 66.928 86.5469 65.499C85.0447 66.2876 83.5282 67.1007 82 67.9365C83.1196 68.5489 84.246 69.1727 85.377 69.8096C86.6812 69.8205 87.9748 69.8405 89.2568 69.8672C89.9263 70.9671 90.5957 72.0807 91.2627 73.208C92.3212 73.8343 93.3679 74.4623 94.4024 75.0908C94.3609 73.3762 94.3058 71.6822 94.2373 70.0117C97.152 70.1206 99.9946 70.271 102.75 70.458C101.562 72.8956 100.302 75.3884 98.9717 77.9219C97.4783 76.9777 95.9541 76.0337 94.4024 75.0908C94.4317 76.3035 94.4554 77.5264 94.4707 78.7588C95.173 80.0022 95.8605 81.2398 96.5332 82.4697C95.8619 83.697 95.1763 84.9321 94.4756 86.1729C94.4907 84.7837 94.4984 83.382 94.4951 81.9697C94.4926 80.8929 94.4839 79.8224 94.4707 78.7588C93.9785 77.8872 93.48 77.0117 92.9736 76.1348C92.405 75.1498 91.8343 74.1741 91.2627 73.208C90.2966 72.6364 89.3208 72.0657 88.3359 71.4971C87.3463 70.9257 86.3597 70.363 85.377 69.8096C84.2492 69.8001 83.1134 69.7971 81.9707 69.7998C80.8385 69.8025 79.7132 69.8117 78.5957 69.8262C79.736 69.1839 80.8712 68.5539 82 67.9365C80.4715 67.1005 78.9546 66.2877 77.4522 65.499C78.9723 63.0947 80.4917 60.7697 82 58.5342C83.5082 60.7696 85.0268 63.0949 86.5469 65.499C89.0027 64.2099 91.42 62.9851 93.7861 61.8291C93.3554 55.6906 92.7392 49.9763 91.9736 44.8496ZM78.5957 69.8262C77.6224 70.3744 76.6451 70.9312 75.665 71.4971C74.6805 72.0655 73.705 72.6357 72.7393 73.207C73.3992 72.0917 74.0603 70.989 74.7227 69.9004C76.0024 69.8679 77.2938 69.843 78.5957 69.8262ZM109.687 54.7832C124.084 49.14 134.489 47.3823 136.561 50.9707C138.627 54.5505 131.939 62.6488 119.909 72.2647C114.749 71.4933 108.972 70.8804 102.75 70.458C105.462 64.8926 107.793 59.6134 109.687 54.7832ZM69.7861 61.6211C72.2882 62.8378 74.8484 64.1323 77.4522 65.499C76.542 66.9385 75.6316 68.4065 74.7227 69.9004C72.9084 69.9464 71.1175 70.0068 69.3535 70.083C69.4585 67.1871 69.604 64.3616 69.7861 61.6211ZM50.5 27.9111C54.0537 25.8594 62.062 32.4354 71.5869 44.3018C70.815 49.5107 70.2035 55.3427 69.7861 61.6211C64.2951 58.9508 59.0851 56.6534 54.3135 54.7832C48.6709 40.3865 46.9124 29.9836 50.5 27.9111ZM81.6768 19C85.8826 18.9902 89.6323 29.1704 91.9736 44.8496C88.7765 48.8677 85.416 53.4711 82 58.5342C78.4275 53.2391 74.9147 48.4476 71.5869 44.3018C73.8619 28.95 77.5244 19.01 81.6768 19Z" fill="#F2A72D"/>
<mask id="path-3-inside-1_316_192" fill="white">
<path d="M74.9794 106.662C77.0542 112.79 79.2012 118.432 81.3447 123.428C74.8069 138.196 68.3831 147.13 64.1867 145.993C60.0036 144.859 58.9648 133.969 60.7573 118.004C65.2044 114.762 69.996 110.947 74.9794 106.662ZM69.4166 75.5718C69.1699 76.4532 68.9245 77.3399 68.6826 78.2322C68.3547 79.4419 68.0353 80.646 67.7251 81.8428C68.0412 83.1084 68.3672 84.3819 68.703 85.6621C69.0079 86.8244 69.3172 87.9783 69.6304 89.1223C70.4559 89.9745 71.2916 90.8287 72.1371 91.6832C72.9868 92.5418 73.836 93.3903 74.6836 94.2287C75.8299 94.5526 76.9859 94.8727 78.1509 95.1885C79.3056 95.5015 80.4552 95.8055 81.5983 96.1023C80.257 96.439 78.9241 96.7637 77.6014 97.0782C78.9262 98.3566 80.2454 99.6084 81.5568 100.831C79.337 102.858 77.14 104.804 74.9794 106.662C74.0655 103.962 73.1651 101.169 72.2862 98.2948C69.3131 98.9482 66.4016 99.5418 63.5677 100.076C62.309 106.518 61.3689 112.557 60.7573 118.004C47.5636 127.622 37.4101 132.203 34.3315 129.093C31.2516 125.98 35.9444 115.866 45.7115 102.764C51.1471 102.183 57.1593 101.283 63.5677 100.076C64.1154 97.2726 64.7229 94.3929 65.3896 91.4519C67.1444 92.0052 68.93 92.5499 70.7427 93.0866C71.249 94.8494 71.7639 96.5864 72.2862 98.2948C74.0376 97.9099 75.8103 97.5041 77.6014 97.0782C76.6315 96.1423 75.6581 95.1927 74.6836 94.2287C73.3564 93.8536 72.0428 93.4716 70.7427 93.0866C70.3671 91.7789 69.9958 90.4572 69.6304 89.1223C68.6282 88.0877 67.642 87.0544 66.6708 86.0254C66.2222 87.8546 65.7948 89.6645 65.3896 91.4519C62.5603 90.5597 59.8106 89.6472 57.1529 88.7224C59.0441 86.5685 61.0249 84.3787 63.0876 82.1666C64.2557 83.4461 65.451 84.7328 66.6708 86.0254C67.0102 84.6418 67.3612 83.247 67.7251 81.8428C67.4208 80.6247 67.1266 79.4137 66.8407 78.2111C67.6877 77.3334 68.5466 76.4534 69.4166 75.5718ZM87.9337 106.61C92.9135 110.99 97.7055 114.891 102.154 118.207C103.89 134.457 102.782 145.551 98.5465 146.662C94.291 147.778 87.8385 138.565 81.3447 123.428C83.5554 118.434 85.7791 112.774 87.9337 106.61ZM40.167 82.0946C45.2112 84.3199 50.9288 86.5567 57.1529 88.7224C52.8364 93.6385 48.988 98.3691 45.7115 102.764C29.4628 104.501 18.3686 103.392 17.2571 99.1574C16.1489 94.9324 25.2232 88.5413 40.167 82.0946ZM100.222 82.3621C102.248 84.5819 104.194 86.7789 106.052 88.9395C103.353 89.8534 100.559 90.7538 97.6851 91.6326C98.3263 94.5504 98.9092 97.409 99.4353 100.193C105.846 101.459 111.864 102.414 117.308 103.045C126.985 116.296 131.603 126.502 128.483 129.589C125.37 132.669 115.255 127.975 102.154 118.207C101.568 112.727 100.658 106.661 99.4353 100.193C96.592 99.6314 93.6716 99.0076 90.6896 98.3245C91.2176 96.6567 91.7396 94.9613 92.2528 93.2404C91.0179 93.5941 89.7706 93.9436 88.5116 94.2883C89.3638 93.4628 90.2188 92.6282 91.0732 91.7827C91.8363 91.0276 92.5907 90.2723 93.3378 89.5188C92.9804 90.7715 92.6189 92.0124 92.2528 93.2404C94.0924 92.7134 95.9043 92.1771 97.6851 91.6326C97.3002 89.8813 96.8944 88.1086 96.4685 86.3175C97.7469 84.9927 98.9987 83.6735 100.222 82.3621ZM90.6896 98.3245C89.7883 101.172 88.8676 103.938 87.9337 106.61C85.8374 104.766 83.7079 102.837 81.5568 100.831C82.8858 99.6181 84.2227 98.3758 85.5657 97.1068C87.2914 97.5323 89.0005 97.9376 90.6896 98.3245ZM88.5116 94.2883C87.5273 95.2417 86.545 96.1814 85.5657 97.1068C84.2525 96.7831 82.9297 96.4481 81.5983 96.1023C82.7434 95.8149 83.8952 95.5203 85.0521 95.2168C86.2144 94.9119 87.3676 94.6014 88.5116 94.2883ZM46.0005 61.4845C49.2239 65.8986 53.01 70.6495 57.2573 75.5891C50.9961 77.709 45.243 79.9049 40.167 82.0946C25.2767 75.5256 16.2545 69.0609 17.3974 64.8452C18.5465 60.609 29.7016 59.596 46.0005 61.4845ZM123.141 82.4347C138.032 89.0038 147.054 95.4695 145.911 99.6853C144.762 103.921 133.607 104.934 117.308 103.045C114.085 98.6309 110.299 93.8792 106.052 88.9395C112.313 86.8198 118.065 84.6243 123.141 82.4347ZM34.827 34.9414C37.9394 31.8617 48.0529 36.5552 61.1544 46.3222C61.74 51.8024 62.6504 57.8688 63.8727 64.3364C66.5887 64.8728 69.3751 65.4652 72.2183 66.1126C71.6739 67.8523 71.1361 69.6212 70.6081 71.4167C71.9892 71.019 73.3861 70.6267 74.7976 70.2403C73.9453 71.0659 73.0912 71.9016 72.2366 72.7471C71.2841 73.6897 70.3442 74.6319 69.4166 75.5718C69.8083 74.1723 70.2053 72.7867 70.6081 71.4167C68.9222 71.9022 67.2601 72.3958 65.6241 72.896C66.0089 74.6473 66.4148 76.4201 66.8407 78.2111C65.5623 79.5359 64.3105 80.8551 63.0876 82.1666C61.061 79.9468 59.1152 77.7497 57.2573 75.5891C59.9564 74.6752 62.7497 73.7748 65.6241 72.896C64.9829 69.9783 64.3988 67.1202 63.8727 64.3364C57.4622 63.0703 51.4444 62.1153 46.0005 61.4845C36.324 48.2338 31.7073 38.029 34.827 34.9414ZM102.313 46.7004C115.623 36.9625 125.882 32.3076 128.979 35.4372C132.059 38.55 127.364 48.6635 117.596 61.765C112.071 62.3555 105.95 63.2753 99.4234 64.5127C98.8733 67.2685 98.2654 70.0951 97.6021 72.9787C95.9494 72.4595 94.2699 71.9474 92.5662 71.4429C92.0598 69.6799 91.5454 67.9425 91.0229 66.2338C89.2715 66.6187 87.4988 67.0245 85.7077 67.4504C86.678 68.3866 87.6514 69.3368 88.6263 70.3012C89.9531 70.6761 91.2664 71.0581 92.5662 71.4429C92.9417 72.7505 93.3122 74.0723 93.6776 75.407C94.5822 76.341 95.4745 77.2732 96.354 78.2027C96.79 76.4431 97.206 74.7008 97.6021 72.9787C100.543 73.9027 103.399 74.8479 106.156 75.8071C104.265 77.9609 102.284 80.1502 100.222 82.3621C98.9629 80.9834 97.6726 79.5963 96.354 78.2027C96.0458 79.4466 95.729 80.6994 95.4011 81.9594C95.7701 83.4228 96.1258 84.8761 96.4685 86.3175C95.4418 87.3815 94.3983 88.4494 93.3378 89.5188C93.7408 88.1069 94.1394 86.68 94.53 85.2394C94.8278 84.1409 95.1179 83.0473 95.4011 81.9594C95.1424 80.9337 94.8783 79.9028 94.6068 78.8677C94.3018 77.705 93.9909 76.5514 93.6776 75.407C92.8524 74.5551 92.0179 73.7008 91.1727 72.8466C90.3231 71.988 89.4738 71.1395 88.6263 70.3012C87.4796 69.9771 86.323 69.6579 85.1578 69.342C84.0031 69.029 82.8536 68.7241 81.7106 68.4272C83.0521 68.0905 84.3849 67.7649 85.7077 67.4504C84.383 66.172 83.0638 64.9202 81.7523 63.6973C83.9721 61.6707 86.1691 59.7249 88.3298 57.8671C89.2437 60.5661 90.144 63.3594 91.0229 66.2338C93.885 65.6048 96.6898 65.031 99.4234 64.5127C100.696 58.1357 101.663 52.1395 102.313 46.7004ZM81.7106 68.4272C80.5656 68.7146 79.4143 69.0105 78.2575 69.314C77.0953 69.6188 75.9414 69.9272 74.7976 70.2403C75.7815 69.2873 76.7633 68.3476 77.7423 67.4225C79.0558 67.7463 80.3789 68.0813 81.7106 68.4272ZM117.596 61.765C133.846 60.0284 144.941 61.1379 146.052 65.3734C147.16 69.5984 138.085 75.9881 123.141 82.4347C118.097 80.2095 112.38 77.9727 106.156 75.8071C110.472 70.8911 114.32 66.1601 117.596 61.765ZM75.0184 57.6066C77.2297 59.5448 79.4793 61.5778 81.7523 63.6973C80.4231 64.9108 79.0855 66.1532 77.7423 67.4225C75.8802 66.9634 74.0376 66.5268 72.2183 66.1126C73.1331 63.1897 74.0684 60.3495 75.0184 57.6066ZM64.7624 17.8671C68.9569 16.7669 75.2853 25.7037 81.6845 40.455C79.4449 45.5493 77.1948 51.3233 75.0184 57.6066C70.1662 53.3535 65.4964 49.5591 61.1544 46.3222C59.4179 30.0733 60.5272 18.9783 64.7624 17.8671ZM99.0257 17.4797C103.316 18.6426 104.299 30.0653 102.313 46.7004C97.9331 49.9043 93.2237 53.659 88.3298 57.8671C86.1649 51.4731 83.9204 45.6091 81.6845 40.455C88.2847 25.4416 94.7904 16.3317 99.0257 17.4797Z"/>
</mask>
<path d="M74.9794 106.662C77.0542 112.79 79.2012 118.432 81.3447 123.428C74.8069 138.196 68.3831 147.13 64.1867 145.993C60.0036 144.859 58.9648 133.969 60.7573 118.004C65.2044 114.762 69.996 110.947 74.9794 106.662ZM69.4166 75.5718C69.1699 76.4532 68.9245 77.3399 68.6826 78.2322C68.3547 79.4419 68.0353 80.646 67.7251 81.8428C68.0412 83.1084 68.3672 84.3819 68.703 85.6621C69.0079 86.8244 69.3172 87.9783 69.6304 89.1223C70.4559 89.9745 71.2916 90.8287 72.1371 91.6832C72.9868 92.5418 73.836 93.3903 74.6836 94.2287C75.8299 94.5526 76.9859 94.8727 78.1509 95.1885C79.3056 95.5015 80.4552 95.8055 81.5983 96.1023C80.257 96.439 78.9241 96.7637 77.6014 97.0782C78.9262 98.3566 80.2454 99.6084 81.5568 100.831C79.337 102.858 77.14 104.804 74.9794 106.662C74.0655 103.962 73.1651 101.169 72.2862 98.2948C69.3131 98.9482 66.4016 99.5418 63.5677 100.076C62.309 106.518 61.3689 112.557 60.7573 118.004C47.5636 127.622 37.4101 132.203 34.3315 129.093C31.2516 125.98 35.9444 115.866 45.7115 102.764C51.1471 102.183 57.1593 101.283 63.5677 100.076C64.1154 97.2726 64.7229 94.3929 65.3896 91.4519C67.1444 92.0052 68.93 92.5499 70.7427 93.0866C71.249 94.8494 71.7639 96.5864 72.2862 98.2948C74.0376 97.9099 75.8103 97.5041 77.6014 97.0782C76.6315 96.1423 75.6581 95.1927 74.6836 94.2287C73.3564 93.8536 72.0428 93.4716 70.7427 93.0866C70.3671 91.7789 69.9958 90.4572 69.6304 89.1223C68.6282 88.0877 67.642 87.0544 66.6708 86.0254C66.2222 87.8546 65.7948 89.6645 65.3896 91.4519C62.5603 90.5597 59.8106 89.6472 57.1529 88.7224C59.0441 86.5685 61.0249 84.3787 63.0876 82.1666C64.2557 83.4461 65.451 84.7328 66.6708 86.0254C67.0102 84.6418 67.3612 83.247 67.7251 81.8428C67.4208 80.6247 67.1266 79.4137 66.8407 78.2111C67.6877 77.3334 68.5466 76.4534 69.4166 75.5718ZM87.9337 106.61C92.9135 110.99 97.7055 114.891 102.154 118.207C103.89 134.457 102.782 145.551 98.5465 146.662C94.291 147.778 87.8385 138.565 81.3447 123.428C83.5554 118.434 85.7791 112.774 87.9337 106.61ZM40.167 82.0946C45.2112 84.3199 50.9288 86.5567 57.1529 88.7224C52.8364 93.6385 48.988 98.3691 45.7115 102.764C29.4628 104.501 18.3686 103.392 17.2571 99.1574C16.1489 94.9324 25.2232 88.5413 40.167 82.0946ZM100.222 82.3621C102.248 84.5819 104.194 86.7789 106.052 88.9395C103.353 89.8534 100.559 90.7538 97.6851 91.6326C98.3263 94.5504 98.9092 97.409 99.4353 100.193C105.846 101.459 111.864 102.414 117.308 103.045C126.985 116.296 131.603 126.502 128.483 129.589C125.37 132.669 115.255 127.975 102.154 118.207C101.568 112.727 100.658 106.661 99.4353 100.193C96.592 99.6314 93.6716 99.0076 90.6896 98.3245C91.2176 96.6567 91.7396 94.9613 92.2528 93.2404C91.0179 93.5941 89.7706 93.9436 88.5116 94.2883C89.3638 93.4628 90.2188 92.6282 91.0732 91.7827C91.8363 91.0276 92.5907 90.2723 93.3378 89.5188C92.9804 90.7715 92.6189 92.0124 92.2528 93.2404C94.0924 92.7134 95.9043 92.1771 97.6851 91.6326C97.3002 89.8813 96.8944 88.1086 96.4685 86.3175C97.7469 84.9927 98.9987 83.6735 100.222 82.3621ZM90.6896 98.3245C89.7883 101.172 88.8676 103.938 87.9337 106.61C85.8374 104.766 83.7079 102.837 81.5568 100.831C82.8858 99.6181 84.2227 98.3758 85.5657 97.1068C87.2914 97.5323 89.0005 97.9376 90.6896 98.3245ZM88.5116 94.2883C87.5273 95.2417 86.545 96.1814 85.5657 97.1068C84.2525 96.7831 82.9297 96.4481 81.5983 96.1023C82.7434 95.8149 83.8952 95.5203 85.0521 95.2168C86.2144 94.9119 87.3676 94.6014 88.5116 94.2883ZM46.0005 61.4845C49.2239 65.8986 53.01 70.6495 57.2573 75.5891C50.9961 77.709 45.243 79.9049 40.167 82.0946C25.2767 75.5256 16.2545 69.0609 17.3974 64.8452C18.5465 60.609 29.7016 59.596 46.0005 61.4845ZM123.141 82.4347C138.032 89.0038 147.054 95.4695 145.911 99.6853C144.762 103.921 133.607 104.934 117.308 103.045C114.085 98.6309 110.299 93.8792 106.052 88.9395C112.313 86.8198 118.065 84.6243 123.141 82.4347ZM34.827 34.9414C37.9394 31.8617 48.0529 36.5552 61.1544 46.3222C61.74 51.8024 62.6504 57.8688 63.8727 64.3364C66.5887 64.8728 69.3751 65.4652 72.2183 66.1126C71.6739 67.8523 71.1361 69.6212 70.6081 71.4167C71.9892 71.019 73.3861 70.6267 74.7976 70.2403C73.9453 71.0659 73.0912 71.9016 72.2366 72.7471C71.2841 73.6897 70.3442 74.6319 69.4166 75.5718C69.8083 74.1723 70.2053 72.7867 70.6081 71.4167C68.9222 71.9022 67.2601 72.3958 65.6241 72.896C66.0089 74.6473 66.4148 76.4201 66.8407 78.2111C65.5623 79.5359 64.3105 80.8551 63.0876 82.1666C61.061 79.9468 59.1152 77.7497 57.2573 75.5891C59.9564 74.6752 62.7497 73.7748 65.6241 72.896C64.9829 69.9783 64.3988 67.1202 63.8727 64.3364C57.4622 63.0703 51.4444 62.1153 46.0005 61.4845C36.324 48.2338 31.7073 38.029 34.827 34.9414ZM102.313 46.7004C115.623 36.9625 125.882 32.3076 128.979 35.4372C132.059 38.55 127.364 48.6635 117.596 61.765C112.071 62.3555 105.95 63.2753 99.4234 64.5127C98.8733 67.2685 98.2654 70.0951 97.6021 72.9787C95.9494 72.4595 94.2699 71.9474 92.5662 71.4429C92.0598 69.6799 91.5454 67.9425 91.0229 66.2338C89.2715 66.6187 87.4988 67.0245 85.7077 67.4504C86.678 68.3866 87.6514 69.3368 88.6263 70.3012C89.9531 70.6761 91.2664 71.0581 92.5662 71.4429C92.9417 72.7505 93.3122 74.0723 93.6776 75.407C94.5822 76.341 95.4745 77.2732 96.354 78.2027C96.79 76.4431 97.206 74.7008 97.6021 72.9787C100.543 73.9027 103.399 74.8479 106.156 75.8071C104.265 77.9609 102.284 80.1502 100.222 82.3621C98.9629 80.9834 97.6726 79.5963 96.354 78.2027C96.0458 79.4466 95.729 80.6994 95.4011 81.9594C95.7701 83.4228 96.1258 84.8761 96.4685 86.3175C95.4418 87.3815 94.3983 88.4494 93.3378 89.5188C93.7408 88.1069 94.1394 86.68 94.53 85.2394C94.8278 84.1409 95.1179 83.0473 95.4011 81.9594C95.1424 80.9337 94.8783 79.9028 94.6068 78.8677C94.3018 77.705 93.9909 76.5514 93.6776 75.407C92.8524 74.5551 92.0179 73.7008 91.1727 72.8466C90.3231 71.988 89.4738 71.1395 88.6263 70.3012C87.4796 69.9771 86.323 69.6579 85.1578 69.342C84.0031 69.029 82.8536 68.7241 81.7106 68.4272C83.0521 68.0905 84.3849 67.7649 85.7077 67.4504C84.383 66.172 83.0638 64.9202 81.7523 63.6973C83.9721 61.6707 86.1691 59.7249 88.3298 57.8671C89.2437 60.5661 90.144 63.3594 91.0229 66.2338C93.885 65.6048 96.6898 65.031 99.4234 64.5127C100.696 58.1357 101.663 52.1395 102.313 46.7004ZM81.7106 68.4272C80.5656 68.7146 79.4143 69.0105 78.2575 69.314C77.0953 69.6188 75.9414 69.9272 74.7976 70.2403C75.7815 69.2873 76.7633 68.3476 77.7423 67.4225C79.0558 67.7463 80.3789 68.0813 81.7106 68.4272ZM117.596 61.765C133.846 60.0284 144.941 61.1379 146.052 65.3734C147.16 69.5984 138.085 75.9881 123.141 82.4347C118.097 80.2095 112.38 77.9727 106.156 75.8071C110.472 70.8911 114.32 66.1601 117.596 61.765ZM75.0184 57.6066C77.2297 59.5448 79.4793 61.5778 81.7523 63.6973C80.4231 64.9108 79.0855 66.1532 77.7423 67.4225C75.8802 66.9634 74.0376 66.5268 72.2183 66.1126C73.1331 63.1897 74.0684 60.3495 75.0184 57.6066ZM64.7624 17.8671C68.9569 16.7669 75.2853 25.7037 81.6845 40.455C79.4449 45.5493 77.1948 51.3233 75.0184 57.6066C70.1662 53.3535 65.4964 49.5591 61.1544 46.3222C59.4179 30.0733 60.5272 18.9783 64.7624 17.8671ZM99.0257 17.4797C103.316 18.6426 104.299 30.0653 102.313 46.7004C97.9331 49.9043 93.2237 53.659 88.3298 57.8671C86.1649 51.4731 83.9204 45.6091 81.6845 40.455C88.2847 25.4416 94.7904 16.3317 99.0257 17.4797Z" fill="#F2A72D"/>
<path d="M64.1867 145.993L63.9251 146.958L63.9251 146.958L64.1867 145.993ZM68.6826 78.2322L67.7175 77.9705L67.7175 77.9705L68.6826 78.2322ZM68.703 85.6621L67.7357 85.9158L67.7357 85.9158L68.703 85.6621ZM72.1371 91.6832L71.4263 92.3866L71.4263 92.3866L72.1371 91.6832ZM78.1509 95.1885L77.8892 96.1536L77.8892 96.1536L78.1509 95.1885ZM34.3315 129.093L33.6206 129.796L33.6207 129.796L34.3315 129.093ZM98.5465 146.662L98.8001 147.63L98.8002 147.63L98.5465 146.662ZM17.2571 99.1574L16.2899 99.4111L16.2899 99.4112L17.2571 99.1574ZM128.483 129.589L129.186 130.3L129.186 130.3L128.483 129.589ZM91.0732 91.7827L91.7766 92.4935L91.7766 92.4935L91.0732 91.7827ZM85.0521 95.2168L85.3058 96.1841L85.3058 96.1841L85.0521 95.2168ZM17.3974 64.8452L16.4323 64.5834L16.4322 64.5835L17.3974 64.8452ZM145.911 99.6853L146.876 99.9471L146.876 99.947L145.911 99.6853ZM34.827 34.9414L34.1236 34.2306L34.1236 34.2307L34.827 34.9414ZM72.2366 72.7471L71.5333 72.0363L71.5333 72.0363L72.2366 72.7471ZM128.979 35.4372L129.69 34.734L129.69 34.7339L128.979 35.4372ZM94.53 85.2394L95.4952 85.501L95.4952 85.501L94.53 85.2394ZM94.6068 78.8677L95.5741 78.614L95.5741 78.614L94.6068 78.8677ZM91.1727 72.8466L91.8835 72.1433L91.8835 72.1433L91.1727 72.8466ZM85.1578 69.342L85.4194 68.3769L85.4194 68.3769L85.1578 69.342ZM78.2575 69.314L78.0038 68.3467L78.0038 68.3467L78.2575 69.314ZM146.052 65.3734L147.02 65.1198L147.02 65.1196L146.052 65.3734ZM64.7624 17.8671L64.5087 16.8999L64.5087 16.8999L64.7624 17.8671ZM99.0257 17.4797L99.2873 16.5145L99.2873 16.5145L99.0257 17.4797ZM74.9794 106.662L74.0322 106.982C76.1142 113.132 78.2704 118.798 80.4257 123.822L81.3447 123.428L82.2637 123.034C80.132 118.065 77.9942 112.448 75.9265 106.341L74.9794 106.662ZM81.3447 123.428L80.4303 123.023C77.1745 130.378 73.9697 136.225 71.0871 140.076C69.6428 142.005 68.3158 143.383 67.1442 144.205C65.9626 145.034 65.0864 145.201 64.4484 145.028L64.1867 145.993L63.9251 146.958C65.3852 147.354 66.8856 146.83 68.293 145.842C69.7104 144.848 71.1848 143.283 72.6882 141.274C75.7011 137.25 78.977 131.247 82.2591 123.833L81.3447 123.428ZM64.1867 145.993L64.4484 145.028C63.8124 144.855 63.1423 144.272 62.5426 142.968C61.9477 141.675 61.4982 139.827 61.2246 137.446C60.6785 132.694 60.8584 126.066 61.751 118.115L60.7573 118.004L59.7635 117.892C58.8636 125.907 58.6667 132.706 59.2377 137.674C59.5226 140.153 60.0051 142.238 60.7255 143.804C61.441 145.36 62.4695 146.563 63.9251 146.958L64.1867 145.993ZM60.7573 118.004L61.3464 118.812C65.8182 115.552 70.6308 111.72 75.6313 107.42L74.9794 106.662L74.3274 105.903C69.3612 110.174 64.5906 113.972 60.1682 117.196L60.7573 118.004ZM69.4166 75.5718L68.4536 75.3022C68.2064 76.1855 67.9602 77.075 67.7175 77.9705L68.6826 78.2322L69.6478 78.4938C69.8888 77.6049 70.1334 76.7209 70.3796 75.8413L69.4166 75.5718ZM68.6826 78.2322L67.7175 77.9705C67.3886 79.1838 67.0683 80.3914 66.7571 81.5919L67.7251 81.8428L68.6931 82.0937C69.0024 80.9006 69.3208 79.7001 69.6478 78.4938L68.6826 78.2322ZM67.7251 81.8428L66.7549 82.0852C67.072 83.3546 67.3989 84.6318 67.7357 85.9158L68.703 85.6621L69.6703 85.4084C69.3355 84.132 69.0105 82.8623 68.6953 81.6005L67.7251 81.8428ZM68.703 85.6621L67.7357 85.9158C68.0415 87.0816 68.3518 88.2389 68.6658 89.3863L69.6304 89.1223L70.5949 88.8582C70.2827 87.7177 69.9743 86.5673 69.6703 85.4084L68.703 85.6621ZM69.6304 89.1223L68.9121 89.818C69.7399 90.6727 70.5781 91.5294 71.4263 92.3866L72.1371 91.6832L72.848 90.9798C72.0051 90.128 71.1718 89.2763 70.3486 88.4265L69.6304 89.1223ZM72.1371 91.6832L71.4263 92.3866C72.2786 93.2479 73.1304 94.0989 73.9803 94.9396L74.6836 94.2287L75.3868 93.5177C74.5416 92.6817 73.6949 91.8358 72.848 90.9798L72.1371 91.6832ZM74.6836 94.2287L74.4116 95.191C75.5614 95.5159 76.7209 95.8369 77.8892 96.1536L78.1509 95.1885L78.4125 94.2233C77.251 93.9084 76.0984 93.5894 74.9555 93.2664L74.6836 94.2287ZM78.1509 95.1885L77.8892 96.1536C79.048 96.4678 80.201 96.7726 81.3469 97.0702L81.5983 96.1023L81.8497 95.1345C80.7094 94.8383 79.5633 94.5353 78.4125 94.2233L78.1509 95.1885ZM81.5983 96.1023L81.3549 95.1324C80.018 95.468 78.6892 95.7917 77.3701 96.1053L77.6014 97.0782L77.8327 98.0511C79.159 97.7357 80.496 97.41 81.8417 97.0723L81.5983 96.1023ZM77.6014 97.0782L76.907 97.7978C78.2358 99.08 79.5591 100.336 80.8749 101.563L81.5568 100.831L82.2388 100.1C80.9317 98.8811 79.6166 97.6332 78.2958 96.3586L77.6014 97.0782ZM81.5568 100.831L80.8826 100.093C78.67 102.113 76.4804 104.052 74.3274 105.903L74.9794 106.662L75.6313 107.42C77.7996 105.555 80.004 103.603 82.2311 101.57L81.5568 100.831ZM74.9794 106.662L75.9265 106.341C75.0159 103.651 74.1185 100.867 73.2425 98.0024L72.2862 98.2948L71.3299 98.5872C72.2117 101.471 73.1151 104.274 74.0322 106.982L74.9794 106.662ZM72.2862 98.2948L72.0716 97.3181C69.1081 97.9694 66.2065 98.5609 63.3826 99.0929L63.5677 100.076L63.7529 101.058C66.5968 100.523 69.5181 99.927 72.5009 99.2715L72.2862 98.2948ZM63.5677 100.076L62.5863 99.8839C61.3231 106.349 60.3785 112.414 59.7635 117.892L60.7573 118.004L61.751 118.115C62.3592 112.699 63.2949 106.688 64.5492 100.267L63.5677 100.076ZM60.7573 118.004L60.1682 117.196C53.5976 121.986 47.8303 125.486 43.3574 127.402C41.1163 128.362 39.2565 128.9 37.8148 129.029C36.36 129.159 35.5103 128.862 35.0422 128.389L34.3315 129.093L33.6207 129.796C34.6919 130.879 36.2659 131.175 37.9931 131.021C39.7333 130.865 41.8138 130.239 44.145 129.241C48.817 127.239 54.7233 123.64 61.3464 118.812L60.7573 118.004ZM34.3315 129.093L35.0423 128.389C34.574 127.916 34.286 127.063 34.4318 125.608C34.5763 124.167 35.1341 122.311 36.1189 120.078C38.0842 115.622 41.6491 109.887 46.5132 103.362L45.7115 102.764L44.9098 102.167C40.0068 108.743 36.3417 114.616 34.2889 119.271C33.2646 121.593 32.6162 123.669 32.4418 125.409C32.2687 127.135 32.549 128.713 33.6206 129.796L34.3315 129.093ZM45.7115 102.764L45.8178 103.759C51.2835 103.174 57.3223 102.27 63.7529 101.058L63.5677 100.076L63.3826 99.0929C56.9963 100.296 51.0107 101.192 45.6052 101.77L45.7115 102.764ZM63.5677 100.076L64.5492 100.267C65.0948 97.4744 65.7003 94.6045 66.3649 91.673L65.3896 91.4519L64.4144 91.2308C63.7455 94.1813 63.1359 97.0708 62.5863 99.8839L63.5677 100.076ZM65.3896 91.4519L65.0889 92.4056C66.8497 92.9609 68.641 93.5072 70.4588 94.0455L70.7427 93.0866L71.0266 92.1278C69.2191 91.5925 67.4391 91.0496 65.6904 90.4982L65.3896 91.4519ZM70.7427 93.0866L69.7816 93.3627C70.2894 95.1308 70.8059 96.8733 71.3299 98.5872L72.2862 98.2948L73.2425 98.0024C72.7219 96.2995 72.2086 94.5679 71.7039 92.8106L70.7427 93.0866ZM72.2862 98.2948L72.5009 99.2715C74.258 98.8854 76.0363 98.4782 77.8327 98.0511L77.6014 97.0782L77.3701 96.1053C75.5844 96.5299 73.8172 96.9345 72.0716 97.3181L72.2862 98.2948ZM77.6014 97.0782L78.2958 96.3586C77.3286 95.4253 76.3581 94.4785 75.3868 93.5177L74.6836 94.2287L73.9803 94.9396C74.9581 95.9068 75.9345 96.8593 76.907 97.7978L77.6014 97.0782ZM74.6836 94.2287L74.9555 93.2664C73.6332 92.8926 72.3236 92.5118 71.0266 92.1278L70.7427 93.0866L70.4588 94.0455C71.762 94.4314 73.0797 94.8145 74.4116 95.191L74.6836 94.2287ZM70.7427 93.0866L71.7039 92.8106C71.3293 91.5066 70.9591 90.1889 70.5949 88.8582L69.6304 89.1223L68.6658 89.3863C69.0324 90.7254 69.4049 92.0512 69.7816 93.3627L70.7427 93.0866ZM69.6304 89.1223L70.3486 88.4265C69.3499 87.3954 68.3667 86.3653 67.3981 85.339L66.6708 86.0254L65.9436 86.7117C66.9173 87.7436 67.9066 88.7799 68.9121 89.818L69.6304 89.1223ZM66.6708 86.0254L65.6996 85.7872C65.2497 87.6219 64.8209 89.4375 64.4144 91.2308L65.3896 91.4519L66.3649 91.673C66.7688 89.8915 67.1948 88.0873 67.6421 86.2636L66.6708 86.0254ZM65.3896 91.4519L65.6904 90.4982C62.8703 89.6089 60.1299 88.6995 57.4815 87.778L57.1529 88.7224L56.8243 89.6669C59.4913 90.5949 62.2503 91.5105 65.0889 92.4056L65.3896 91.4519ZM57.1529 88.7224L57.9044 89.3822C59.7889 87.2359 61.7629 85.0534 63.8189 82.8485L63.0876 82.1666L62.3562 81.4846C60.2868 83.7039 58.2993 85.9011 56.4015 88.0626L57.1529 88.7224ZM63.0876 82.1666L62.3491 82.8408C63.5211 84.1246 64.7202 85.4154 65.9436 86.7117L66.6708 86.0254L67.3981 85.339C66.1818 84.0502 64.9903 82.7675 63.8261 81.4923L63.0876 82.1666ZM66.6708 86.0254L67.6421 86.2636C67.9804 84.8839 68.3304 83.4933 68.6931 82.0937L67.7251 81.8428L66.7571 81.5919C66.392 83.0006 66.0399 84.3996 65.6996 85.7872L66.6708 86.0254ZM67.7251 81.8428L68.6953 81.6005C68.3921 80.3865 68.0987 79.1792 67.8135 77.9798L66.8407 78.2111L65.8678 78.4425C66.1545 79.6482 66.4496 80.863 66.7549 82.0852L67.7251 81.8428ZM66.8407 78.2111L67.5603 78.9055C68.4046 78.0305 69.2609 77.1533 70.1284 76.2742L69.4166 75.5718L68.7048 74.8694C67.8322 75.7536 66.9707 76.6362 66.1211 77.5167L66.8407 78.2111ZM87.9337 106.61L87.2733 107.361C92.2702 111.756 97.0831 115.674 101.556 119.009L102.154 118.207L102.751 117.405C98.3278 114.108 93.5568 110.224 88.5942 105.859L87.9337 106.61ZM102.154 118.207L101.159 118.313C102.024 126.406 102.173 133.157 101.597 137.993C101.308 140.417 100.843 142.298 100.234 143.612C99.619 144.938 98.9367 145.526 98.2927 145.695L98.5465 146.662L98.8002 147.63C100.274 147.243 101.318 146.028 102.048 144.453C102.784 142.867 103.282 140.751 103.583 138.23C104.185 133.179 104.02 126.258 103.148 118.101L102.154 118.207ZM98.5465 146.662L98.2928 145.695C97.6457 145.865 96.7572 145.685 95.5625 144.821C94.379 143.965 93.0427 142.539 91.593 140.551C88.6999 136.582 85.4978 130.572 82.2637 123.034L81.3447 123.428L80.4257 123.822C83.6854 131.42 86.9565 137.586 89.9769 141.729C91.484 143.796 92.9646 145.411 94.3907 146.442C95.8056 147.465 97.3195 148.018 98.8001 147.63L98.5465 146.662ZM81.3447 123.428L82.2591 123.833C84.4822 118.811 86.7155 113.125 88.8777 106.94L87.9337 106.61L86.9897 106.28C84.8426 112.422 82.6286 118.057 80.4303 123.023L81.3447 123.428ZM40.167 82.0946L39.7634 83.0096C44.8356 85.2472 50.5786 87.4937 56.8243 89.6669L57.1529 88.7224L57.4815 87.778C51.279 85.6198 45.5868 83.3926 40.5707 81.1797L40.167 82.0946ZM57.1529 88.7224L56.4015 88.0626C52.0701 92.9957 48.2045 97.747 44.9098 102.167L45.7115 102.764L46.5132 103.362C49.7716 98.9912 53.6028 94.2813 57.9044 89.3822L57.1529 88.7224ZM45.7115 102.764L45.6052 101.77C37.5132 102.635 30.7623 102.784 25.9263 102.207C23.5031 101.918 21.6219 101.454 20.3077 100.845C18.9814 100.23 18.3934 99.5475 18.2244 98.9036L17.2571 99.1574L16.2899 99.4112C16.6766 100.885 17.8922 101.929 19.4665 102.659C21.0527 103.394 23.1691 103.893 25.6895 104.193C30.7406 104.795 37.6612 104.63 45.8178 103.759L45.7115 102.764ZM17.2571 99.1574L18.2244 98.9037C18.0559 98.2612 18.2319 97.381 19.0803 96.1984C19.9213 95.0263 21.3245 93.7024 23.2839 92.2656C27.1945 89.398 33.1211 86.2233 40.5631 83.0128L40.167 82.0946L39.7709 81.1764C32.2692 84.4126 26.1867 87.6569 22.1012 90.6527C20.0626 92.1476 18.4711 93.6166 17.4553 95.0326C16.447 96.438 15.9043 97.941 16.2899 99.4111L17.2571 99.1574ZM100.222 82.3621L99.4831 83.0363C101.503 85.2488 103.442 87.4385 105.294 89.5915L106.052 88.9395L106.81 88.2875C104.946 86.1193 102.993 83.9149 100.96 81.6878L100.222 82.3621ZM106.052 88.9395L105.731 87.9923C103.042 88.903 100.258 89.8003 97.3927 90.6763L97.6851 91.6326L97.9775 92.5889C100.861 91.7072 103.664 90.8038 106.373 89.8867L106.052 88.9395ZM97.6851 91.6326L96.7084 91.8473C97.3475 94.7555 97.9284 97.6043 98.4527 100.379L99.4353 100.193L100.418 100.007C99.8899 97.2136 99.3051 94.3454 98.6618 91.418L97.6851 91.6326ZM99.4353 100.193L99.2415 101.174C105.675 102.444 111.719 103.404 117.193 104.038L117.308 103.045L117.424 102.052C112.009 101.424 106.018 100.474 99.6291 99.2119L99.4353 100.193ZM117.308 103.045L116.501 103.635C121.32 110.234 124.844 116.029 126.776 120.523C127.743 122.775 128.286 124.644 128.418 126.093C128.551 127.556 128.254 128.409 127.779 128.878L128.483 129.589L129.186 130.3C130.272 129.226 130.567 127.646 130.41 125.912C130.251 124.165 129.619 122.076 128.613 119.734C126.597 115.041 122.974 109.107 118.116 102.455L117.308 103.045ZM128.483 129.589L127.779 128.878C127.306 129.347 126.453 129.635 124.998 129.489C123.556 129.344 121.701 128.786 119.468 127.801C115.011 125.835 109.276 122.27 102.751 117.405L102.154 118.207L101.556 119.009C108.133 123.912 114.006 127.577 118.66 129.631C120.983 130.655 123.058 131.304 124.798 131.479C126.525 131.652 128.103 131.372 129.186 130.3L128.483 129.589ZM102.154 118.207L103.148 118.101C102.559 112.59 101.644 106.497 100.418 100.007L99.4353 100.193L98.4527 100.379C99.6708 106.824 100.577 112.863 101.159 118.313L102.154 118.207ZM99.4353 100.193L99.6291 99.2119C96.7961 98.6524 93.8856 98.0307 90.9129 97.3498L90.6896 98.3245L90.4663 99.2993C93.4577 99.9845 96.3879 100.61 99.2415 101.174L99.4353 100.193ZM90.6896 98.3245L91.643 98.6263C92.1725 96.9534 92.6963 95.2527 93.2111 93.5262L92.2528 93.2404L91.2945 92.9546C90.783 94.6699 90.2626 96.3599 89.7362 98.0227L90.6896 98.3245ZM92.2528 93.2404L91.9774 92.2791C90.7463 92.6317 89.5027 92.9802 88.2476 93.3238L88.5116 94.2883L88.7756 95.2528C90.0384 94.9071 91.2896 94.5565 92.5282 94.2017L92.2528 93.2404ZM88.5116 94.2883L89.2073 95.0066C90.0614 94.1793 90.919 93.3421 91.7766 92.4935L91.0732 91.7827L90.3698 91.0719C89.5185 91.9142 88.6662 92.7463 87.8158 93.57L88.5116 94.2883ZM91.0732 91.7827L91.7766 92.4935C92.5424 91.7358 93.2991 90.9782 94.048 90.2229L93.3378 89.5188L92.6277 88.8147C91.8824 89.5665 91.1302 90.3195 90.3698 91.0719L91.0732 91.7827ZM93.3378 89.5188L92.3762 89.2444C92.0198 90.4936 91.6594 91.7308 91.2945 92.9546L92.2528 93.2404L93.2111 93.5262C93.5785 92.2941 93.941 91.0493 94.2995 89.7933L93.3378 89.5188ZM92.2528 93.2404L92.5282 94.2017C94.3734 93.6732 96.1909 93.1352 97.9775 92.5889L97.6851 91.6326L97.3927 90.6763C95.6177 91.2191 93.8115 91.7537 91.9774 92.2791L92.2528 93.2404ZM97.6851 91.6326L98.6618 91.418C98.2756 89.6609 97.8685 87.8826 97.4414 86.0862L96.4685 86.3175L95.4956 86.5488C95.9202 88.3345 96.3248 90.1017 96.7084 91.8473L97.6851 91.6326ZM96.4685 86.3175L97.1881 87.0119C98.4703 85.6831 99.726 84.3598 100.953 83.044L100.222 82.3621L99.4902 81.6801C98.2713 82.9872 97.0235 84.3023 95.7489 85.6231L96.4685 86.3175ZM90.6896 98.3245L89.7362 98.0227C88.8378 100.861 87.9202 103.618 86.9897 106.28L87.9337 106.61L88.8777 106.94C89.815 104.258 90.7388 101.483 91.643 98.6263L90.6896 98.3245ZM87.9337 106.61L88.5942 105.859C86.5053 104.022 84.383 102.099 82.2388 100.1L81.5568 100.831L80.8749 101.563C83.0328 103.575 85.1694 105.51 87.2733 107.361L87.9337 106.61ZM81.5568 100.831L82.2311 101.57C83.5644 100.353 84.9055 99.1064 86.2525 97.8337L85.5657 97.1068L84.8788 96.38C83.5399 97.6452 82.2072 98.8835 80.8826 100.093L81.5568 100.831ZM85.5657 97.1068L85.3263 98.0778C87.0577 98.5046 88.7721 98.9112 90.4663 99.2993L90.6896 98.3245L90.9129 97.3498C89.2288 96.964 87.5251 96.5599 85.805 96.1359L85.5657 97.1068ZM88.5116 94.2883L87.8158 93.57C86.8345 94.5205 85.8552 95.4574 84.8788 96.38L85.5657 97.1068L86.2525 97.8337C87.2348 96.9054 88.2201 95.9628 89.2073 95.0066L88.5116 94.2883ZM85.5657 97.1068L85.805 96.1359C84.496 95.8132 83.1772 95.4792 81.8497 95.1345L81.5983 96.1023L81.3469 97.0702C82.6822 97.417 84.009 97.753 85.3263 98.0778L85.5657 97.1068ZM81.5983 96.1023L81.8417 97.0723C82.9897 96.7841 84.1451 96.4886 85.3058 96.1841L85.0521 95.2168L84.7984 94.2495C83.6454 94.552 82.497 94.8458 81.3549 95.1324L81.5983 96.1023ZM85.0521 95.2168L85.3058 96.1841C86.4723 95.8781 87.629 95.5667 88.7756 95.2528L88.5116 94.2883L88.2476 93.3238C87.1063 93.6362 85.9566 93.9457 84.7984 94.2495L85.0521 95.2168ZM46.0005 61.4845L45.1929 62.0743C48.4341 66.5127 52.2371 71.2845 56.4991 76.2411L57.2573 75.5891L58.0156 74.9371C53.7829 70.0146 50.0136 65.2844 46.8081 60.8948L46.0005 61.4845ZM57.2573 75.5891L56.9366 74.6419C50.6537 76.7691 44.875 78.9745 39.7709 81.1764L40.167 82.0946L40.5631 83.0128C45.6109 80.8353 51.3385 78.6488 57.578 76.5363L57.2573 75.5891ZM40.167 82.0946L40.5707 81.1797C33.1552 77.9083 27.2547 74.6853 23.3677 71.7859C21.42 70.3331 20.0276 68.9978 19.1963 67.8189C18.3575 66.6294 18.1888 65.7478 18.3626 65.1068L17.3974 64.8452L16.4322 64.5835C16.0346 66.0504 16.565 67.5578 17.5618 68.9714C18.566 70.3956 20.1455 71.8775 22.1719 73.389C26.2328 76.4181 32.2885 79.7119 39.7634 83.0096L40.167 82.0946ZM17.3974 64.8452L18.3625 65.107C18.5373 64.4628 19.1335 63.7836 20.4714 63.1785C21.797 62.5791 23.6908 62.1301 26.1271 61.8621C30.9894 61.3272 37.7682 61.5374 45.8854 62.4779L46.0005 61.4845L46.1156 60.4912C37.9339 59.5432 30.9857 59.3156 25.9084 59.8741C23.375 60.1528 21.2459 60.6333 19.6473 61.3562C18.0612 62.0735 16.8321 63.1095 16.4323 64.5834L17.3974 64.8452ZM123.141 82.4347L122.737 83.3496C130.153 86.6211 136.054 89.8444 139.941 92.744C141.889 94.197 143.281 95.5323 144.112 96.7114C144.951 97.901 145.12 98.7827 144.946 99.4237L145.911 99.6853L146.876 99.947C147.274 98.4801 146.744 96.9726 145.747 95.5589C144.743 94.1347 143.163 92.6526 141.137 91.1409C137.076 88.1115 131.02 84.8174 123.545 81.5197L123.141 82.4347ZM145.911 99.6853L144.946 99.4235C144.771 100.068 144.175 100.747 142.837 101.352C141.512 101.951 139.618 102.4 137.182 102.668C132.319 103.203 125.541 102.992 117.424 102.052L117.308 103.045L117.193 104.038C125.375 104.986 132.323 105.214 137.4 104.656C139.934 104.377 142.063 103.897 143.661 103.174C145.247 102.457 146.477 101.421 146.876 99.9471L145.911 99.6853ZM117.308 103.045L118.116 102.455C114.875 98.0168 111.072 93.2443 106.81 88.2875L106.052 88.9395L105.294 89.5915C109.526 94.5141 113.295 99.245 116.501 103.635L117.308 103.045ZM106.052 88.9395L106.373 89.8867C112.655 87.7596 118.433 85.5546 123.537 83.3529L123.141 82.4347L122.745 81.5165C117.697 83.6939 111.97 85.8799 105.731 87.9923L106.052 88.9395ZM34.827 34.9414L35.5304 35.6523C36.0036 35.184 36.857 34.896 38.3115 35.0419C39.7529 35.1865 41.6085 35.7444 43.8412 36.7292C48.2972 38.6948 54.032 42.2598 60.5567 47.1239L61.1544 46.3222L61.752 45.5204C55.1753 40.6176 49.3026 36.9523 44.6484 34.8993C42.326 33.8749 40.2508 33.2264 38.5111 33.0519C36.7846 32.8787 35.2066 33.159 34.1236 34.2306L34.827 34.9414ZM61.1544 46.3222L60.16 46.4284C60.749 51.939 61.6636 58.0322 62.89 64.5221L63.8727 64.3364L64.8553 64.1507C63.6372 57.7054 62.7311 51.6658 62.1487 46.2159L61.1544 46.3222ZM63.8727 64.3364L63.6789 65.3174C66.3852 65.8519 69.1622 66.4423 71.9963 67.0876L72.2183 66.1126L72.4403 65.1375C69.588 64.4881 66.7921 63.8936 64.0664 63.3553L63.8727 64.3364ZM72.2183 66.1126L71.264 65.8139C70.7178 67.5589 70.1784 69.3333 69.6488 71.1346L70.6081 71.4167L71.5675 71.6988C72.0938 69.909 72.6299 68.1457 73.1727 66.4112L72.2183 66.1126ZM70.6081 71.4167L70.8849 72.3776C72.2616 71.9811 73.6543 71.5901 75.0616 71.2049L74.7976 70.2403L74.5335 69.2758C73.1179 69.6633 71.7167 70.0568 70.3314 70.4557L70.6081 71.4167ZM74.7976 70.2403L74.1018 69.5221C73.2471 70.3499 72.3904 71.1881 71.5333 72.0363L72.2366 72.7471L72.94 73.4579C73.7919 72.615 74.6435 71.7818 75.4933 70.9586L74.7976 70.2403ZM72.2366 72.7471L71.5333 72.0363C70.5777 72.9819 69.635 73.9269 68.7048 74.8694L69.4166 75.5718L70.1284 76.2742C71.0534 75.3368 71.9905 74.3975 72.94 73.4579L72.2366 72.7471ZM69.4166 75.5718L70.3796 75.8413C70.7702 74.4457 71.166 73.0643 71.5675 71.6988L70.6081 71.4167L69.6488 71.1346C69.2446 72.5091 68.8464 73.8989 68.4536 75.3022L69.4166 75.5718ZM70.6081 71.4167L70.3314 70.4557C68.6403 70.9427 66.9729 71.4379 65.3317 71.9397L65.6241 72.896L65.9165 73.8523C67.5472 73.3536 69.2042 72.8616 70.8849 72.3776L70.6081 71.4167ZM65.6241 72.896L64.6474 73.1106C65.0335 74.8677 65.4406 76.646 65.8678 78.4425L66.8407 78.2111L67.8135 77.9798C67.3889 76.1941 66.9844 74.4269 66.6008 72.6813L65.6241 72.896ZM66.8407 78.2111L66.1211 77.5167C64.8389 78.8455 63.5831 80.1688 62.3562 81.4846L63.0876 82.1666L63.8189 82.8485C65.0378 81.5414 66.2857 80.2263 67.5603 78.9055L66.8407 78.2111ZM63.0876 82.1666L63.8261 81.4923C61.8061 79.2798 59.8669 77.0902 58.0156 74.9371L57.2573 75.5891L56.4991 76.2411C58.3635 78.4093 60.3159 80.6137 62.3491 82.8408L63.0876 82.1666ZM57.2573 75.5891L57.578 76.5363C60.2676 75.6256 63.0514 74.7283 65.9165 73.8523L65.6241 72.896L65.3317 71.9397C62.4479 72.8214 59.6452 73.7248 56.9366 74.6419L57.2573 75.5891ZM65.6241 72.896L66.6008 72.6813C65.9616 69.773 65.3795 66.9245 64.8553 64.1507L63.8727 64.3364L62.89 64.5221C63.418 67.3159 64.0041 70.1836 64.6474 73.1106L65.6241 72.896ZM63.8727 64.3364L64.0664 63.3553C57.6337 62.0849 51.5895 61.1254 46.1156 60.4912L46.0005 61.4845L45.8854 62.4779C51.2993 63.1052 57.2906 64.0558 63.6789 65.3174L63.8727 64.3364ZM46.0005 61.4845L46.8081 60.8948C41.989 54.2956 38.465 48.5011 36.5339 44.007C35.5664 41.7552 35.0236 39.8862 34.8919 38.4374C34.7589 36.9752 35.0561 36.1217 35.5304 35.6522L34.827 34.9414L34.1236 34.2307C33.0381 35.305 32.7425 36.8849 32.9001 38.6185C33.059 40.3656 33.6902 42.4549 34.6964 44.7966C36.7129 49.4894 40.3355 55.4227 45.1929 62.0743L46.0005 61.4845ZM102.313 46.7004L102.903 47.5075C109.532 42.6577 115.355 39.1088 119.872 37.1618C122.135 36.1862 124.014 35.6378 125.47 35.5031C126.94 35.3672 127.798 35.6647 128.268 36.1406L128.979 35.4372L129.69 34.7339C128.613 33.6449 127.026 33.3507 125.286 33.5116C123.532 33.6739 121.433 34.311 119.08 35.3252C114.365 37.3577 108.404 41.0052 101.722 45.8933L102.313 46.7004ZM128.979 35.4372L128.268 36.1405C128.737 36.6138 129.024 37.4672 128.878 38.9218C128.734 40.3633 128.176 42.2189 127.19 44.4517C125.224 48.9078 121.659 54.6426 116.795 61.1674L117.596 61.765L118.398 62.3627C123.301 55.7859 126.967 49.9133 129.02 45.259C130.045 42.9366 130.694 40.8614 130.868 39.1217C131.042 37.3951 130.762 35.8171 129.69 34.734L128.979 35.4372ZM117.596 61.765L117.49 60.7707C111.935 61.3645 105.787 62.2885 99.2371 63.5303L99.4234 64.5127L99.6096 65.4952C106.114 64.2621 112.208 63.3466 117.703 62.7594L117.596 61.765ZM99.4234 64.5127L98.4427 64.317C97.8946 67.0628 97.2888 69.8799 96.6276 72.7545L97.6021 72.9787L98.5766 73.2029C99.2421 70.3102 99.852 67.4741 100.404 64.7085L99.4234 64.5127ZM97.6021 72.9787L97.9018 72.0247C96.2437 71.5038 94.5589 70.9901 92.8501 70.4841L92.5662 71.4429L92.2823 72.4018C93.9809 72.9048 95.6552 73.4153 97.3024 73.9328L97.6021 72.9787ZM92.5662 71.4429L93.5273 71.1669C93.0195 69.3987 92.5034 67.6558 91.9792 65.9414L91.0229 66.2338L90.0666 66.5262C90.5873 68.2292 91.1002 69.9611 91.605 71.719L92.5662 71.4429ZM91.0229 66.2338L90.8083 65.2571C89.0511 65.6432 87.2729 66.0504 85.4764 66.4775L85.7077 67.4504L85.9391 68.4233C87.7248 67.9987 89.4919 67.5941 91.2376 67.2105L91.0229 66.2338ZM85.7077 67.4504L85.0134 68.17C85.9808 69.1035 86.9512 70.0509 87.923 71.0121L88.6263 70.3012L89.3295 69.5902C88.3515 68.6228 87.3751 67.6697 86.4021 66.7308L85.7077 67.4504ZM88.6263 70.3012L88.3543 71.2635C89.6763 71.6371 90.9856 72.0178 92.2823 72.4018L92.5662 71.4429L92.8501 70.4841C91.5472 70.0983 90.2298 69.7152 88.8982 69.3389L88.6263 70.3012ZM92.5662 71.4429L91.605 71.719C91.9794 73.0224 92.3488 74.3402 92.7131 75.6711L93.6776 75.407L94.6421 75.143C94.2757 73.8044 93.9041 72.4786 93.5273 71.1669L92.5662 71.4429ZM93.6776 75.407L92.9593 76.1028C93.8612 77.0339 94.7508 77.9633 95.6276 78.89L96.354 78.2027L97.0804 77.5154C96.1983 76.5831 95.3032 75.648 94.3959 74.7113L93.6776 75.407ZM96.354 78.2027L97.3247 78.4432C97.762 76.6782 98.1793 74.9304 98.5766 73.2029L97.6021 72.9787L96.6276 72.7545C96.2327 74.4712 95.818 76.2081 95.3834 77.9622L96.354 78.2027ZM97.6021 72.9787L97.3024 73.9328C100.234 74.8537 103.08 75.7958 105.827 76.7516L106.156 75.8071L106.485 74.8627C103.718 73.9 100.852 72.9516 97.9018 72.0247L97.6021 72.9787ZM106.156 75.8071L105.405 75.1473C103.52 77.2934 101.546 79.4753 99.4902 81.6801L100.222 82.3621L100.953 83.044C103.022 80.825 105.01 78.6283 106.907 76.4669L106.156 75.8071ZM100.222 82.3621L100.96 81.6878C99.6972 80.3045 98.4028 78.9131 97.0804 77.5154L96.354 78.2027L95.6276 78.89C96.9424 80.2796 98.2286 81.6623 99.4831 83.0363L100.222 82.3621ZM96.354 78.2027L95.3834 77.9622C95.0759 79.203 94.7601 80.4519 94.4333 81.7075L95.4011 81.9594L96.3688 82.2113C96.698 80.9468 97.0157 79.6902 97.3247 78.4432L96.354 78.2027ZM95.4011 81.9594L94.4314 82.2039C94.7994 83.6628 95.1539 85.1117 95.4956 86.5488L96.4685 86.3175L97.4414 86.0862C97.0976 84.6405 96.7409 83.1828 96.3707 81.7149L95.4011 81.9594ZM96.4685 86.3175L95.7489 85.6231C94.7251 86.684 93.6848 87.7487 92.6277 88.8147L93.3378 89.5188L94.048 90.2229C95.1118 89.15 96.1584 88.0789 97.1881 87.0119L96.4685 86.3175ZM93.3378 89.5188L94.2995 89.7933C94.7034 88.3777 95.1033 86.9466 95.4952 85.501L94.53 85.2394L93.5648 84.9777C93.1756 86.4135 92.7782 87.836 92.3762 89.2444L93.3378 89.5188ZM94.53 85.2394L95.4952 85.501C95.7939 84.3991 96.0849 83.3022 96.3688 82.2113L95.4011 81.9594L94.4333 81.7075C94.151 82.7924 93.8617 83.8827 93.5648 84.9777L94.53 85.2394ZM95.4011 81.9594L96.3707 81.7149C96.1115 80.6868 95.8466 79.6527 95.5741 78.614L94.6068 78.8677L93.6395 79.1215C93.9101 80.1529 94.1734 81.1807 94.4314 82.2039L95.4011 81.9594ZM94.6068 78.8677L95.5741 78.614C95.268 77.447 94.956 76.2899 94.6421 75.143L93.6776 75.407L92.7131 75.6711C93.0257 76.813 93.3357 77.963 93.6395 79.1215L94.6068 78.8677ZM93.6776 75.407L94.3959 74.7113C93.5688 73.8574 92.7317 73.0004 91.8835 72.1433L91.1727 72.8466L90.4619 73.55C91.3041 74.4011 92.136 75.2529 92.9593 76.1028L93.6776 75.407ZM91.1727 72.8466L91.8835 72.1433C91.0312 71.2819 90.1795 70.4309 89.3295 69.5902L88.6263 70.3012L87.923 71.0121C88.7682 71.8481 89.6149 72.6941 90.4619 73.55L91.1727 72.8466ZM88.6263 70.3012L88.8982 69.3389C87.7476 69.0137 86.5875 68.6935 85.4194 68.3769L85.1578 69.342L84.8961 70.3072C86.0585 70.6223 87.2116 70.9405 88.3543 71.2635L88.6263 70.3012ZM85.1578 69.342L85.4194 68.3769C84.2612 68.0629 83.1084 67.7571 81.962 67.4593L81.7106 68.4272L81.4592 69.3951C82.5989 69.6911 83.7449 69.9951 84.8961 70.3072L85.1578 69.342ZM81.7106 68.4272L81.954 69.3971C83.2915 69.0614 84.6202 68.7368 85.9391 68.4233L85.7077 67.4504L85.4764 66.4775C84.1495 66.793 82.8127 67.1196 81.4672 67.4573L81.7106 68.4272ZM85.7077 67.4504L86.4021 66.7308C85.0734 65.4486 83.7501 64.1929 82.4343 62.9659L81.7523 63.6973L81.0703 64.4287C82.3775 65.6475 83.6925 66.8954 85.0134 68.17L85.7077 67.4504ZM81.7523 63.6973L82.4266 64.4358C84.6391 62.4159 86.8287 60.4766 88.9818 58.6253L88.3298 57.8671L87.6778 57.1088C85.5096 58.9732 83.3051 60.9256 81.0781 62.9588L81.7523 63.6973ZM88.3298 57.8671L87.3826 58.1878C88.2933 60.8773 89.1906 63.6612 90.0666 66.5262L91.0229 66.2338L91.9792 65.9414C91.0975 63.0576 90.194 60.2549 89.277 57.5464L88.3298 57.8671ZM91.0229 66.2338L91.2376 67.2105C94.0904 66.5835 96.8858 66.0117 99.6096 65.4952L99.4234 64.5127L99.2371 63.5303C96.4938 64.0503 93.6795 64.6261 90.8083 65.2571L91.0229 66.2338ZM99.4234 64.5127L100.404 64.7085C101.681 58.3095 102.653 52.2873 103.305 46.8189L102.313 46.7004L101.32 46.5818C100.674 51.9917 99.7112 57.962 98.4427 64.317L99.4234 64.5127ZM81.7106 68.4272L81.4672 67.4573C80.3184 67.7456 79.1638 68.0424 78.0038 68.3467L78.2575 69.314L78.5112 70.2812C79.6649 69.9786 80.8127 69.6836 81.954 69.3971L81.7106 68.4272ZM78.2575 69.314L78.0038 68.3467C76.8386 68.6523 75.6813 68.9617 74.5335 69.2758L74.7976 70.2403L75.0616 71.2049C76.2016 70.8928 77.3519 70.5853 78.5112 70.2812L78.2575 69.314ZM74.7976 70.2403L75.4933 70.9586C76.4744 70.0083 77.4532 69.0714 78.4291 68.1493L77.7423 67.4225L77.0555 66.6956C76.0733 67.6237 75.0886 68.5662 74.1018 69.5221L74.7976 70.2403ZM77.7423 67.4225L77.503 68.3934C78.8123 68.7162 80.1314 69.0502 81.4592 69.3951L81.7106 68.4272L81.962 67.4593C80.6264 67.1124 79.2992 66.7763 77.9817 66.4515L77.7423 67.4225ZM117.596 61.765L117.703 62.7594C125.795 61.8945 132.547 61.7457 137.383 62.3226C139.806 62.6117 141.688 63.0763 143.002 63.6857C144.328 64.3007 144.916 64.9831 145.085 65.6271L146.052 65.3734L147.02 65.1196C146.633 63.6459 145.418 62.6013 143.843 61.8713C142.257 61.1358 140.14 60.6374 137.62 60.3367C132.568 59.7341 125.647 59.8989 117.49 60.7707L117.596 61.765ZM146.052 65.3734L145.085 65.6269C145.254 66.2693 145.077 67.1495 144.229 68.332C143.388 69.5041 141.984 70.8278 140.025 72.2645C136.114 75.1317 130.187 78.306 122.745 81.5165L123.141 82.4347L123.537 83.3529C131.039 80.1167 137.121 76.8729 141.207 73.8774C143.246 72.3827 144.838 70.9139 145.854 69.4981C146.862 68.0929 147.405 66.5899 147.02 65.1198L146.052 65.3734ZM123.141 82.4347L123.545 81.5197C118.473 79.2822 112.73 77.0358 106.485 74.8627L106.156 75.8071L105.827 76.7516C112.029 78.9096 117.721 81.1368 122.737 83.3496L123.141 82.4347ZM106.156 75.8071L106.907 76.4669C111.239 71.5339 115.104 66.7821 118.398 62.3627L117.596 61.765L116.795 61.1674C113.536 65.5381 109.706 70.2484 105.405 75.1473L106.156 75.8071ZM75.0184 57.6066L74.3593 58.3586C76.5627 60.29 78.8047 62.316 81.0703 64.4287L81.7523 63.6973L82.4343 62.9659C80.1538 60.8395 77.8967 58.7997 75.6776 56.8546L75.0184 57.6066ZM81.7523 63.6973L81.0781 62.9588C79.7446 64.1762 78.4028 65.4225 77.0555 66.6956L77.7423 67.4225L78.4291 68.1493C79.7682 66.8839 81.1016 65.6454 82.4266 64.4358L81.7523 63.6973ZM77.7423 67.4225L77.9817 66.4515C76.1138 65.9911 74.2654 65.5531 72.4403 65.1375L72.2183 66.1126L71.9963 67.0876C73.8098 67.5005 75.6466 67.9358 77.503 68.3934L77.7423 67.4225ZM72.2183 66.1126L73.1727 66.4112C74.0846 63.4975 75.0167 60.6669 75.9633 57.9339L75.0184 57.6066L74.0735 57.2793C73.12 60.0321 72.1816 62.8818 71.264 65.8139L72.2183 66.1126ZM64.7624 17.8671L65.0162 18.8344C65.6539 18.6671 66.5257 18.8392 67.6961 19.6725C68.8568 20.499 70.1681 21.8798 71.5919 23.8103C74.4335 27.6632 77.5804 33.5071 80.7671 40.853L81.6845 40.455L82.6019 40.0571C79.3894 32.6516 76.1724 26.6514 73.2015 22.6232C71.719 20.6131 70.2617 19.0441 68.8562 18.0433C67.4604 17.0495 65.9683 16.517 64.5087 16.8999L64.7624 17.8671ZM81.6845 40.455L80.769 40.0526C78.5171 45.1749 76.2574 50.9743 74.0735 57.2793L75.0184 57.6066L75.9633 57.9339C78.1322 51.6722 80.3727 45.9237 82.5999 40.8575L81.6845 40.455ZM75.0184 57.6066L75.6776 56.8546C70.8085 52.5867 66.1181 48.7753 61.752 45.5204L61.1544 46.3222L60.5567 47.1239C64.8747 50.3429 69.5239 54.1204 74.3593 58.3586L75.0184 57.6066ZM61.1544 46.3222L62.1487 46.2159C61.2839 38.1238 61.1351 31.3726 61.7119 26.5364C62.001 24.1132 62.4656 22.232 63.075 20.9176C63.6899 19.5913 64.3722 19.0034 65.0162 18.8344L64.7624 17.8671L64.5087 16.8999C63.035 17.2865 61.9904 18.5021 61.2605 20.0764C60.525 21.6626 60.0267 23.779 59.726 26.2996C59.1235 31.3509 59.2883 38.2717 60.16 46.4284L61.1544 46.3222ZM99.0257 17.4797L98.764 18.4448C99.4164 18.6217 100.105 19.2311 100.715 20.603C101.318 21.9609 101.766 23.9003 102.028 26.3925C102.551 31.3661 102.309 38.2965 101.32 46.5818L102.313 46.7004L103.305 46.8189C104.302 38.4692 104.562 31.3707 104.017 26.1835C103.745 23.5952 103.267 21.4212 102.542 19.7904C101.823 18.1736 100.78 16.9191 99.2873 16.5145L99.0257 17.4797ZM102.313 46.7004L101.722 45.8933C97.3186 49.1148 92.5886 52.8862 87.6778 57.1088L88.3298 57.8671L88.9818 58.6253C93.8587 54.4318 98.5475 50.6938 102.903 47.5075L102.313 46.7004ZM88.3298 57.8671L89.277 57.5464C87.1046 51.1302 84.8503 45.2401 82.6019 40.0571L81.6845 40.455L80.7671 40.853C82.9904 45.9782 85.2252 51.8159 87.3826 58.1878L88.3298 57.8671ZM81.6845 40.455L82.5999 40.8575C85.887 33.3805 89.1282 27.4271 92.0446 23.5033C93.5058 21.5372 94.8493 20.1305 96.0357 19.2899C97.2331 18.4415 98.12 18.2703 98.7641 18.4448L99.0257 17.4797L99.2873 16.5145C97.8137 16.1151 96.2992 16.652 94.8794 17.658C93.4485 18.6719 91.959 20.2657 90.4394 22.3103C87.3939 26.4078 84.0822 32.5161 80.769 40.0526L81.6845 40.455Z" fill="#F1EBCC" mask="url(#path-3-inside-1_316_192)"/>
<circle cx="82.5" cy="82.5" r="42.5" fill="#D15C1D"/>
<circle cx="82.5" cy="82.5" r="34.5" fill="#D15C1D" stroke="#493C33" stroke-width="3" stroke-miterlimit="2.3662" stroke-dasharray="2 2"/>
<circle cx="82" cy="82" r="27" fill="#D15C1D" stroke="#493C33" stroke-width="3" stroke-miterlimit="2.3662" stroke-dasharray="2 2"/>
<circle cx="82" cy="82" r="20" fill="#D15C1D" stroke="#493C33" stroke-width="3" stroke-miterlimit="2.3662" stroke-dasharray="2 2"/>
<circle cx="82" cy="82" r="15.5" fill="#493C33" stroke="#D15C1D"/>
<path d="M81.916 87.6943C82.7268 88.8961 83.5245 89.9884 84.2832 90.9414C83.7435 94.5198 82.8834 96.8307 81.9092 96.833C80.9382 96.8346 80.0702 94.5424 79.5137 90.9863C80.283 90.0228 81.0925 88.9149 81.916 87.6943ZM78.875 81.9238C78.8757 82.2047 78.8781 82.4837 78.8818 82.7607C79.0249 83.0154 79.1702 83.2717 79.3184 83.5283C79.4532 83.7618 79.5891 83.9927 79.7246 84.2217C79.953 84.3568 80.1842 84.4915 80.417 84.626C80.6512 84.7612 80.8846 84.8944 81.1172 85.0254C81.3841 85.0276 81.6533 85.029 81.9238 85.0283C82.1918 85.0277 82.4582 85.0249 82.7227 85.0215C82.4527 85.1736 82.1833 85.3216 81.916 85.4678C82.278 85.6658 82.6373 85.8581 82.9932 86.0449C82.6332 86.6144 82.2732 87.1649 81.916 87.6943C81.5588 87.1649 81.1989 86.6143 80.8389 86.0449C80.235 86.3619 79.6414 86.6634 79.0605 86.9463C79.1695 88.4129 79.3238 89.7731 79.5137 90.9863C77.2309 93.8454 75.3072 95.4366 74.458 94.9463C73.6085 94.4556 74.0243 91.9918 75.3604 88.583C76.5007 88.1361 77.7469 87.5862 79.0605 86.9463C79.0131 86.3081 78.9741 85.6497 78.9443 84.9746C79.3567 84.9905 79.7753 85.0029 80.1992 85.0117C80.4125 85.3622 80.6253 85.7071 80.8389 86.0449C81.1947 85.8581 81.554 85.6658 81.916 85.4678C81.6513 85.323 81.3846 85.176 81.1172 85.0254C80.8086 85.0228 80.5025 85.018 80.1992 85.0117C80.0409 84.7516 79.8824 84.4883 79.7246 84.2217C79.4464 84.0571 79.1725 83.8908 78.9014 83.7256C78.9126 84.1476 78.9262 84.5642 78.9443 84.9746C78.2805 84.9491 77.6326 84.9138 77.0039 84.8711C77.2851 84.2941 77.5837 83.7042 77.8984 83.1045C78.2265 83.3119 78.5614 83.5184 78.9014 83.7256C78.8929 83.407 78.8862 83.0852 78.8818 82.7607C78.7439 82.5152 78.6086 82.2706 78.4756 82.0273C78.6067 81.7876 78.7401 81.5466 78.876 81.3047C78.8748 81.51 78.8745 81.7165 78.875 81.9238ZM84.7129 86.917C86.0481 87.5691 87.3143 88.1294 88.4717 88.583C89.8078 91.9919 90.2245 94.4556 89.375 94.9463C88.5213 95.4392 86.5818 93.8289 84.2832 90.9414C84.4657 89.7314 84.6117 88.3766 84.7129 86.917ZM72.9404 84.4443C74.1623 84.627 75.5305 84.7711 77.0039 84.8711C76.3615 86.1891 75.8087 87.4391 75.3604 88.583C71.9517 89.9189 69.4885 90.3359 68.998 89.4863C68.509 88.6388 70.0924 86.721 72.9404 84.4443ZM85.9346 80.9512C86.5033 81.3108 87.0531 81.6705 87.582 82.0273C87.0528 82.3844 86.5028 82.7446 85.9336 83.1045C86.2445 83.6967 86.5392 84.2795 86.8174 84.8496C88.2781 84.7442 89.6355 84.5958 90.8496 84.4102C93.7247 86.7018 95.3266 88.6345 94.835 89.4863C94.3444 90.336 91.8807 89.9192 88.4717 88.583C88.0209 87.4329 87.4643 86.1756 86.8174 84.8496C86.1701 84.8963 85.5027 84.9352 84.8184 84.9639C84.8338 84.5721 84.8454 84.1748 84.8545 83.7725C84.6082 83.9221 84.3595 84.0726 84.1074 84.2217C84.243 83.9925 84.3798 83.7619 84.5146 83.5283C84.6348 83.3203 84.7524 83.112 84.8691 82.9053C84.866 83.1967 84.861 83.4858 84.8545 83.7725C85.2209 83.5498 85.581 83.3274 85.9336 83.1045C85.7468 82.7487 85.5544 82.3893 85.3564 82.0273C85.5544 81.6655 85.7478 81.3069 85.9346 80.9512ZM84.8184 84.9639C84.792 85.6324 84.7567 86.2845 84.7129 86.917C84.1508 86.6425 83.5767 86.3512 82.9932 86.0449C83.2086 85.7042 83.4235 85.3565 83.6387 85.0029C84.0369 84.9928 84.4303 84.9801 84.8184 84.9639ZM84.1074 84.2217C83.9515 84.4852 83.7952 84.7457 83.6387 85.0029C83.336 85.0106 83.0306 85.0175 82.7227 85.0215C82.953 84.8918 83.1841 84.7599 83.416 84.626C83.6486 84.4917 83.8793 84.3567 84.1074 84.2217ZM72.9824 79.6445C73.9402 80.408 75.0397 81.2108 76.25 82.0273C75.0219 82.8559 73.9081 83.6708 72.9404 84.4443C69.3342 83.9052 67.0023 83.0411 67 82.0625C66.9984 81.0792 69.3489 80.2001 72.9824 79.6445ZM90.8906 79.6113C94.4979 80.1505 96.8307 81.0144 96.833 81.9932C96.8353 82.9767 94.484 83.8545 90.8496 84.4102C89.8918 83.6467 88.7923 82.8438 87.582 82.0273C88.8097 81.1991 89.9232 80.3846 90.8906 79.6113ZM68.999 74.5693C69.4902 73.7205 71.9527 74.1362 75.3604 75.4717C75.8111 76.6218 76.3678 77.8791 77.0146 79.2051C77.6329 79.1604 78.2696 79.1229 78.9219 79.0947C78.9071 79.5031 78.8956 79.9174 78.8877 80.3369C79.1627 80.1693 79.4414 80.0019 79.7236 79.835C79.5883 80.0637 79.453 80.2951 79.3184 80.5283C79.1684 80.7881 79.0207 81.0469 78.876 81.3047C78.8779 80.9793 78.8816 80.6566 78.8877 80.3369C78.5522 80.5415 78.2223 80.7464 77.8984 80.9512C78.0851 81.3068 78.2777 81.6656 78.4756 82.0273C78.2776 82.3893 78.0852 82.7487 77.8984 83.1045C77.3293 82.7446 76.7792 82.3844 76.25 82.0273C76.7791 81.6704 77.3294 81.3109 77.8984 80.9512C77.5874 80.3587 77.2929 79.7754 77.0146 79.2051C75.554 79.3105 74.1965 79.4589 72.9824 79.6445C70.1081 77.3532 68.5073 75.421 68.999 74.5693ZM84.2773 73.1211C86.5783 70.2293 88.5206 68.6171 89.375 69.1104C90.2241 69.6013 89.8073 72.0636 88.4717 75.4717C87.3123 75.9261 86.0439 76.488 84.7061 77.1416C84.7501 77.7694 84.7854 78.416 84.8125 79.0781C84.4248 79.0637 84.0317 79.0522 83.6338 79.0439C83.4202 78.6931 83.207 78.3479 82.9932 78.0098C82.6373 78.1966 82.278 78.3889 81.916 78.5869C82.1812 78.7319 82.448 78.8795 82.7158 79.0303C83.0244 79.0329 83.3305 79.0376 83.6338 79.0439C83.7923 79.3043 83.9505 79.5681 84.1084 79.835C84.3593 79.9834 84.6074 80.1323 84.8525 80.2813C84.8427 79.8751 84.8287 79.4738 84.8125 79.0781C85.5026 79.1039 86.1757 79.1393 86.8281 79.1836C86.5469 79.7607 86.2494 80.3514 85.9346 80.9512C85.581 80.7276 85.2199 80.5045 84.8525 80.2813C84.8595 80.5683 84.8655 80.8577 84.8691 81.1494C85.0352 81.4435 85.1973 81.7365 85.3564 82.0273C85.1973 82.3182 85.0352 82.6112 84.8691 82.9053C84.8727 82.5762 84.8758 82.2438 84.875 81.9092C84.8744 81.6544 84.8723 81.4011 84.8691 81.1494C84.7526 80.9431 84.6345 80.7359 84.5146 80.5283C84.3799 80.2949 84.2438 80.0639 84.1084 79.835C83.88 79.6998 83.6498 79.5641 83.417 79.4297C83.1826 79.2944 82.9486 79.1613 82.7158 79.0303C82.4488 79.028 82.1797 79.0277 81.9092 79.0283C81.6409 79.029 81.3742 79.0307 81.1094 79.0342C81.3795 78.882 81.6486 78.7332 81.916 78.5869C81.554 78.3889 81.1947 78.1966 80.8389 78.0098C81.1987 77.4406 81.559 76.8906 81.916 76.3613C82.2731 76.8906 82.6333 77.4406 82.9932 78.0098C83.5742 77.7048 84.1462 77.4151 84.7061 77.1416C84.6041 75.6881 84.4586 74.335 84.2773 73.1211ZM81.1094 79.0342C80.8791 79.1639 80.6478 79.2958 80.416 79.4297C80.1829 79.5643 79.9523 79.6997 79.7236 79.835C79.8799 79.5708 80.0365 79.3096 80.1934 79.0518C80.496 79.0441 80.8015 79.0382 81.1094 79.0342ZM88.4717 75.4717C91.8805 74.1357 94.3444 73.7207 94.835 74.5703C95.3233 75.4182 93.7388 77.3348 90.8906 79.6113C89.669 79.4287 88.3011 79.2836 86.8281 79.1836C87.4705 77.8655 88.0234 76.6156 88.4717 75.4717ZM79.0244 77.0918C79.6166 77.3798 80.2226 77.6863 80.8389 78.0098C80.6235 78.3505 80.4085 78.6982 80.1934 79.0518C79.7637 79.0627 79.3396 79.0767 78.9219 79.0947C78.9467 78.4093 78.9813 77.7405 79.0244 77.0918ZM74.458 69.1104C75.2994 68.6246 77.1951 70.1817 79.4502 72.9912C79.2675 74.2245 79.1232 75.6053 79.0244 77.0918C77.7239 76.4594 76.4904 75.9145 75.3604 75.4717C74.0248 72.0638 73.6089 69.6013 74.458 69.1104ZM81.8398 67C82.8357 66.9977 83.723 69.4085 84.2773 73.1211C83.5203 74.0725 82.7248 75.1625 81.916 76.3613C81.07 75.1074 80.2382 73.9729 79.4502 72.9912C79.9888 69.3561 80.8567 67.0023 81.8398 67Z" fill="#D15C1D"/>
</svg>
