<svg width="140" height="144" viewBox="0 0 140 144" fill="none" xmlns="http://www.w3.org/2000/svg">
<ellipse cx="70" cy="100" rx="49" ry="44" fill="#493C33"/>
<ellipse cx="45.8363" cy="97.8358" rx="16.9013" ry="16.8082" transform="rotate(44.8006 45.8363 97.8358)" fill="#F2A72D"/>
<ellipse cx="93.8363" cy="97.8358" rx="16.9013" ry="16.8082" transform="rotate(44.8006 93.8363 97.8358)" fill="#F2A72D"/>
<ellipse cx="4.47272" cy="7.87211" rx="4.47272" ry="7.87211" transform="matrix(-0.996719 -0.0809423 -0.0809423 0.996719 95.1904 90.7241)" fill="#6B7F4F"/>
<ellipse cx="4.47272" cy="7.87211" rx="4.47272" ry="7.87211" transform="matrix(-0.996719 -0.0809423 -0.0809423 0.996719 54.1904 90.7241)" fill="#6B7F4F"/>
<path d="M70.6978 122.32C70.3095 122.698 69.6905 122.698 69.3022 122.32L64.8334 117.966C64.1907 117.34 64.634 116.25 65.5312 116.25H74.4688C75.366 116.25 75.8093 117.34 75.1666 117.966L70.6978 122.32Z" fill="#D15C1D"/>
<path d="M21.6655 16.5456C21.5222 13.6642 25.1312 12.2611 26.9719 14.4826L53.8606 46.9354C53.9696 47.0669 54.0671 47.2074 54.1521 47.3555L65.7515 67.5555C66.6836 69.1787 65.918 71.2498 64.1542 71.8763L28.9068 84.398C27.0129 85.0708 25.006 83.7274 24.9062 81.72L21.6655 16.5456Z" fill="#493C33"/>
<path d="M117.876 17.5456C118.02 14.6642 114.411 13.2611 112.57 15.4826L85.6811 47.9354C85.5722 48.0669 85.4747 48.2074 85.3896 48.3555L73.7902 68.5555C72.8581 70.1787 73.6237 72.2498 75.3875 72.8763L110.635 85.398C112.529 86.0708 114.536 84.7274 114.636 82.72L117.876 17.5456Z" fill="#493C33"/>
</svg>
