<svg width="51" height="38" viewBox="0 0 51 38" fill="none" xmlns="http://www.w3.org/2000/svg">
<path d="M23 31H3V13C3 7.47715 7.47715 3 13 3H23V31ZM6 9C4.89543 9 4 9.89543 4 11V18H8V11C8 9.89543 7.10457 9 6 9Z" fill="#1FA15E"/>
<path d="M0 21C0 19.3431 1.34315 18 3 18H9V31H3C1.34315 31 0 29.6569 0 28V21Z" fill="#1FA15E"/>
<path d="M23.5752 30.8799C24.2059 30.958 24.8481 31 25.5 31H34.2617C34.7118 33.4115 34.0341 35.6402 32.3301 36.624C29.9387 38.0047 26.433 36.4104 24.5 33.0625C24.0873 32.3477 23.7806 31.6103 23.5752 30.8799ZM51 4H38.333C37.7809 4.00018 37.333 4.44782 37.333 5C37.333 5.55218 37.7809 5.99982 38.333 6H51V8H34.917C34.3647 8 33.917 8.44771 33.917 9C33.917 9.55229 34.3647 10 34.917 10H51V12H37.125C36.2966 12 35.625 12.6716 35.625 13.5C35.625 14.3284 36.2966 15 37.125 15H51V16H34.5625C33.7341 16 33.0625 16.6716 33.0625 17.5C33.0625 18.3284 33.7341 19 34.5625 19H51V20H34.917C34.3647 20 33.917 20.4477 33.917 21C33.917 21.5523 34.3647 22 34.917 22H51V25H37.4795C36.9272 25 36.4795 25.4477 36.4795 26C36.4795 26.5523 36.9272 27 37.4795 27H51V31H34.2617C34.0802 30.0273 33.7157 29.0248 33.1602 28.0625C31.2272 24.7145 27.7215 23.1193 25.3301 24.5C23.4492 25.586 22.8186 28.1889 23.5752 30.8799C15.9232 29.932 10 23.4086 10 15.5C10 6.93959 16.9396 0 25.5 0H51V4Z" fill="#1FA15E"/>
</svg>
