<svg width="40" height="28" viewBox="0 0 40 28" fill="none" xmlns="http://www.w3.org/2000/svg">
<rect y="2" width="39" height="26" rx="3" fill="#1FA15E"/>
<line x1="1" y1="13.5" x2="19" y2="13.5" stroke="black"/>
<line x1="1" y1="17.5" x2="25" y2="17.5" stroke="black"/>
<path d="M4.86328 3C5.47218 3 6.03595 3.2006 6.5 3.54004C5.75874 4.08225 5.27246 4.98104 5.27246 6C5.27246 7.01874 5.759 7.91674 6.5 8.45898C6.03586 8.79863 5.47239 9 4.86328 9C3.2819 8.9998 2 7.65673 2 6C2 4.34327 3.2819 3.0002 4.86328 3ZM8.13574 3C9.71728 3 11 4.34315 11 6C11 7.65685 9.71728 9 8.13574 9C7.52687 8.99986 6.96398 8.79851 6.5 8.45898C7.24099 7.91674 7.72754 7.01874 7.72754 6C7.72754 4.98104 7.24126 4.08225 6.5 3.54004C6.96389 3.20072 7.52708 3.00014 8.13574 3Z" fill="#FFCF38"/>
<circle cx="34.5" cy="5.5" r="5.5" fill="#C7E863"/>
<circle cx="31.5385" cy="5.64105" r="1.12821" fill="#FF3D00"/>
<circle cx="34.3589" cy="5.64105" r="1.12821" fill="#FF3D00" fill-opacity="0.6"/>
<circle cx="37.1796" cy="5.64105" r="1.12821" fill="#FF3D00" fill-opacity="0.3"/>
</svg>
